<svg width="888" height="357" viewBox="0 0 888 357" fill="none" xmlns="http://www.w3.org/2000/svg">
<path d="M189.007 306.636C203.024 306.545 213.681 315.544 213.681 332.674C213.681 346.197 202.546 357.087 189.007 356.999C175.556 356.912 164.652 347.749 164.652 332.674C164.652 315.886 175.075 306.726 189.007 306.636Z" fill="#84BABF"/>
<path fill-rule="evenodd" clip-rule="evenodd" d="M0.000398487 7.53741C0.000524155 3.4261 50.425 3.08349 50.425 7.53741V144.239C50.425 152.119 61.0588 189.463 94.3322 189.463C127.606 189.463 138.925 177.472 138.925 177.472C138.925 177.472 122.117 154.86 122.117 112.376C122.117 50.7063 169.978 1.96804 230.17 0C295.525 1.96804 342.519 53.7021 341.996 112.376C341.503 167.536 312.839 191.862 312.839 191.862L337.194 227.634C337.194 227.634 338.909 230.234 337.194 232.632C335.814 234.561 333.763 234.688 333.763 234.688H291.914C291.228 234.688 279.222 218.585 279.222 218.585C279.222 218.585 246.978 238.114 226.397 260.726C217.168 270.865 216.862 275.48 213.681 285.737C213.282 287.021 212.902 287.57 212.676 287.792C211.978 288.478 210.274 288.478 210.274 288.478H168.769C168.769 288.478 167.105 288.478 166.71 288.135C166.448 287.907 165.919 287.361 165.949 285.394C166.039 279.429 167.372 265.646 176.658 251.476C189.007 232.632 202.385 224.752 202.385 224.752C202.385 224.752 192.567 223.183 186.606 220.641C180.645 218.099 171.856 211.733 171.856 211.733C171.856 211.733 147.501 239.142 94.3322 239.142C41.1634 239.142 0.000426756 189.463 0.000398487 144.239C0.000365117 90.8536 -0.000481185 36.3167 0.000398487 7.53741ZM166.367 112.376C166.367 75.833 193.123 43.8541 230.17 43.8541C268.249 43.8541 299.461 74.6889 299.461 112.376C299.461 127.628 294.942 142.038 287.112 153.961C287.112 153.961 280.548 144.469 275.792 138.757C271.037 133.045 262.757 124.71 262.757 124.71H225.711C225.025 124.71 222.898 125.053 222.28 128.136C221.663 131.22 222.966 132.933 222.966 132.933L254.868 180.63C247.254 183.674 238.945 185.352 230.17 185.352C193.123 185.352 166.367 150.748 166.367 112.376Z" fill="#E0EDE9"/>
<path fill-rule="evenodd" clip-rule="evenodd" d="M527.522 201.7L526.722 201.703V202.6L527.522 201.7Z" fill="url(#paint0_linear_245_30)"/>
<path fill-rule="evenodd" clip-rule="evenodd" d="M576.076 234.917C576.081 234.916 576.087 234.915 576.092 234.914L576.097 234.914C576.108 234.912 576.118 234.91 576.129 234.909C576.147 234.906 576.165 234.903 576.183 234.9H577.183L575.583 234.1L576.076 234.917Z" fill="url(#paint1_linear_245_30)"/>
<path d="M394.9 235C388.3 235 383.033 233.1 379.1 229.3C375.167 225.433 373.2 220.2 373.2 213.6V179H384V213.6C384 217.4 384.967 220.367 386.9 222.5C388.833 224.567 391.5 225.6 394.9 225.6C398.367 225.6 401.067 224.567 403 222.5C405 220.367 406 217.4 406 213.6V179H416.8V213.6C416.8 220.2 414.8 225.433 410.8 229.3C406.867 233.1 401.567 235 394.9 235Z" fill="#84BABF"/>
<path d="M453.061 234.9C449.128 234.9 445.661 234.267 442.661 233C439.728 231.733 437.394 230 435.661 227.8C433.994 225.533 433.028 222.867 432.761 219.8H443.561C443.828 221.6 444.794 223.067 446.461 224.2C448.128 225.267 450.328 225.8 453.061 225.8H457.361C460.628 225.8 463.094 225.133 464.761 223.8C466.428 222.467 467.261 220.7 467.261 218.5C467.261 216.367 466.494 214.7 464.961 213.5C463.494 212.233 461.294 211.4 458.361 211L451.261 209.9C445.394 208.967 441.061 207.3 438.261 204.9C435.528 202.433 434.161 198.8 434.161 194C434.161 188.933 435.794 185.033 439.061 182.3C442.394 179.5 447.294 178.1 453.761 178.1H457.561C463.294 178.1 467.861 179.433 471.261 182.1C474.728 184.7 476.694 188.2 477.161 192.6H466.361C466.094 191 465.194 189.7 463.661 188.7C462.194 187.7 460.161 187.2 457.561 187.2H453.761C450.628 187.2 448.328 187.8 446.861 189C445.461 190.133 444.761 191.833 444.761 194.1C444.761 196.1 445.394 197.6 446.661 198.6C447.928 199.6 449.894 200.3 452.561 200.7L459.861 201.9C466.061 202.767 470.594 204.5 473.461 207.1C476.394 209.633 477.861 213.333 477.861 218.2C477.861 223.467 476.128 227.567 472.661 230.5C469.261 233.433 464.161 234.9 457.361 234.9H453.061Z" fill="#84BABF"/>
<path fill-rule="evenodd" clip-rule="evenodd" d="M514.922 235C510.455 235 506.522 234.133 503.122 232.4C499.789 230.6 497.222 228.1 495.422 224.9C493.622 221.7 492.722 217.967 492.722 213.7V199.3C492.722 194.967 493.622 191.233 495.422 188.1C497.222 184.9 499.789 182.433 503.122 180.7C506.522 178.9 510.455 178 514.922 178C519.455 178 523.389 178.9 526.722 180.7C530.055 182.433 532.622 184.9 534.422 188.1C536.222 191.233 537.122 194.967 537.122 199.3V209.1H503.122V213.7C503.122 217.767 504.122 220.867 506.122 223C508.189 225.133 511.155 226.2 515.022 226.2C518.155 226.2 520.689 225.667 522.622 224.6C524.555 223.467 525.755 221.833 526.222 219.7H536.922C536.122 224.367 533.722 228.1 529.722 230.9C525.722 233.633 520.789 235 514.922 235ZM523.722 189.9C525.722 192.1 526.722 195.2 526.722 199.2V201.703L527.522 201.7L526.722 202.6V201.703L503.122 201.8V199.3C503.122 195.233 504.122 192.1 506.122 189.9C508.189 187.7 511.122 186.6 514.922 186.6C518.789 186.6 521.722 187.7 523.722 189.9Z" fill="#84BABF"/>
<path fill-rule="evenodd" clip-rule="evenodd" d="M575.583 234.1L577.183 234.9H576.183L576.129 234.909L576.097 234.914L576.092 234.914L576.076 234.917L586.383 252H598.383L586.483 232.5C590.016 230.833 592.716 228.333 594.583 225C596.516 221.667 597.483 217.8 597.483 213.4V181.6C597.483 177.2 596.549 173.4 594.683 170.2C592.816 167 590.183 164.5 586.783 162.7C583.45 160.9 579.483 160 574.883 160C570.349 160 566.383 160.9 562.983 162.7C559.583 164.5 556.949 167 555.083 170.2C553.216 173.4 552.283 177.2 552.283 181.6V213.4C552.283 217.733 553.216 221.533 555.083 224.8C556.949 228 559.583 230.5 562.983 232.3C566.383 234.1 570.349 235 574.883 235C575.308 235 575.706 234.972 576.076 234.917L575.583 234.1ZM583.483 222.2C581.416 224.4 578.549 225.5 574.883 225.5C571.216 225.5 568.316 224.4 566.183 222.2C564.116 220 563.083 217.067 563.083 213.4V181.6C563.083 177.867 564.15 174.933 566.283 172.8C568.416 170.6 571.283 169.5 574.883 169.5C578.549 169.5 581.416 170.6 583.483 172.8C585.616 174.933 586.683 177.867 586.683 181.6V213.4C586.683 217.067 585.616 220 583.483 222.2Z" fill="#0D6F73"/>
<path d="M634.744 235C628.144 235 622.877 233.1 618.944 229.3C615.01 225.433 613.044 220.2 613.044 213.6V179H623.844V213.6C623.844 217.4 624.81 220.367 626.744 222.5C628.677 224.567 631.344 225.6 634.744 225.6C638.21 225.6 640.91 224.567 642.844 222.5C644.844 220.367 645.844 217.4 645.844 213.6V179H656.644V213.6C656.644 220.2 654.644 225.433 650.644 229.3C646.71 233.1 641.41 235 634.744 235Z" fill="#0D6F73"/>
<path fill-rule="evenodd" clip-rule="evenodd" d="M690.805 167.7C692.205 168.9 694.071 169.5 696.405 169.5C698.738 169.5 700.605 168.9 702.005 167.7C703.405 166.433 704.105 164.767 704.105 162.7C704.105 160.567 703.405 158.9 702.005 157.7C700.605 156.433 698.738 155.8 696.405 155.8C694.071 155.8 692.205 156.433 690.805 157.7C689.405 158.9 688.705 160.567 688.705 162.7C688.705 164.767 689.405 166.433 690.805 167.7Z" fill="url(#paint2_linear_245_30)"/>
<path d="M672.905 234V224.2H692.205V188.8H675.405V179H702.705V224.2H720.405V234H672.905Z" fill="#0D6F73"/>
<path d="M733.166 234V223.8L762.866 188.6H734.066V179H775.266V189.2L745.166 224.4H776.366V234H733.166Z" fill="#0D6F73"/>
<path d="M833.227 246C823.427 243.533 815.827 238.9 810.427 232.1C805.027 225.233 802.327 216.867 802.327 207V189C802.327 182.533 803.56 176.667 806.027 171.4C808.56 166.133 812.127 161.667 816.727 158C821.393 154.267 826.893 151.6 833.227 150V160.4C829.093 161.4 825.527 163.233 822.527 165.9C819.527 168.5 817.193 171.767 815.527 175.7C813.927 179.633 813.127 184.067 813.127 189V207C813.127 211.8 813.927 216.167 815.527 220.1C817.193 224.033 819.527 227.3 822.527 229.9C825.527 232.433 829.093 234.2 833.227 235.2V246Z" fill="#0D6F73"/>
<path d="M856.188 246V235.2C860.321 234.2 863.888 232.433 866.888 229.9C869.888 227.3 872.187 224.033 873.787 220.1C875.454 216.167 876.287 211.8 876.287 207V189C876.287 184.067 875.454 179.633 873.787 175.7C872.187 171.767 869.888 168.5 866.888 165.9C863.888 163.233 860.321 161.4 856.188 160.4V150C862.588 151.6 868.088 154.267 872.688 158C877.288 161.667 880.821 166.133 883.287 171.4C885.821 176.667 887.088 182.533 887.088 189V207C887.088 216.867 884.387 225.233 878.987 232.1C873.587 238.9 865.988 243.533 856.188 246Z" fill="#0D6F73"/>
<rect x="615" y="263" width="272" height="80" rx="10" fill="#F8FBFA" fill-opacity="0.2"/>
<path d="M663.58 325L674.74 281.2H683.26L694.42 325H687.88L685.24 313.9H672.82L670.18 325H663.58ZM674.02 308.56H683.98L680.98 295.9C680.46 293.66 680.02 291.72 679.66 290.08C679.34 288.4 679.12 287.26 679 286.66C678.88 287.26 678.66 288.4 678.34 290.08C678.02 291.72 677.58 293.64 677.02 295.84L674.02 308.56ZM712.637 325.6C709.317 325.6 706.657 324.48 704.657 322.24C702.657 320 701.657 316.98 701.657 313.18V303.88C701.657 300.04 702.657 297 704.657 294.76C706.657 292.52 709.317 291.4 712.637 291.4C715.357 291.4 717.517 292.16 719.117 293.68C720.717 295.16 721.517 297.2 721.517 299.8L720.137 298.3H721.637L721.457 290.62V281.2H727.937V325H721.517V318.7H720.137L721.517 317.2C721.517 319.8 720.717 321.86 719.117 323.38C717.517 324.86 715.357 325.6 712.637 325.6ZM714.857 319.96C716.897 319.96 718.497 319.34 719.657 318.1C720.857 316.82 721.457 315.06 721.457 312.82V304.18C721.457 301.94 720.857 300.2 719.657 298.96C718.497 297.68 716.897 297.04 714.857 297.04C712.737 297.04 711.077 297.66 709.877 298.9C708.677 300.1 708.077 301.86 708.077 304.18V312.82C708.077 315.14 708.677 316.92 709.877 318.16C711.077 319.36 712.737 319.96 714.857 319.96ZM736.493 325V292H741.893V296.2H743.093L742.193 297.46C742.193 295.62 742.693 294.16 743.693 293.08C744.693 291.96 746.033 291.4 747.713 291.4C749.513 291.4 750.893 292.1 751.853 293.5C752.853 294.9 753.353 296.82 753.353 299.26L751.913 296.2H754.193L753.233 297.46C753.233 295.62 753.733 294.16 754.733 293.08C755.773 291.96 757.153 291.4 758.873 291.4C760.913 291.4 762.513 292.18 763.673 293.74C764.833 295.26 765.413 297.3 765.413 299.86V325H759.653V300.04C759.653 298.8 759.373 297.84 758.813 297.16C758.293 296.48 757.533 296.14 756.533 296.14C755.533 296.14 754.753 296.48 754.193 297.16C753.673 297.8 753.413 298.74 753.413 299.98V325H748.553V300.04C748.553 298.76 748.273 297.8 747.713 297.16C747.153 296.48 746.353 296.14 745.313 296.14C744.313 296.14 743.553 296.48 743.033 297.16C742.553 297.8 742.313 298.74 742.313 299.98V325H736.493ZM773.79 325V319.12H785.37V297.88H775.29V292H791.67V319.12H802.29V325H773.79ZM787.89 286.3C786.49 286.3 785.37 285.94 784.53 285.22C783.69 284.46 783.27 283.46 783.27 282.22C783.27 280.94 783.69 279.94 784.53 279.22C785.37 278.46 786.49 278.08 787.89 278.08C789.29 278.08 790.41 278.46 791.25 279.22C792.09 279.94 792.51 280.94 792.51 282.22C792.51 283.46 792.09 284.46 791.25 285.22C790.41 285.94 789.29 286.3 787.89 286.3ZM809.946 325V292H816.366V298.3H817.926L816.366 299.8C816.366 297.16 817.146 295.1 818.706 293.62C820.266 292.14 822.426 291.4 825.186 291.4C828.466 291.4 831.086 292.46 833.046 294.58C835.006 296.66 835.986 299.48 835.986 303.04V325H829.506V303.76C829.506 301.6 828.926 299.94 827.766 298.78C826.606 297.62 825.026 297.04 823.026 297.04C820.986 297.04 819.366 297.66 818.166 298.9C817.006 300.1 816.426 301.86 816.426 304.18V325H809.946Z" fill="#FFC857"/>
<defs>
<linearGradient id="paint0_linear_245_30" x1="495.5" y1="198" x2="781" y2="198" gradientUnits="userSpaceOnUse">
<stop stop-color="#84BABF"/>
<stop offset="0.5" stop-color="#0D6F73"/>
<stop offset="1" stop-color="#085558"/>
</linearGradient>
<linearGradient id="paint1_linear_245_30" x1="495.5" y1="198" x2="781" y2="198" gradientUnits="userSpaceOnUse">
<stop stop-color="#84BABF"/>
<stop offset="0.5" stop-color="#0D6F73"/>
<stop offset="1" stop-color="#085558"/>
</linearGradient>
<linearGradient id="paint2_linear_245_30" x1="495.5" y1="198" x2="781" y2="198" gradientUnits="userSpaceOnUse">
<stop stop-color="#84BABF"/>
<stop offset="0.5" stop-color="#0D6F73"/>
<stop offset="1" stop-color="#085558"/>
</linearGradient>
</defs>
</svg>
