<svg width="450" height="450" viewBox="0 0 450 450" fill="none" xmlns="http://www.w3.org/2000/svg">
<circle cx="225" cy="225" r="225" fill="#E0EDE9"/>
<path d="M224.871 355.001C235.733 354.93 243.99 361.912 243.99 375.204C243.99 385.696 235.362 394.146 224.871 394.078C214.449 394.01 206 386.901 206 375.204C206 362.178 214.076 355.071 224.871 355.001Z" fill="#84BABF"/>
<path d="M147.9 333L203.7 114H246.3L302.1 333H269.4L256.2 277.5H194.1L180.9 333H147.9ZM200.1 250.8H249.9L234.9 187.5C232.3 176.3 230.1 166.6 228.3 158.4C226.7 150 225.6 144.3 225 141.3C224.4 144.3 223.3 150 221.7 158.4C220.1 166.6 217.9 176.2 215.1 187.2L200.1 250.8Z" fill="#0D6F73"/>
</svg>
