<svg width="500" height="500" viewBox="0 0 500 500" fill="none" xmlns="http://www.w3.org/2000/svg">
<g clip-path="url(#clip0_415_42)">
<path d="M189.536 0.150908C186.745 0.565964 184.08 1.59019 181.729 3.15091C181.729 3.15091 157.402 18.4586 131.248 35.0163C105.094 51.5548 75.9979 69.7855 69.344 73.4778L68.1325 74.0548C43.9786 88.9586 38.9594 113.305 38.094 126.959C38.0562 127.374 38.068 127.741 38.0805 128.133C38.0872 128.34 38.094 128.554 38.094 128.786C37.8825 133.901 38.094 137.189 38.094 137.189V388.401C38.094 424.901 80.6517 442.459 121.036 442.459C134.498 442.459 147.959 440.286 159.498 436.439C167.19 432.593 172.709 424.901 172.709 417.209V215.286C172.709 171.055 182.325 150.286 211.171 132.978C218.863 129.132 299.517 73.4586 299.517 73.4586C303.363 69.6124 307.325 61.8048 307.325 56.0355V54.2278C307.325 46.5355 303.479 40.6509 297.709 36.8048C291.94 32.9586 284.248 32.9586 278.479 36.8048C276.556 38.7278 159.248 117.709 134.248 131.17C109.248 146.555 85.9209 150.266 80.1517 142.574C78.3632 140.786 76.8056 135.305 76.5556 129.959V128.747C76.5748 123.516 77.9209 113.67 88.5748 107.112C97.8509 101.946 118.928 88.5916 141.203 74.4779L141.207 74.4755C144.883 72.146 148.592 69.796 152.286 67.4586C157.68 64.0416 160.761 62.1175 163.513 60.3985L163.515 60.3975C166.385 58.605 168.898 57.0352 173.306 54.2278C174.442 58.9258 177.306 63.0234 181.328 65.7051C185.349 68.3868 190.233 69.4558 195.007 68.6993C199.781 67.9428 204.095 65.4164 207.09 61.6229C210.085 57.8294 211.542 53.0471 211.171 48.2278V19.3817C211.192 16.6406 210.628 13.9266 209.515 11.4217C208.402 8.9167 206.766 6.67863 204.717 4.85752C202.668 3.0364 200.254 1.67431 197.636 0.862566C195.017 0.0508222 192.256 -0.191819 189.536 0.150908Z" fill="#2496A5"/>
<path fill-rule="evenodd" clip-rule="evenodd" d="M422.709 246.555V208.093L326.556 282.593V321.055L422.709 246.555Z" fill="#FC8A11"/>
<path d="M422.709 208.093V246.555L326.556 321.055V282.593L422.709 208.093Z" fill="#FEC588"/>
<path fill-rule="evenodd" clip-rule="evenodd" d="M343.382 67.4586C340.324 67.9672 337.435 69.2076 334.959 71.074C334.959 71.074 238.152 136.209 221.382 147.382L220.786 147.997C206.863 158.439 198.613 170.862 194.94 182.228C192.894 188.642 191.881 195.341 191.94 202.074V208.093C191.912 208.689 191.912 209.286 191.94 209.882V442.459C191.94 478.997 234.017 500.151 272.479 500.151C289.786 500.151 305.402 496.42 316.94 488.728C340.017 475.266 451.556 388.382 451.556 388.382C457.325 384.536 461.171 379.112 461.171 373.343V123.343C461.171 113.728 457.44 107.959 449.748 104.112C443.979 100.266 434.498 102.074 428.729 105.92C419.467 112.866 405.489 123.625 389.948 135.586C353.859 163.362 309.344 197.624 295.902 205.689C278.509 215.628 261.766 220.751 249.5 220.541C249.5 220.541 246.991 221.891 245.059 224C244.131 225.013 243.336 226.202 243.017 227.5C242.576 229.295 242.578 245.896 242.579 263.651C242.581 285.456 242.584 309 241.766 309C240.082 309 236.579 306.35 233.486 304.009C231.04 302.158 228.85 300.5 228.017 300.5C226.951 300.5 225.041 303.313 223.072 306.215C220.973 309.307 218.807 312.5 217.517 312.5C216.517 312.5 211.761 229.5 218 219.5C218.158 219.247 218.303 219.013 218.439 218.793C219.2 217.566 219.695 216.766 220.786 215.305C222.446 213.082 224.458 210.889 226.5 209C228.413 207.23 230.414 205.689 230.414 205.689C230.395 204.865 230.398 203.996 230.4 203.07V203.069C230.401 202.744 230.402 202.413 230.402 202.074C230.504 198.741 230.908 195.933 231.613 193.651C232.69 190.305 234.882 186.189 243.017 179.843C243.204 179.693 243.255 179.621 243.304 179.551C243.356 179.477 243.406 179.405 243.613 179.247C254.074 172.259 280.732 154.124 305.104 137.545L305.14 137.52C313.149 132.071 320.91 126.792 327.767 122.132C329.338 126.346 332.337 129.877 336.242 132.11C340.147 134.342 344.711 135.135 349.14 134.351C353.569 133.567 357.583 131.255 360.484 127.817C363.385 124.379 364.989 120.034 365.017 115.536V86.6894C365.039 83.9483 364.474 81.2343 363.361 78.7294C362.248 76.2244 360.612 73.9863 358.563 72.1652C356.514 70.3441 354.1 68.982 351.482 68.1703C348.864 67.3585 346.102 67.1159 343.382 67.4586ZM422.709 246.555V208.093L326.556 282.593V321.055L422.709 246.555Z" fill="#FC8A11"/>
<path fill-rule="evenodd" clip-rule="evenodd" d="M217.517 312.5C216.517 312.5 211.761 229.5 218 219.5C218.158 219.247 218.303 219.013 218.439 218.793C219.2 217.566 219.695 216.766 220.786 215.305C222.446 213.082 224.458 210.889 226.5 209C226.5 209 228.659 216.969 233 219.5C239 222.999 245.059 224 245.059 224C244.131 225.013 243.336 226.202 243.017 227.5C242.576 229.295 242.578 245.896 242.579 263.651C242.581 285.456 242.584 309 241.766 309C240.082 309 236.579 306.35 233.486 304.009C231.04 302.158 228.85 300.5 228.017 300.5C226.951 300.5 225.041 303.313 223.072 306.215C220.973 309.307 218.807 312.5 217.517 312.5Z" fill="#2496A5"/>
<path d="M248.249 220.5C242.111 220.203 237.188 218.495 233.998 215.305C233.227 214.534 232.62 213.772 232.143 213C230.78 210.794 230.477 208.507 230.414 205.689C230.414 205.689 228.413 207.23 226.5 209C226.5 209 228.659 216.969 233 219.5C239 222.999 245.059 224 245.059 224C246.991 221.891 249.5 220.541 249.5 220.541C249.078 220.533 248.661 220.52 248.249 220.5Z" fill="#FC8A11"/>
</g>
<defs>
<clipPath id="clip0_415_42">
<rect width="500" height="500" fill="white"/>
</clipPath>
</defs>
</svg>
