<svg width="658" height="589" viewBox="0 0 658 589" fill="none" xmlns="http://www.w3.org/2000/svg">
<g clip-path="url(#clip0_192_132)">
<path d="M688.549 142.76C663.543 159.337 630.503 156.963 608.124 136.981L495.382 36.3163C442.815 -10.6197 490.536 -96.2246 558.1 -76.1925L740.927 -21.9869C794.648 -6.05927 805.335 65.3415 758.633 96.3011L688.549 142.76Z" fill="#84BABF" fill-opacity="0.9"/>
<path d="M612.977 106.034C602.347 120.793 583.877 127.701 566.171 123.541L429.152 91.3497C403.759 85.3841 388.742 59.1485 396.457 34.232L410.513 -11.1614C416.342 -29.9865 433.742 -42.8287 453.449 -42.8508L570.616 -42.9824L632.465 -41.2069C668.545 -40.1712 688.784 0.786801 667.688 30.0748L612.977 106.034Z" fill="#0D6F73" fill-opacity="0.7"/>
<g opacity="0.7">
<path fill-rule="evenodd" clip-rule="evenodd" d="M581.446 95.9121C581.822 97.4295 582.78 98.6834 584.32 99.6736L586.63 101.159C588.17 102.149 589.726 102.473 591.296 102.132C592.867 101.791 594.13 100.876 595.086 99.3893C596.008 97.9553 596.308 96.4967 595.986 95.0133C595.697 93.4769 594.757 92.1965 593.163 91.1722L590.773 89.6357C589.233 88.6455 587.678 88.3211 586.107 88.6625C584.571 88.9507 583.324 89.8384 582.368 91.3255C581.412 92.8126 581.105 94.3415 581.446 95.9121Z" fill="#9BC3C3"/>
<path d="M592.594 80.6731L602.246 65.4854L607.345 68.7633C610.425 70.7437 613.371 71.474 616.182 70.9544C619.046 70.4688 621.366 68.8452 623.142 66.0835C624.917 63.3217 625.431 60.5372 624.684 57.7298C623.937 54.9225 622.023 52.5286 618.942 50.5482L608.108 43.5827L613.281 35.5365L623.876 42.3483C627.753 44.8409 630.612 47.6919 632.452 50.9014C634.379 54.0919 635.293 57.457 635.194 60.9965C635.096 64.536 633.919 68.0584 631.666 71.5637C629.651 74.6972 627.195 77.0587 624.296 78.6482C621.451 80.2718 618.399 81.0494 615.14 80.981C611.969 80.8937 608.782 79.8959 605.58 77.9876L600.561 85.7948L592.594 80.6731Z" fill="#EFF6F4"/>
</g>
<path d="M349.482 41.1876L326.012 52.0813L322.384 44.1563C320.192 39.3684 317.193 36.198 313.387 34.6453C309.543 33.01 305.475 33.1748 301.182 35.1399C296.89 37.1049 294.106 40.0765 292.832 44.0547C291.558 48.0329 292.016 52.416 294.208 57.2039L301.917 74.0444L289.41 79.7694L281.872 63.3004C279.113 57.2742 277.866 51.6046 278.13 46.2916C278.273 40.9339 279.778 36.1511 282.645 31.9432C285.511 27.7354 289.669 24.3844 295.117 21.8904C299.988 19.6608 304.794 18.7088 309.536 19.0343C314.24 19.2772 318.538 20.7047 322.43 23.3167C326.201 25.8839 329.284 29.5649 331.679 34.3599L343.814 28.8049L349.482 41.1876ZM374.245 24.6101C375.341 27.0041 375.527 29.2653 374.804 31.3936C373.998 33.5597 372.44 35.1718 370.128 36.2299C367.817 37.288 365.619 37.3953 363.536 36.5518C361.37 35.746 359.739 34.1462 358.643 31.7522L356.942 28.0374C355.809 25.5608 355.663 23.2808 356.507 21.1972C357.268 19.1514 358.763 17.6184 360.992 16.5981C363.303 15.54 365.542 15.4138 367.708 16.2196C369.874 17.0253 371.505 18.6251 372.601 21.0191L374.245 24.6101Z" fill="#569A9D"/>
<path d="M415.151 -56.9855C446.428 -59.2348 472.808 -33.9868 471.932 -2.64187L470.152 61.0851C469.014 101.831 424.226 126.094 389.474 104.791L296.618 47.87C252.694 20.9441 269.128 -46.4835 320.515 -50.1793L415.151 -56.9855Z" fill="#E0EDE9" fill-opacity="0.5"/>
<path d="M411.42 27.1464L425.951 33.8213L423.677 38.7041C422.303 41.6542 422.014 44.3357 422.809 46.7485C423.58 49.2122 425.288 51.0599 427.933 52.2917C430.578 53.5235 433.092 53.6418 435.474 52.6468C437.856 51.6518 439.734 49.6793 441.108 46.7292L445.94 36.3531L453.646 39.9419L448.92 50.0891C447.191 53.8021 445.024 56.6612 442.419 58.6666C439.841 60.7464 436.988 61.9553 433.859 62.2933C430.731 62.6313 427.488 62.0186 424.131 60.4552C421.13 59.0576 418.756 57.1782 417.009 54.817C415.237 52.5066 414.186 49.9126 413.855 47.0351C413.551 44.232 414.047 41.3064 415.343 38.2581L407.866 34.7759L411.42 27.1464ZM393.696 22.1418C394.383 20.6668 395.372 19.6728 396.663 19.16C398.005 18.6708 399.388 18.7579 400.813 19.4212C402.237 20.0844 403.168 21.0752 403.606 22.3934C404.095 23.7353 403.996 25.1438 403.31 26.6189L402.244 28.9077C401.533 30.4336 400.518 31.4157 399.2 31.854C397.933 32.316 396.613 32.2272 395.239 31.5876C393.815 30.9243 392.858 29.9217 392.369 28.5798C391.88 27.2379 391.979 25.8294 392.666 24.3543L393.696 22.1418Z" fill="#569A9D"/>
<path d="M701.14 40.3729L712.436 14.7219L721.057 18.5725C726.265 20.8989 730.972 21.3321 735.178 19.8722C739.475 18.4524 742.666 15.4079 744.752 10.7387C746.837 6.06945 746.975 1.66119 745.166 -2.48613C743.356 -6.63344 739.848 -9.8703 734.64 -12.1967L716.322 -20.3792L722.399 -33.9827L740.312 -25.9807C746.867 -23.0527 751.938 -19.3336 755.524 -14.8235C759.24 -10.363 761.437 -5.39618 762.116 0.0770552C762.795 5.55029 761.81 11.25 759.163 17.1763C756.797 22.4741 753.568 26.6868 749.479 29.8145C745.479 32.9823 740.962 34.896 735.928 35.5556C731.024 36.1654 725.883 35.3769 720.505 33.19L714.609 46.3894L701.14 40.3729ZM692.858 71.5715C690.254 70.4083 688.485 68.7024 687.551 66.454C686.656 64.1157 686.771 61.6895 687.894 59.1753C689.017 56.6611 690.727 55.0018 693.026 54.1973C695.364 53.303 697.835 53.4375 700.439 54.6007L704.48 56.4056C707.173 57.6089 708.923 59.3597 709.727 61.6578C710.572 63.8662 710.452 66.1825 709.369 68.6069C708.246 71.1211 706.516 72.8253 704.177 73.7196C701.839 74.6139 699.368 74.4794 696.764 73.3162L692.858 71.5715Z" fill="#569A9D" fill-opacity="0.8"/>
<g opacity="0.7">
<path fill-rule="evenodd" clip-rule="evenodd" d="M526.279 59.5065C528.115 60.0529 530.035 59.8206 532.037 58.8094L535.042 57.2926C537.045 56.2815 538.354 54.8405 538.969 52.9697C539.585 51.099 539.404 49.1967 538.428 47.2629C537.487 45.3982 536.133 44.1752 534.366 43.5939C532.564 42.9435 530.627 43.1413 528.555 44.1873L525.447 45.7564C523.445 46.7676 522.135 48.2085 521.52 50.0793C520.869 51.881 521.032 53.7488 522.009 55.6825C522.985 57.6163 524.409 58.891 526.279 59.5065Z" fill="#9BC3C3"/>
<path d="M517.114 38.2634L507.073 18.6326L513.704 15.2853C517.709 13.2629 520.311 10.6059 521.509 7.31433C522.777 3.98785 522.504 0.528955 520.69 -3.06235C518.877 -6.65365 516.256 -8.92703 512.827 -9.88249C509.398 -10.8379 505.681 -10.3045 501.675 -8.28215L487.586 -1.16906L482.304 -11.6322L496.082 -18.5884C501.123 -21.1337 505.911 -22.3806 510.443 -22.329C515.01 -22.3814 519.132 -21.2556 522.808 -18.9518C526.485 -16.6479 529.474 -13.2169 531.775 -8.65867C533.832 -4.58393 534.8 -0.522241 534.677 3.52638C534.623 7.54014 533.548 11.2465 531.451 14.6454C529.387 17.9404 526.353 20.6855 522.348 22.8809L527.474 33.0332L517.114 38.2634Z" fill="#EFF6F4"/>
</g>
<path d="M405.571 513.419C400.965 521.132 391.856 524.909 383.155 522.713L323.339 507.618C302.148 502.271 303.152 471.777 324.649 467.84L401.932 453.684C419.125 450.535 432.01 469.145 423.038 484.169L405.571 513.419Z" fill="#84BABF" fill-opacity="0.3"/>
<path d="M44.2138 526.842C38.2262 529.487 31.2183 527.894 26.9689 522.922L-2.24437 488.746C-12.5938 476.638 0.847051 458.934 15.2892 465.65L67.2102 489.797C78.761 495.169 78.5847 511.661 66.9215 516.813L44.2138 526.842Z" fill="#84BABF" fill-opacity="0.5"/>
<path d="M395.826 484.481C395.912 478.595 399.844 473.468 405.501 471.863L434.055 464.073C452.839 458.949 472.988 462.375 489.034 473.402C490.767 474.593 492.391 475.712 493.911 476.766C518.629 493.905 484.69 516.717 454.613 516.926L441.469 517.018C425.961 517.126 404.061 526.927 396.953 513.142C396 511.295 395.462 509.156 395.497 506.802L395.826 484.481Z" fill="#84BABF" fill-opacity="0.5"/>
<path d="M512.344 513.754V513.754C508.063 516.018 501.626 515.067 497.043 516.632C489.962 519.05 480.765 517.498 483.533 490.831C483.965 486.666 484.326 483.042 484.64 479.887C486.604 460.169 507.589 468.533 519.041 484.705V484.705C521.915 488.764 524.322 493.204 525.415 498.056C526.73 503.89 525.993 506.536 522.216 508.533L512.344 513.754Z" fill="#84BABF" fill-opacity="0.3"/>
<path d="M587.056 500.131V500.131C588.41 502.286 588.162 505.698 589.161 508.039C590.705 511.656 590.25 516.538 576.163 516.127C573.963 516.063 572.049 516.015 570.384 515.974C559.971 515.713 563.537 504.386 571.567 497.753V497.753C573.583 496.088 575.817 494.653 578.318 493.891C581.324 492.974 582.74 493.257 583.934 495.159L587.056 500.131Z" fill="#84BABF" fill-opacity="0.5"/>
<path d="M214.345 476.055C253.692 504.828 214.855 573.293 167.228 559.116L49.2013 523.983C25.0434 516.792 14.6852 489.242 26.666 464.044L44.7219 426.07C58.054 398.03 92.1655 386.706 114.374 402.947L214.345 476.055Z" fill="#84BABF" fill-opacity="0.9"/>
<path d="M61.7073 382.728L56.8481 399.719L51.1338 398.052C47.6815 397.045 44.704 397.177 42.2015 398.45C39.6394 399.704 37.9069 401.88 37.0041 404.975C36.1012 408.07 36.3925 410.835 37.878 413.271C39.3636 415.707 41.8325 417.428 45.2849 418.435L57.4277 421.977L54.7972 430.995L42.9222 427.531C38.577 426.263 35.0912 424.375 32.4648 421.865C29.7615 419.397 27.9634 416.482 27.0707 413.122C26.178 409.761 26.3046 406.117 27.4505 402.188C28.475 398.676 30.1306 395.768 32.4174 393.464C34.6446 391.143 37.3022 389.561 40.39 388.717C43.401 387.916 46.6798 387.969 50.2264 388.874L52.7788 380.124L61.7073 382.728ZM64.208 362.531C65.9342 363.035 67.1854 363.949 67.9616 365.273C68.7205 366.657 68.8569 368.183 68.3707 369.849C67.8845 371.516 66.9582 372.699 65.5916 373.398C64.2076 374.157 62.6525 374.285 60.9263 373.781L58.2478 373C56.4621 372.479 55.2196 371.535 54.5202 370.169C53.8035 368.862 53.6795 367.404 54.1483 365.797C54.6345 364.131 55.5695 362.918 56.9535 362.159C58.3375 361.4 59.8925 361.272 61.6187 361.776L64.208 362.531Z" fill="#569A9D"/>
<path d="M311.069 410.85L304.351 426.225L299.184 423.935C296.063 422.551 293.244 422.3 290.728 423.181C288.159 424.039 286.254 425.867 285.014 428.666C283.773 431.464 283.698 434.103 284.788 436.583C285.879 439.062 287.985 440.994 291.106 442.378L302.086 447.244L298.472 455.398L287.734 450.639C283.806 448.897 280.764 446.68 278.609 443.986C276.377 441.322 275.053 438.353 274.637 435.078C274.221 431.803 274.801 428.389 276.375 424.837C277.783 421.661 279.708 419.134 282.151 417.255C284.54 415.351 287.24 414.198 290.253 413.794C293.187 413.421 296.266 413.884 299.489 415.184L302.996 407.272L311.069 410.85ZM315.973 392.16C317.533 392.852 318.595 393.87 319.159 395.214C319.698 396.613 319.634 398.065 318.966 399.572C318.298 401.079 317.277 402.075 315.902 402.561C314.504 403.1 313.025 403.024 311.464 402.332L309.042 401.259C307.427 400.543 306.377 399.498 305.892 398.124C305.382 396.803 305.45 395.417 306.094 393.963C306.762 392.456 307.795 391.433 309.193 390.894C310.591 390.354 312.071 390.431 313.631 391.122L315.973 392.16Z" fill="#569A9D" fill-opacity="0.7"/>
<path d="M446.083 471.698L438.512 464.431L440.973 461.894C442.46 460.361 443.217 458.761 443.244 457.094C443.296 455.4 442.635 453.887 441.261 452.554C439.886 451.221 438.354 450.606 436.663 450.71C434.972 450.814 433.383 451.632 431.896 453.165L426.666 458.557L422.661 454.673L427.776 449.4C429.648 447.47 431.607 446.165 433.654 445.483C435.7 444.748 437.729 444.613 439.741 445.077C441.753 445.542 443.631 446.62 445.376 448.312C446.935 449.824 448.002 451.501 448.577 453.341C449.177 455.155 449.27 456.989 448.856 458.844C448.441 460.647 447.503 462.354 446.043 463.965L449.929 467.733L446.083 471.698ZM455.992 478.617C455.249 479.384 454.422 479.787 453.511 479.827C452.574 479.841 451.735 479.489 450.995 478.771C450.255 478.053 449.891 477.239 449.903 476.327C449.889 475.39 450.253 474.538 450.997 473.772L452.151 472.582C452.92 471.789 453.76 471.399 454.672 471.411C455.557 471.398 456.356 471.737 457.07 472.429C457.81 473.147 458.187 473.975 458.201 474.912C458.216 475.849 457.851 476.701 457.107 477.467L455.992 478.617Z" fill="#569A9D" fill-opacity="0.7"/>
<path d="M215.008 406.281C228.141 388.086 253.668 384.251 271.567 397.784L341.343 450.542C369.598 471.905 358.19 516.742 323.161 522.004L202.19 540.177C167.161 545.439 143.083 505.934 163.813 477.211L215.008 406.281Z" fill="#E0EDE9" fill-opacity="0.5"/>
<path d="M252.33 436.293L266.116 453.228L261.052 457.852C257.992 460.646 256.337 463.762 256.087 467.201C255.784 470.689 256.883 473.984 259.384 477.087C261.885 480.19 264.778 481.848 268.062 482.06C271.347 482.272 274.519 480.982 277.578 478.188L288.34 468.362L295.626 477.403L285.102 487.012C281.251 490.528 277.305 492.733 273.263 493.626C269.217 494.627 265.274 494.394 261.436 492.927C257.598 491.459 254.091 488.756 250.917 484.818C248.08 481.297 246.214 477.562 245.321 473.613C244.375 469.712 244.413 465.896 245.436 462.166C246.454 458.543 248.471 455.251 251.487 452.29L244.417 443.518L252.33 436.293ZM233.979 419.488C235.508 418.091 237.157 417.466 238.924 417.614C240.739 417.821 242.32 418.76 243.667 420.431C245.013 422.101 245.621 423.878 245.489 425.759C245.405 427.7 244.598 429.369 243.068 430.766L240.694 432.933C239.112 434.378 237.439 434.973 235.677 434.718C233.962 434.522 232.456 433.619 231.157 432.008C229.811 430.337 229.179 428.531 229.263 426.59C229.347 424.648 230.154 422.98 231.684 421.583L233.979 419.488Z" fill="#569A9D" fill-opacity="0.7"/>
<g opacity="0.7">
<path fill-rule="evenodd" clip-rule="evenodd" d="M179.741 507.087C181.908 506.577 183.637 505.167 184.93 502.86L186.869 499.398C188.162 497.09 188.488 494.732 187.846 492.324C187.204 489.915 185.76 487.952 183.514 486.433C181.347 484.969 179.203 484.453 177.082 484.884C174.879 485.261 173.11 486.643 171.772 489.03L169.766 492.611C168.473 494.919 168.148 497.277 168.79 499.686C169.351 502.04 170.755 503.976 173.002 505.494C175.248 507.013 177.495 507.544 179.741 507.087Z" fill="#9BC3C3"/>
<path d="M156.595 489.469L133.661 474.134L137.941 466.495C140.527 461.879 141.311 457.418 140.295 453.111C139.324 448.724 136.752 445.121 132.58 442.301C128.408 439.481 124.32 438.584 120.317 439.609C116.315 440.633 113.02 443.454 110.435 448.069L101.34 464.303L89.1853 456.088L98.0789 440.212C101.333 434.403 105.203 430.161 109.687 427.487C114.136 424.679 118.932 423.423 124.076 423.718C129.22 424.013 134.44 425.95 139.735 429.529C144.469 432.728 148.124 436.569 150.7 441.053C153.321 445.457 154.733 450.142 154.938 455.108C155.107 459.94 153.957 464.757 151.487 469.561L163.281 477.532L156.595 489.469Z" fill="#EFF6F4"/>
</g>
<path fill-rule="evenodd" clip-rule="evenodd" d="M15.5532 29.5462C15.4332 28.3859 29.6278 26.8199 29.7578 28.0769L33.7485 66.6572C33.9785 68.8811 38.0642 79.1108 47.4374 78.1413C56.8106 77.1717 59.6493 73.4577 59.6493 73.4577C59.6493 73.4577 54.2543 67.5657 53.0141 55.5758C51.2138 38.1712 63.2736 23.0215 80.1722 20.7122C98.6404 19.3633 113.389 32.5945 114.954 49.1689C116.426 64.7508 109.061 72.4512 109.061 72.4512L116.966 81.8374C116.966 81.8374 117.525 82.5211 117.112 83.2479C116.78 83.8326 116.206 83.9281 116.206 83.9281L104.417 85.1475C104.224 85.1675 100.371 80.9727 100.371 80.9727C100.371 80.9727 91.8582 87.4237 86.7205 94.4051C84.4169 97.5354 84.4654 98.8468 83.8685 101.834C83.7937 102.208 83.7027 102.374 83.6454 102.444C83.4688 102.657 82.989 102.707 82.989 102.707L71.2967 103.916C71.2967 103.916 70.8281 103.965 70.7069 103.88C70.6262 103.823 70.4613 103.684 70.4123 103.128C70.2635 101.442 70.2367 97.5136 72.439 93.2437C75.3676 87.5658 78.9062 84.9521 78.9062 84.9521C78.9062 84.9521 76.0947 84.7953 74.3412 84.2516C72.5877 83.7078 69.926 82.1674 69.926 82.1674C69.926 82.1674 63.8654 90.6124 48.8876 92.1617C33.9099 93.7109 20.864 80.8899 19.5438 68.1265C17.9853 53.0599 16.393 37.6684 15.5532 29.5462ZM65.4795 54.2864C64.4127 43.9731 71.0163 34.1683 81.4524 33.0888C92.1794 31.9793 101.872 39.7721 102.972 50.4083C103.417 54.7126 102.565 58.9113 100.707 62.5044C100.707 62.5044 98.5811 60.0167 97.0747 58.5433C95.5684 57.0699 92.9927 54.9587 92.9927 54.9587L82.5566 56.0382C82.3634 56.0582 81.7742 56.2169 81.6903 57.1051C81.6064 57.9933 82.0236 58.4388 82.0236 58.4388L92.4027 70.9707C90.3466 72.0515 88.0549 72.7672 85.583 73.0229C75.147 74.1023 66.5997 65.116 65.4795 54.2864Z" fill="#0D6F73"/>
<path d="M77.528 108.451C81.4741 108.017 84.7386 110.246 85.2387 115.081C85.6334 118.898 82.8147 122.296 78.9982 122.665C75.2066 123.032 71.8674 120.764 71.4273 116.51C70.9373 111.772 73.6059 108.883 77.528 108.451Z" fill="#84BABF"/>
<path d="M36.8503 124.541C35.6337 124.667 34.629 124.44 33.8362 123.86C33.0422 123.268 32.5863 122.403 32.4686 121.265L31.8514 115.298L33.8422 115.092L34.4593 121.059C34.5271 121.714 34.7582 122.207 35.1527 122.538C35.5459 122.858 36.0559 122.985 36.6826 122.92C37.3216 122.854 37.8009 122.625 38.1204 122.231C38.451 121.825 38.5824 121.295 38.5146 120.639L37.8974 114.672L39.8882 114.467L40.5054 120.433C40.6231 121.572 40.3478 122.512 39.6795 123.255C39.0222 123.985 38.0791 124.414 36.8503 124.541Z" fill="url(#paint0_linear_192_132)"/>
<path d="M47.5694 123.415C46.8443 123.49 46.194 123.447 45.6184 123.286C45.0551 123.123 44.5941 122.869 44.2354 122.523C43.8877 122.163 43.662 121.722 43.5581 121.198L45.5489 120.992C45.6301 121.298 45.8345 121.532 46.1619 121.696C46.4882 121.848 46.9032 121.898 47.4071 121.846L48.1997 121.764C48.8018 121.702 49.2446 121.54 49.5281 121.278C49.8115 121.016 49.9336 120.696 49.8943 120.316C49.8563 119.948 49.6852 119.676 49.3812 119.498C49.0882 119.307 48.6678 119.206 48.12 119.193L46.7916 119.138C45.6936 119.089 44.8651 118.884 44.3061 118.524C43.7583 118.151 43.4416 117.55 43.356 116.722C43.2656 115.849 43.4971 115.145 44.0505 114.611C44.615 114.065 45.4932 113.73 46.6852 113.607L47.3857 113.534C48.4425 113.425 49.3081 113.568 49.9824 113.963C50.6678 114.345 51.0927 114.911 51.2572 115.661L49.2665 115.867C49.1888 115.596 48.9997 115.389 48.6992 115.246C48.411 115.101 48.0273 115.054 47.548 115.103L46.8476 115.176C46.27 115.236 45.8567 115.383 45.6078 115.618C45.3699 115.84 45.2712 116.147 45.3116 116.537C45.3473 116.882 45.4908 117.129 45.7422 117.277C45.9935 117.426 46.3685 117.509 46.8672 117.527L48.2342 117.595C49.3925 117.626 50.2591 117.838 50.8339 118.232C51.4197 118.613 51.7561 119.223 51.8429 120.062C51.9368 120.971 51.6905 121.711 51.1038 122.283C50.5294 122.853 49.6155 123.203 48.362 123.333L47.5694 123.415Z" fill="url(#paint1_linear_192_132)"/>
<path d="M58.9741 122.253C58.1507 122.338 57.4102 122.264 56.7526 122.03C56.106 121.783 55.5883 121.4 55.1994 120.883C54.8106 120.365 54.5781 119.739 54.502 119.003L54.2451 116.52C54.1678 115.772 54.2671 115.111 54.543 114.537C54.8177 113.951 55.2469 113.476 55.8304 113.114C56.425 112.739 57.134 112.508 57.9573 112.423C58.793 112.337 59.5341 112.417 60.1806 112.664C60.826 112.899 61.3431 113.276 61.7319 113.793C62.1196 114.299 62.3521 114.926 62.4294 115.673L62.6042 117.363L56.337 118.011L56.419 118.805C56.4916 119.506 56.7312 120.022 57.1379 120.351C57.5569 120.68 58.1228 120.807 58.8355 120.733C59.4131 120.674 59.8706 120.533 60.2079 120.313C60.5441 120.08 60.7361 119.776 60.7841 119.399L62.7564 119.195C62.6922 120.015 62.3164 120.705 61.629 121.264C60.9405 121.811 60.0555 122.141 58.9741 122.253ZM60.5712 116.441L60.5106 115.854C60.4392 115.164 60.1996 114.649 59.7917 114.308C59.3838 113.966 58.8235 113.833 58.1107 113.906C57.4103 113.979 56.8892 114.224 56.5475 114.643C56.2181 115.061 56.0896 115.62 56.1622 116.321L56.2067 116.753L60.7026 116.27L60.5712 116.441Z" fill="url(#paint2_linear_192_132)"/>
<path d="M102.645 122.703L100.26 119.463L100.576 119.586C100.526 119.591 100.464 119.598 100.388 119.605C100.315 119.626 100.234 119.641 100.146 119.65C99.2948 119.738 98.5318 119.642 97.8574 119.361C97.1829 119.08 96.6385 118.649 96.2241 118.069C95.8084 117.475 95.5573 116.761 95.471 115.926L94.837 109.797C94.7493 108.949 94.8488 108.198 95.1356 107.545C95.4224 106.892 95.8671 106.359 96.4698 105.946C97.0725 105.533 97.7996 105.283 98.651 105.195C99.515 105.105 100.278 105.202 100.94 105.484C101.614 105.765 102.159 106.195 102.573 106.776C102.988 107.356 103.239 108.071 103.326 108.919L103.96 115.048C104.048 115.896 103.944 116.66 103.647 117.34C103.363 118.019 102.905 118.553 102.275 118.943L104.899 122.47L102.645 122.703ZM99.9568 117.819C100.645 117.748 101.162 117.48 101.506 117.016C101.863 116.55 102.005 115.964 101.932 115.258L101.298 109.129C101.223 108.409 100.965 107.864 100.521 107.495C100.089 107.111 99.5291 106.954 98.8404 107.026C98.1643 107.096 97.6478 107.363 97.291 107.829C96.9328 108.281 96.791 108.867 96.8654 109.587L97.4994 115.716C97.5725 116.423 97.825 116.968 98.257 117.352C98.7016 117.735 99.2682 117.89 99.9568 117.819Z" fill="url(#paint3_linear_192_132)"/>
<path d="M111.389 118.487C110.15 118.615 109.122 118.351 108.308 117.695C107.492 117.027 107.018 116.056 106.887 114.784L106.197 108.115L108.225 107.906L108.915 114.574C108.991 115.307 109.232 115.86 109.637 116.233C110.042 116.594 110.563 116.741 111.202 116.675C111.853 116.608 112.339 116.356 112.661 115.92C112.994 115.47 113.123 114.879 113.047 114.147L112.357 107.478L114.386 107.268L115.076 113.937C115.207 115.209 114.936 116.257 114.262 117.08C113.599 117.888 112.641 118.358 111.389 118.487Z" fill="url(#paint4_linear_192_132)"/>
<path d="M118.536 117.553L118.341 115.664L121.966 115.289L121.26 108.466L118.105 108.793L117.909 106.904L123.037 106.373L123.938 115.085L127.262 114.741L127.458 116.63L118.536 117.553ZM121.664 104.665C121.226 104.71 120.863 104.631 120.577 104.427C120.288 104.21 120.124 103.902 120.082 103.504C120.04 103.093 120.138 102.758 120.377 102.499C120.615 102.228 120.953 102.07 121.391 102.024C121.829 101.979 122.193 102.065 122.481 102.282C122.768 102.486 122.932 102.793 122.975 103.205C123.016 103.603 122.918 103.938 122.68 104.209C122.441 104.468 122.102 104.62 121.664 104.665Z" fill="url(#paint5_linear_192_132)"/>
<path d="M129.854 116.382L129.651 114.416L134.527 107.055L129.118 107.614L128.927 105.764L136.665 104.964L136.868 106.93L131.917 114.299L137.777 113.693L137.968 115.543L129.854 116.382Z" fill="url(#paint6_linear_192_132)"/>
<path d="M148.887 116.751C146.997 116.466 145.477 115.721 144.327 114.515C143.176 113.297 142.502 111.736 142.306 109.835L141.947 106.365C141.818 105.119 141.933 103.964 142.291 102.901C142.662 101.837 143.243 100.907 144.033 100.111C144.835 99.3006 145.815 98.6798 146.973 98.2484L147.18 100.253C146.424 100.526 145.79 100.949 145.28 101.521C144.769 102.08 144.395 102.755 144.161 103.546C143.939 104.335 143.877 105.205 143.975 106.156L144.334 109.625C144.43 110.55 144.667 111.376 145.046 112.103C145.437 112.829 145.941 113.413 146.556 113.856C147.17 114.286 147.875 114.557 148.671 114.67L148.887 116.751Z" fill="url(#paint7_linear_192_132)"/>
<path d="M153.199 116.305L152.984 114.224C153.74 113.951 154.375 113.541 154.888 112.994C155.399 112.435 155.766 111.761 155.988 110.971C156.223 110.181 156.292 109.323 156.197 108.398L155.838 104.929C155.74 103.978 155.495 103.14 155.103 102.414C154.724 101.687 154.227 101.102 153.612 100.659C152.995 100.203 152.289 99.9192 151.493 99.8068L151.285 97.8023C152.519 97.9864 153.605 98.3935 154.544 99.0237C155.481 99.641 156.233 100.433 156.802 101.4C157.383 102.366 157.737 103.472 157.866 104.719L158.225 108.188C158.422 110.09 158.082 111.755 157.204 113.183C156.326 114.599 154.991 115.639 153.199 116.305Z" fill="url(#paint8_linear_192_132)"/>
</g>
<defs>
<linearGradient id="paint0_linear_192_132" x1="118.393" y1="53.3586" x2="350.235" y2="29.3776" gradientUnits="userSpaceOnUse">
<stop stop-color="#84BABF"/>
<stop offset="0.5" stop-color="#0D6F73"/>
<stop offset="1" stop-color="#085558"/>
</linearGradient>
<linearGradient id="paint1_linear_192_132" x1="118.393" y1="53.3586" x2="350.235" y2="29.3776" gradientUnits="userSpaceOnUse">
<stop stop-color="#84BABF"/>
<stop offset="0.5" stop-color="#0D6F73"/>
<stop offset="1" stop-color="#085558"/>
</linearGradient>
<linearGradient id="paint2_linear_192_132" x1="118.393" y1="53.3586" x2="350.235" y2="29.3776" gradientUnits="userSpaceOnUse">
<stop stop-color="#84BABF"/>
<stop offset="0.5" stop-color="#0D6F73"/>
<stop offset="1" stop-color="#085558"/>
</linearGradient>
<linearGradient id="paint3_linear_192_132" x1="84.4993" y1="114.061" x2="138.121" y2="108.514" gradientUnits="userSpaceOnUse">
<stop stop-color="#84BABF"/>
<stop offset="0.5" stop-color="#0D6F73"/>
<stop offset="1" stop-color="#085558"/>
</linearGradient>
<linearGradient id="paint4_linear_192_132" x1="84.4993" y1="114.061" x2="138.121" y2="108.514" gradientUnits="userSpaceOnUse">
<stop stop-color="#84BABF"/>
<stop offset="0.5" stop-color="#0D6F73"/>
<stop offset="1" stop-color="#085558"/>
</linearGradient>
<linearGradient id="paint5_linear_192_132" x1="84.4993" y1="114.061" x2="138.121" y2="108.514" gradientUnits="userSpaceOnUse">
<stop stop-color="#84BABF"/>
<stop offset="0.5" stop-color="#0D6F73"/>
<stop offset="1" stop-color="#085558"/>
</linearGradient>
<linearGradient id="paint6_linear_192_132" x1="84.4993" y1="114.061" x2="138.121" y2="108.514" gradientUnits="userSpaceOnUse">
<stop stop-color="#84BABF"/>
<stop offset="0.5" stop-color="#0D6F73"/>
<stop offset="1" stop-color="#085558"/>
</linearGradient>
<linearGradient id="paint7_linear_192_132" x1="84.4993" y1="114.061" x2="138.121" y2="108.514" gradientUnits="userSpaceOnUse">
<stop stop-color="#84BABF"/>
<stop offset="0.5" stop-color="#0D6F73"/>
<stop offset="1" stop-color="#085558"/>
</linearGradient>
<linearGradient id="paint8_linear_192_132" x1="84.4993" y1="114.061" x2="138.121" y2="108.514" gradientUnits="userSpaceOnUse">
<stop stop-color="#84BABF"/>
<stop offset="0.5" stop-color="#0D6F73"/>
<stop offset="1" stop-color="#085558"/>
</linearGradient>
<clipPath id="clip0_192_132">
<rect width="658" height="589" fill="white"/>
</clipPath>
</defs>
</svg>
