<svg width="5205" height="1187" viewBox="0 0 5205 1187" fill="none" xmlns="http://www.w3.org/2000/svg">
<g clip-path="url(#clip0_189_102)">
<path d="M4719.26 814.323C4684.26 790.278 4680.75 739.917 4712.07 711.244L5192.82 271.122C5239.41 228.47 5313.54 269.335 5302.34 331.5L5178.88 1017.09C5170.39 1064.26 5116.05 1086.93 5076.55 1059.8L4719.26 814.323Z" fill="#84BABF" fill-opacity="0.9"/>
<path d="M4982.9 1062.58L4999.09 1014.92L5015.12 1020.46C5024.8 1023.8 5033.29 1023.84 5040.59 1020.57C5048.05 1017.35 5053.28 1011.41 5056.28 1002.73C5059.28 994.044 5058.84 986.135 5054.95 978.998C5051.07 971.861 5044.28 966.619 5034.6 963.273L5000.54 951.503L5009.28 926.21L5042.59 937.72C5054.77 941.932 5064.43 947.792 5071.55 955.299C5078.9 962.698 5083.61 971.241 5085.68 980.927C5087.76 990.614 5086.89 1000.97 5083.08 1011.99C5079.68 1021.84 5074.56 1029.88 5067.73 1036.12C5061.07 1042.41 5053.29 1046.54 5044.39 1048.51C5035.71 1050.37 5026.38 1049.77 5016.42 1046.7L5007.94 1071.24L4982.9 1062.58ZM4972.97 1119.71C4968.13 1118.03 4964.69 1115.26 4962.67 1111.38C4960.7 1107.34 4960.53 1102.98 4962.14 1098.3C4963.76 1093.63 4966.56 1090.39 4970.54 1088.59C4974.59 1086.63 4979.03 1086.48 4983.87 1088.15L4991.38 1090.75C4996.39 1092.48 4999.8 1095.34 5001.6 1099.32C5003.45 1103.14 5003.6 1107.31 5002.05 1111.81C5000.43 1116.49 4997.6 1119.81 4993.56 1121.77C4989.51 1123.74 4985.07 1123.89 4980.23 1122.21L4972.97 1119.71Z" fill="#569A9D"/>
<path d="M4814.25 1037.04L4857.88 991.21L4873.24 1005.99C4882.52 1014.91 4892.19 1019.44 4902.24 1019.56C4912.45 1019.83 4921.56 1015.81 4929.57 1007.49C4937.57 999.165 4941.24 989.908 4940.57 979.715C4939.9 969.521 4934.93 959.961 4925.65 951.033L4893 919.633L4916.32 895.392L4948.24 926.099C4959.92 937.336 4967.85 949.116 4972.01 961.44C4976.49 973.758 4977.36 985.989 4974.61 998.133C4971.86 1010.28 4965.41 1021.63 4955.25 1032.19C4946.17 1041.63 4936.08 1048.11 4925 1051.62C4914.08 1055.29 4903.02 1055.89 4891.83 1053.44C4880.95 1050.98 4870.63 1045.37 4860.88 1036.61L4838.26 1060.13L4814.25 1037.04ZM4772.78 1096.97C4768.14 1092.5 4765.69 1087.53 4765.43 1082.04C4765.32 1076.38 4767.42 1071.32 4771.73 1066.84C4776.04 1062.36 4780.94 1060.14 4786.44 1060.19C4792.09 1060.08 4797.24 1062.26 4801.88 1066.73L4809.08 1073.65C4813.88 1078.27 4816.25 1083.33 4816.2 1088.82C4816.3 1094.16 4814.28 1098.99 4810.12 1103.31C4805.81 1107.79 4800.83 1110.08 4795.18 1110.19C4789.53 1110.3 4784.39 1108.13 4779.74 1103.66L4772.78 1096.97Z" fill="#569A9D" fill-opacity="0.7"/>
<path d="M4712.63 402.74C4693.33 402.82 4675.51 392.401 4666.11 375.541L4340.44 -208.855C4320.8 -244.097 4346.17 -287.486 4386.52 -287.654L5055.52 -290.438C5074.83 -290.518 5092.65 -280.099 5102.04 -263.238L5427.71 321.157C5447.35 356.399 5421.98 399.789 5381.64 399.957L4712.63 402.74Z" fill="#E0EDE9" fill-opacity="0.5"/>
<path d="M4985.42 259.913L4958.32 188.906L4982.29 179.905C4996.77 174.467 5006.67 166.332 5012 155.499C5017.58 144.572 5017.94 132.618 5013.06 119.637C5008.19 106.655 5000.05 97.8892 4988.66 93.3381C4977.26 88.7871 4964.33 89.2306 4949.85 94.6686L4898.92 113.795L4884.72 75.9748L4934.52 57.2699C4952.74 50.4255 4969.61 47.9358 4985.12 49.8006C5000.79 51.3221 5014.5 56.7146 5026.24 65.9784C5037.98 75.2421 5046.94 88.1121 5053.13 104.588C5058.66 119.317 5060.46 133.595 5058.53 147.423C5056.86 161.156 5051.79 173.456 5043.34 184.322C5035.04 194.844 5023.62 203.121 5009.08 209.152L5022.86 245.849L4985.42 259.913ZM5028.9 335.874C5021.66 338.593 5015 338.674 5008.91 336.118C5002.73 333.312 4998.33 328.414 4995.7 321.424C4993.08 314.435 4993.21 307.974 4996.11 302.042C4998.92 295.861 5003.94 291.411 5011.18 288.692L5022.41 284.473C5029.9 281.66 5036.61 281.703 5042.55 284.603C5048.38 287.253 5052.57 291.948 5055.1 298.689C5057.72 305.678 5057.63 312.264 5054.83 318.445C5052.02 324.626 5047 329.076 5039.76 331.796L5028.9 335.874Z" fill="#569A9D" fill-opacity="0.7"/>
<path d="M137.729 668.657C165.077 645.269 206.12 648.1 229.999 675.02L518.338 1000.09C563.045 1050.49 512.385 1127.61 448.374 1106.59L-34.6362 948.001C-83.5358 931.945 -96.0582 868.585 -56.9427 835.134L137.729 668.657Z" fill="#84BABF" fill-opacity="0.9"/>
<path d="M377.427 717.863C388.074 703.116 406.552 696.229 424.253 700.409L831.278 796.517C856.663 802.511 871.651 828.764 863.908 853.672L801.329 1054.97C795.479 1073.79 778.064 1086.61 758.358 1086.61L450.793 1086.61L203.167 1079.23C167.088 1078.15 146.895 1037.17 168.024 1007.9L377.427 717.863Z" fill="#0D6F73" fill-opacity="0.7"/>
<g opacity="0.7">
<path fill-rule="evenodd" clip-rule="evenodd" d="M426.596 771.744C425.749 768.304 423.581 765.459 420.092 763.211L414.859 759.838C411.37 757.59 407.845 756.85 404.284 757.62C400.723 758.39 397.857 760.459 395.686 763.828C393.593 767.076 392.91 770.381 393.637 773.745C394.286 777.228 396.416 780.133 400.025 782.459L405.438 785.948C408.927 788.196 412.452 788.936 416.013 788.166C419.497 787.516 422.324 785.507 424.495 782.139C426.666 778.77 427.366 775.305 426.596 771.744Z" fill="#9BC3C3"/>
<path d="M401.287 806.259L379.371 840.662L367.822 833.218C360.844 828.721 354.169 827.058 347.795 828.229C341.302 829.322 336.039 832.997 332.007 839.253C327.975 845.508 326.803 851.819 328.49 858.185C330.176 864.55 334.509 869.981 341.486 874.478L366.028 890.295L354.282 908.521L330.281 893.053C321.499 887.393 315.027 880.923 310.865 873.643C306.505 866.406 304.441 858.776 304.674 850.753C304.906 842.73 307.581 834.749 312.699 826.809C317.273 819.711 322.847 814.364 329.421 810.769C335.875 807.095 342.795 805.341 350.182 805.504C357.371 805.71 364.592 807.98 371.845 812.314L383.242 794.629L401.287 806.259Z" fill="#EFF6F4"/>
</g>
<path d="M952.266 896.381L1005.5 871.748L1013.7 889.721C1018.65 900.58 1025.44 907.774 1034.07 911.303C1042.78 915.02 1052 914.656 1061.74 910.213C1071.47 905.77 1077.79 899.041 1080.69 890.026C1083.58 881.012 1082.56 871.076 1077.6 860.217L1060.17 822.024L1088.53 809.078L1105.58 846.429C1111.82 860.096 1114.63 872.951 1114.02 884.993C1113.68 897.138 1110.26 907.975 1103.75 917.506C1097.24 927.037 1087.81 934.622 1075.45 940.262C1064.4 945.303 1053.51 947.449 1042.76 946.699C1032.1 946.137 1022.36 942.89 1013.54 936.959C1005 931.131 998.021 922.779 992.605 911.903L965.083 924.464L952.266 896.381ZM896.093 933.896C893.615 928.466 893.198 923.34 894.843 918.518C896.674 913.61 900.212 909.959 905.454 907.567C910.696 905.174 915.677 904.937 920.398 906.854C925.306 908.686 928.999 912.316 931.477 917.746L935.322 926.171C937.886 931.787 938.209 936.956 936.292 941.677C934.561 946.312 931.169 949.784 926.114 952.091C920.872 954.483 915.797 954.764 910.889 952.932C905.981 951.1 902.288 947.469 899.81 942.04L896.093 933.896Z" fill="#569A9D"/>
<path d="M807.804 1061.25L833.358 1085.35L825.195 1093.92C820.263 1099.09 817.777 1104.47 817.736 1110.05C817.611 1115.72 819.868 1120.77 824.507 1125.19C829.146 1129.61 834.294 1131.62 839.951 1131.22C845.608 1130.83 850.902 1128.04 855.834 1122.87L873.181 1104.67L886.697 1117.55L869.733 1135.35C863.525 1141.86 857.006 1146.29 850.176 1148.63C843.349 1151.15 836.562 1151.66 829.813 1150.17C823.065 1148.67 816.747 1145.12 810.859 1139.51C805.595 1134.49 801.974 1128.91 799.996 1122.77C797.933 1116.72 797.568 1110.58 798.901 1104.36C800.237 1098.31 803.325 1092.57 808.164 1087.14L795.049 1074.64L807.804 1061.25ZM774.434 1038.39C776.9 1035.8 779.657 1034.43 782.704 1034.26C785.841 1034.19 788.658 1035.34 791.156 1037.72C793.654 1040.1 794.896 1042.82 794.882 1045.87C794.957 1049.01 793.762 1051.87 791.296 1054.46L787.47 1058.47C784.918 1061.15 782.117 1062.48 779.066 1062.47C776.104 1062.54 773.418 1061.42 771.009 1059.13C768.511 1056.75 767.225 1053.99 767.149 1050.85C767.074 1047.72 768.269 1044.85 770.735 1042.27L774.434 1038.39Z" fill="#569A9D"/>
<path d="M729.154 1123.99C697.875 1126.2 671.523 1100.92 672.434 1069.58L682.158 734.947C683.343 694.202 728.158 669.989 762.886 691.331L1250.15 990.782C1294.05 1017.76 1277.54 1085.17 1226.15 1088.8L729.154 1123.99Z" fill="#E0EDE9" fill-opacity="0.5"/>
<path d="M811.831 928.05L778.909 912.883L784.076 901.82C787.198 895.137 787.861 889.059 786.065 883.588C784.322 878.001 780.455 873.809 774.463 871.01C768.471 868.211 762.774 867.936 757.371 870.186C751.969 872.435 747.707 876.901 744.585 883.585L733.605 907.093L716.147 898.938L726.885 875.949C730.814 867.537 735.734 861.061 741.644 856.523C747.493 851.815 753.963 849.081 761.055 848.323C768.148 847.565 775.496 848.962 783.102 852.515C789.901 855.69 795.278 859.956 799.233 865.313C803.242 870.555 805.618 876.437 806.361 882.961C807.043 889.316 805.911 895.946 802.966 902.853L819.905 910.765L811.831 928.05ZM851.993 939.44C850.432 942.781 848.188 945.032 845.26 946.191C842.217 947.296 839.082 947.096 835.856 945.588C832.629 944.081 830.521 941.833 829.531 938.844C828.425 935.801 828.653 932.608 830.214 929.267L832.636 924.081C834.251 920.624 836.553 918.4 839.542 917.41C842.416 916.366 845.409 916.571 848.52 918.024C851.747 919.531 853.913 921.806 855.018 924.85C856.123 927.893 855.896 931.085 854.335 934.427L851.993 939.44Z" fill="#569A9D"/>
<path d="M155.139 897.333L129.466 955.45L109.937 946.699C98.1372 941.413 87.4681 940.419 77.929 943.717C68.1866 946.925 60.9455 953.818 56.2057 964.396C51.466 974.975 51.1417 984.967 55.2329 994.373C59.3241 1003.78 67.2694 1011.12 79.0687 1016.41L120.57 1035.01L106.761 1065.83L66.1751 1047.64C51.3242 1040.99 39.84 1032.54 31.7223 1022.31C23.3101 1012.19 18.3417 1000.93 16.8172 988.52C15.2927 976.111 17.5384 963.194 23.5542 949.767C28.932 937.764 36.2603 928.223 45.5391 921.144C54.6144 913.973 64.8582 909.647 76.2704 908.165C87.388 906.795 99.0393 908.595 111.224 913.566L124.623 883.661L155.139 897.333ZM173.991 826.635C179.89 829.278 183.896 833.149 186.009 838.248C188.03 843.551 187.764 849.05 185.212 854.747C182.66 860.443 178.778 864.2 173.567 866.017C168.264 868.039 162.663 867.728 156.763 865.084L147.609 860.983C141.506 858.248 137.545 854.275 135.728 849.064C133.819 844.056 134.095 838.805 136.556 833.313C139.108 827.616 143.035 823.758 148.338 821.737C153.64 819.715 159.241 820.027 165.141 822.67L173.991 826.635Z" fill="#569A9D" fill-opacity="0.8"/>
<g opacity="0.7">
<path fill-rule="evenodd" clip-rule="evenodd" d="M551.554 854.407C547.394 853.163 543.042 853.685 538.5 855.972L531.686 859.403C527.143 861.69 524.172 864.953 522.772 869.192C521.372 873.431 521.776 877.743 523.984 882.129C526.114 886.358 529.18 889.134 533.184 890.456C537.266 891.935 541.657 891.492 546.356 889.126L553.405 885.577C557.947 883.29 560.919 880.027 562.319 875.788C563.797 871.706 563.433 867.471 561.225 863.085C559.016 858.7 555.793 855.807 551.554 854.407Z" fill="#9BC3C3"/>
<path d="M572.275 902.583L594.985 947.107L579.948 954.678C570.863 959.252 564.958 965.268 562.234 972.726C559.353 980.263 559.963 988.104 564.063 996.25C568.164 1004.39 574.1 1009.55 581.87 1011.73C589.641 1013.9 598.068 1012.7 607.154 1008.13L639.108 992.042L651.056 1015.77L619.806 1031.51C608.371 1037.26 597.517 1040.08 587.242 1039.95C576.89 1040.06 567.55 1037.49 559.222 1032.26C550.894 1027.03 544.128 1019.25 538.923 1008.91C534.27 999.665 532.088 990.456 532.376 981.279C532.508 972.181 534.955 963.782 539.718 956.083C544.403 948.619 551.287 942.404 560.371 937.438L548.779 914.412L572.275 902.583Z" fill="#EFF6F4"/>
</g>
<g opacity="0.7">
<path fill-rule="evenodd" clip-rule="evenodd" d="M4811.24 526.923C4805.05 527.808 4799.85 531.32 4795.65 537.459L4789.35 546.666C4785.15 552.805 4783.64 559.327 4784.83 566.233C4786.03 573.14 4789.58 579.001 4795.49 583.817C4801.19 588.462 4807.06 590.447 4813.11 589.773C4819.37 589.271 4824.68 585.845 4829.02 579.495L4835.54 569.97C4839.74 563.832 4841.25 557.31 4840.05 550.403C4839.07 543.669 4835.63 537.894 4829.72 533.077C4823.81 528.261 4817.65 526.209 4811.24 526.923Z" fill="#9BC3C3"/>
<path d="M4871.64 582.08L4932.01 630.788L4918.11 651.108C4909.71 663.384 4906.39 675.681 4908.15 687.999C4909.77 700.528 4916.07 711.265 4927.04 720.21C4938.02 729.155 4949.24 732.696 4960.71 730.831C4972.18 728.967 4982.11 721.897 4990.51 709.62L5020.06 666.44L5052.04 692.501L5023.14 734.729C5012.57 750.18 5000.67 761.087 4987.44 767.449C4974.27 774.195 4960.52 776.509 4946.19 774.39C4931.86 772.272 4917.73 765.536 4903.8 754.183C4891.34 744.034 4882.07 732.357 4875.98 719.152C4869.75 706.16 4866.97 692.684 4867.65 678.726C4868.39 665.152 4872.82 651.949 4880.94 639.117L4849.91 613.83L4871.64 582.08Z" fill="#EFF6F4"/>
</g>
<path fill-rule="evenodd" clip-rule="evenodd" d="M219 154.095C219.001 149.68 273.158 149.312 273.158 154.095V300.917C273.158 309.381 284.579 349.49 320.316 349.49C356.053 349.49 368.21 336.611 368.21 336.611C368.21 336.611 350.158 312.324 350.158 266.696C350.158 200.46 401.562 148.114 466.21 146C536.404 148.114 586.877 203.678 586.315 266.696C585.786 325.939 554.999 352.066 554.999 352.066L581.157 390.487C581.157 390.487 582.999 393.279 581.157 395.855C579.675 397.927 577.473 398.063 577.473 398.063H532.525C531.789 398.063 518.894 380.768 518.894 380.768C518.894 380.768 484.263 401.742 462.157 426.028C452.246 436.918 451.917 441.874 448.5 452.891C448.072 454.27 447.664 454.86 447.421 455.098C446.671 455.834 444.842 455.834 444.842 455.834H400.263C400.263 455.834 398.476 455.834 398.052 455.466C397.77 455.221 397.202 454.635 397.234 452.523C397.331 446.116 398.763 431.313 408.737 416.093C422 395.855 436.368 387.391 436.368 387.391C436.368 387.391 425.823 385.706 419.421 382.975C413.018 380.245 403.579 373.408 403.579 373.408C403.579 373.408 377.421 402.846 320.316 402.846C263.211 402.846 219 349.49 219 300.917C219 243.58 218.999 185.005 219 154.095ZM397.684 266.696C397.684 227.447 426.421 193.101 466.21 193.101C507.108 193.101 540.631 226.218 540.631 266.696C540.631 283.076 535.778 298.553 527.368 311.359C527.368 311.359 520.318 301.164 515.21 295.03C510.102 288.895 501.21 279.943 501.21 279.943H461.421C460.684 279.943 458.4 280.311 457.736 283.622C457.073 286.934 458.473 288.774 458.473 288.774L492.736 340.003C484.559 343.272 475.634 345.074 466.21 345.074C426.421 345.074 397.684 307.909 397.684 266.696Z" fill="#0D6F73"/>
<path d="M422 475.337C437.055 475.239 448.5 484.904 448.5 503.303C448.5 517.827 436.541 529.524 422 529.429C407.553 529.335 395.842 519.494 395.842 503.303C395.842 485.272 407.036 475.434 422 475.337Z" fill="#84BABF"/>
<path d="M640.922 390.772C634.322 390.772 629.055 388.872 625.122 385.072C621.189 381.206 619.222 375.972 619.222 369.372V334.772H630.022V369.372C630.022 373.172 630.989 376.139 632.922 378.272C634.855 380.339 637.522 381.372 640.922 381.372C644.389 381.372 647.089 380.339 649.022 378.272C651.022 376.139 652.022 373.172 652.022 369.372V334.772H662.822V369.372C662.822 375.972 660.822 381.206 656.822 385.072C652.889 388.872 647.589 390.772 640.922 390.772ZM699.083 390.672C695.15 390.672 691.683 390.039 688.683 388.772C685.75 387.506 683.416 385.772 681.683 383.572C680.016 381.306 679.05 378.639 678.783 375.572H689.583C689.85 377.372 690.816 378.839 692.483 379.972C694.15 381.039 696.35 381.572 699.083 381.572H703.383C706.65 381.572 709.116 380.906 710.783 379.572C712.45 378.239 713.283 376.472 713.283 374.272C713.283 372.139 712.516 370.472 710.983 369.272C709.516 368.006 707.316 367.172 704.383 366.772L697.283 365.672C691.416 364.739 687.083 363.072 684.283 360.672C681.55 358.206 680.183 354.572 680.183 349.772C680.183 344.706 681.816 340.806 685.083 338.072C688.416 335.272 693.316 333.872 699.783 333.872H703.583C709.316 333.872 713.883 335.206 717.283 337.872C720.75 340.472 722.716 343.972 723.183 348.372H712.383C712.116 346.772 711.216 345.472 709.683 344.472C708.216 343.472 706.183 342.972 703.583 342.972H699.783C696.65 342.972 694.35 343.572 692.883 344.772C691.483 345.906 690.783 347.606 690.783 349.872C690.783 351.872 691.416 353.372 692.683 354.372C693.95 355.372 695.916 356.072 698.583 356.472L705.883 357.672C712.083 358.539 716.616 360.272 719.483 362.872C722.416 365.406 723.883 369.106 723.883 373.972C723.883 379.239 722.15 383.339 718.683 386.272C715.283 389.206 710.183 390.672 703.383 390.672H699.083ZM760.944 390.772C756.477 390.772 752.544 389.906 749.144 388.172C745.811 386.372 743.244 383.872 741.444 380.672C739.644 377.472 738.744 373.739 738.744 369.472V355.072C738.744 350.739 739.644 347.006 741.444 343.872C743.244 340.672 745.811 338.206 749.144 336.472C752.544 334.672 756.477 333.772 760.944 333.772C765.477 333.772 769.411 334.672 772.744 336.472C776.077 338.206 778.644 340.672 780.444 343.872C782.244 347.006 783.144 350.739 783.144 355.072V364.872H749.144V369.472C749.144 373.539 750.144 376.639 752.144 378.772C754.211 380.906 757.177 381.972 761.044 381.972C764.177 381.972 766.711 381.439 768.644 380.372C770.577 379.239 771.777 377.606 772.244 375.472H782.944C782.144 380.139 779.744 383.872 775.744 386.672C771.744 389.406 766.811 390.772 760.944 390.772ZM772.744 358.372V354.972C772.744 350.972 771.744 347.872 769.744 345.672C767.744 343.472 764.811 342.372 760.944 342.372C757.144 342.372 754.211 343.472 752.144 345.672C750.144 347.872 749.144 351.006 749.144 355.072V357.572L773.544 357.472L772.744 358.372ZM832.405 407.772L821.605 389.872L823.205 390.672C822.938 390.672 822.605 390.672 822.205 390.672C821.805 390.739 821.371 390.772 820.905 390.772C816.371 390.772 812.405 389.872 809.005 388.072C805.605 386.272 802.971 383.772 801.105 380.572C799.238 377.306 798.305 373.506 798.305 369.172V337.372C798.305 332.972 799.238 329.172 801.105 325.972C802.971 322.772 805.605 320.272 809.005 318.472C812.405 316.672 816.371 315.772 820.905 315.772C825.505 315.772 829.471 316.672 832.805 318.472C836.205 320.272 838.838 322.772 840.705 325.972C842.571 329.172 843.505 332.972 843.505 337.372V369.172C843.505 373.572 842.538 377.439 840.605 380.772C838.738 384.106 836.038 386.606 832.505 388.272L844.405 407.772H832.405ZM820.905 381.272C824.571 381.272 827.438 380.172 829.505 377.972C831.638 375.772 832.705 372.839 832.705 369.172V337.372C832.705 333.639 831.638 330.706 829.505 328.572C827.438 326.372 824.571 325.272 820.905 325.272C817.305 325.272 814.438 326.372 812.305 328.572C810.171 330.706 809.105 333.639 809.105 337.372V369.172C809.105 372.839 810.138 375.772 812.205 377.972C814.338 380.172 817.238 381.272 820.905 381.272ZM880.766 390.772C874.166 390.772 868.899 388.872 864.966 385.072C861.032 381.206 859.066 375.972 859.066 369.372V334.772H869.866V369.372C869.866 373.172 870.832 376.139 872.766 378.272C874.699 380.339 877.366 381.372 880.766 381.372C884.232 381.372 886.932 380.339 888.866 378.272C890.866 376.139 891.866 373.172 891.866 369.372V334.772H902.666V369.372C902.666 375.972 900.666 381.206 896.666 385.072C892.732 388.872 887.432 390.772 880.766 390.772ZM918.927 389.772V379.972H938.227V344.572H921.427V334.772H948.727V379.972H966.427V389.772H918.927ZM942.427 325.272C940.093 325.272 938.227 324.672 936.827 323.472C935.427 322.206 934.727 320.539 934.727 318.472C934.727 316.339 935.427 314.672 936.827 313.472C938.227 312.206 940.093 311.572 942.427 311.572C944.76 311.572 946.627 312.206 948.027 313.472C949.427 314.672 950.127 316.339 950.127 318.472C950.127 320.539 949.427 322.206 948.027 323.472C946.627 324.672 944.76 325.272 942.427 325.272ZM979.188 389.772V379.572L1008.89 344.372H980.088V334.772H1021.29V344.972L991.188 380.172H1022.39V389.772H979.188ZM1079.25 401.772C1069.45 399.306 1061.85 394.672 1056.45 387.872C1051.05 381.006 1048.35 372.639 1048.35 362.772V344.772C1048.35 338.306 1049.58 332.439 1052.05 327.172C1054.58 321.906 1058.15 317.439 1062.75 313.772C1067.42 310.039 1072.92 307.372 1079.25 305.772V316.172C1075.12 317.172 1071.55 319.006 1068.55 321.672C1065.55 324.272 1063.22 327.539 1061.55 331.472C1059.95 335.406 1059.15 339.839 1059.15 344.772V362.772C1059.15 367.572 1059.95 371.939 1061.55 375.872C1063.22 379.806 1065.55 383.072 1068.55 385.672C1071.55 388.206 1075.12 389.972 1079.25 390.972V401.772ZM1102.21 401.772V390.972C1106.34 389.972 1109.91 388.206 1112.91 385.672C1115.91 383.072 1118.21 379.806 1119.81 375.872C1121.48 371.939 1122.31 367.572 1122.31 362.772V344.772C1122.31 339.839 1121.48 335.406 1119.81 331.472C1118.21 327.539 1115.91 324.272 1112.91 321.672C1109.91 319.006 1106.34 317.172 1102.21 316.172V305.772C1108.61 307.372 1114.11 310.039 1118.71 313.772C1123.31 317.439 1126.84 321.906 1129.31 327.172C1131.84 332.439 1133.11 338.306 1133.11 344.772V362.772C1133.11 372.639 1130.41 381.006 1125.01 387.872C1119.61 394.672 1112.01 399.306 1102.21 401.772Z" fill="url(#paint0_linear_189_102)"/>
</g>
<defs>
<linearGradient id="paint0_linear_189_102" x1="751.183" y1="358.659" x2="1057.82" y2="358.659" gradientUnits="userSpaceOnUse">
<stop stop-color="#84BABF"/>
<stop offset="0.5" stop-color="#0D6F73"/>
<stop offset="1" stop-color="#085558"/>
</linearGradient>
<clipPath id="clip0_189_102">
<rect width="5205" height="1187" fill="white"/>
</clipPath>
</defs>
</svg>
