<svg width="658" height="589" viewBox="0 0 658 589" fill="none" xmlns="http://www.w3.org/2000/svg">
<g clip-path="url(#clip0_192_132)">
<path d="M688.549 142.76C663.543 159.337 630.503 156.963 608.124 136.981L495.382 36.3163C442.815 -10.6197 490.536 -96.2246 558.1 -76.1925L740.927 -21.9869C794.648 -6.05927 805.335 65.3415 758.633 96.3011L688.549 142.76Z" fill="#84BABF" fill-opacity="0.9"/>
<path d="M612.977 106.034C602.347 120.793 583.877 127.701 566.171 123.541L429.152 91.3497C403.759 85.3841 388.742 59.1485 396.457 34.232L410.513 -11.1614C416.342 -29.9865 433.742 -42.8287 453.449 -42.8508L570.616 -42.9824L632.465 -41.2069C668.545 -40.1712 688.784 0.786801 667.688 30.0748L612.977 106.034Z" fill="#0D6F73" fill-opacity="0.7"/>
<g opacity="0.7">
<path fill-rule="evenodd" clip-rule="evenodd" d="M581.446 95.9121C581.822 97.4295 582.78 98.6834 584.32 99.6736L586.63 101.159C588.17 102.149 589.726 102.473 591.296 102.132C592.867 101.791 594.13 100.876 595.086 99.3893C596.008 97.9553 596.308 96.4967 595.986 95.0133C595.697 93.4769 594.757 92.1965 593.163 91.1722L590.773 89.6357C589.233 88.6455 587.678 88.3211 586.107 88.6625C584.571 88.9507 583.324 89.8384 582.368 91.3255C581.412 92.8126 581.105 94.3415 581.446 95.9121Z" fill="#9BC3C3"/>
<path d="M592.594 80.6731L602.246 65.4854L607.345 68.7633C610.425 70.7437 613.371 71.474 616.182 70.9544C619.046 70.4688 621.366 68.8452 623.142 66.0835C624.917 63.3217 625.431 60.5372 624.684 57.7298C623.937 54.9225 622.023 52.5286 618.942 50.5482L608.108 43.5827L613.281 35.5365L623.876 42.3483C627.753 44.8409 630.612 47.6919 632.452 50.9014C634.379 54.0919 635.293 57.457 635.194 60.9965C635.096 64.536 633.919 68.0584 631.666 71.5637C629.651 74.6972 627.195 77.0587 624.296 78.6482C621.451 80.2718 618.399 81.0494 615.14 80.981C611.969 80.8937 608.782 79.8959 605.58 77.9876L600.561 85.7948L592.594 80.6731Z" fill="#EFF6F4"/>
</g>
<path d="M349.482 41.1876L326.012 52.0813L322.384 44.1563C320.192 39.3684 317.193 36.198 313.387 34.6453C309.543 33.01 305.475 33.1748 301.182 35.1399C296.89 37.1049 294.106 40.0765 292.832 44.0547C291.558 48.0329 292.016 52.416 294.208 57.2039L301.917 74.0444L289.41 79.7694L281.872 63.3004C279.113 57.2742 277.866 51.6046 278.13 46.2916C278.273 40.9339 279.778 36.1511 282.645 31.9432C285.511 27.7354 289.669 24.3844 295.117 21.8904C299.988 19.6608 304.794 18.7088 309.536 19.0343C314.24 19.2772 318.538 20.7047 322.43 23.3167C326.201 25.8839 329.284 29.5649 331.679 34.3599L343.814 28.8049L349.482 41.1876ZM374.245 24.6101C375.341 27.0041 375.527 29.2653 374.804 31.3936C373.998 33.5597 372.44 35.1718 370.128 36.2299C367.817 37.288 365.619 37.3953 363.536 36.5518C361.37 35.746 359.739 34.1462 358.643 31.7522L356.942 28.0374C355.809 25.5608 355.663 23.2808 356.507 21.1972C357.268 19.1514 358.763 17.6184 360.992 16.5981C363.303 15.54 365.542 15.4138 367.708 16.2196C369.874 17.0253 371.505 18.6251 372.601 21.0191L374.245 24.6101Z" fill="#569A9D"/>
<path d="M415.151 -56.9855C446.428 -59.2348 472.808 -33.9868 471.932 -2.64187L470.152 61.0851C469.014 101.831 424.226 126.094 389.474 104.791L296.618 47.87C252.694 20.9441 269.128 -46.4835 320.515 -50.1793L415.151 -56.9855Z" fill="#E0EDE9" fill-opacity="0.5"/>
<path d="M411.42 27.1464L425.951 33.8213L423.677 38.7041C422.303 41.6542 422.014 44.3357 422.809 46.7485C423.58 49.2122 425.288 51.0599 427.933 52.2917C430.578 53.5235 433.092 53.6418 435.474 52.6468C437.856 51.6518 439.734 49.6793 441.108 46.7292L445.94 36.3531L453.646 39.9419L448.92 50.0891C447.191 53.8021 445.024 56.6612 442.419 58.6666C439.841 60.7464 436.988 61.9553 433.859 62.2933C430.731 62.6313 427.488 62.0186 424.131 60.4552C421.13 59.0576 418.756 57.1782 417.009 54.817C415.237 52.5066 414.186 49.9126 413.855 47.0351C413.551 44.232 414.047 41.3064 415.343 38.2581L407.866 34.7759L411.42 27.1464ZM393.696 22.1418C394.383 20.6668 395.372 19.6728 396.663 19.16C398.005 18.6708 399.388 18.7579 400.813 19.4212C402.237 20.0844 403.168 21.0752 403.606 22.3934C404.095 23.7353 403.996 25.1438 403.31 26.6189L402.244 28.9077C401.533 30.4336 400.518 31.4157 399.2 31.854C397.933 32.316 396.613 32.2272 395.239 31.5876C393.815 30.9243 392.858 29.9217 392.369 28.5798C391.88 27.2379 391.979 25.8294 392.666 24.3543L393.696 22.1418Z" fill="#569A9D"/>
<path d="M701.14 40.3729L712.436 14.7219L721.057 18.5725C726.265 20.8989 730.972 21.3321 735.178 19.8722C739.475 18.4524 742.666 15.4079 744.752 10.7387C746.837 6.06945 746.975 1.66119 745.166 -2.48613C743.356 -6.63344 739.848 -9.8703 734.64 -12.1967L716.322 -20.3792L722.399 -33.9827L740.312 -25.9807C746.867 -23.0527 751.938 -19.3336 755.524 -14.8235C759.24 -10.363 761.437 -5.39618 762.116 0.0770552C762.795 5.55029 761.81 11.25 759.163 17.1763C756.797 22.4741 753.568 26.6868 749.479 29.8145C745.479 32.9823 740.962 34.896 735.928 35.5556C731.024 36.1654 725.883 35.3769 720.505 33.19L714.609 46.3894L701.14 40.3729ZM692.858 71.5715C690.254 70.4083 688.485 68.7024 687.551 66.454C686.656 64.1157 686.771 61.6895 687.894 59.1753C689.017 56.6611 690.727 55.0018 693.026 54.1973C695.364 53.303 697.835 53.4375 700.439 54.6007L704.48 56.4056C707.173 57.6089 708.923 59.3597 709.727 61.6578C710.572 63.8662 710.452 66.1825 709.369 68.6069C708.246 71.1211 706.516 72.8253 704.177 73.7196C701.839 74.6139 699.368 74.4794 696.764 73.3162L692.858 71.5715Z" fill="#569A9D" fill-opacity="0.8"/>
<g opacity="0.7">
<path fill-rule="evenodd" clip-rule="evenodd" d="M526.279 59.5065C528.115 60.0529 530.035 59.8206 532.037 58.8094L535.042 57.2926C537.045 56.2815 538.354 54.8405 538.969 52.9697C539.585 51.099 539.404 49.1967 538.428 47.2629C537.487 45.3982 536.133 44.1752 534.366 43.5939C532.564 42.9435 530.627 43.1413 528.555 44.1873L525.447 45.7564C523.445 46.7676 522.135 48.2085 521.52 50.0793C520.869 51.881 521.032 53.7488 522.009 55.6825C522.985 57.6163 524.409 58.891 526.279 59.5065Z" fill="#9BC3C3"/>
<path d="M517.114 38.2634L507.073 18.6326L513.704 15.2853C517.709 13.2629 520.311 10.6059 521.509 7.31433C522.777 3.98785 522.504 0.528955 520.69 -3.06235C518.877 -6.65365 516.256 -8.92703 512.827 -9.88249C509.398 -10.8379 505.681 -10.3045 501.675 -8.28215L487.586 -1.16906L482.304 -11.6322L496.082 -18.5884C501.123 -21.1337 505.911 -22.3806 510.443 -22.329C515.01 -22.3814 519.132 -21.2556 522.808 -18.9518C526.485 -16.6479 529.474 -13.2169 531.775 -8.65867C533.832 -4.58393 534.8 -0.522241 534.677 3.52638C534.623 7.54014 533.548 11.2465 531.451 14.6454C529.387 17.9404 526.353 20.6855 522.348 22.8809L527.474 33.0332L517.114 38.2634Z" fill="#EFF6F4"/>
</g>
<path d="M405.571 513.419C400.965 521.132 391.856 524.909 383.155 522.713L323.339 507.618C302.148 502.271 303.152 471.777 324.649 467.84L401.932 453.684C419.125 450.535 432.01 469.145 423.038 484.169L405.571 513.419Z" fill="#84BABF" fill-opacity="0.3"/>
<path d="M44.2138 526.842C38.2262 529.487 31.2183 527.894 26.9689 522.922L-2.24437 488.746C-12.5938 476.638 0.847051 458.934 15.2892 465.65L67.2102 489.797C78.761 495.169 78.5847 511.661 66.9215 516.813L44.2138 526.842Z" fill="#84BABF" fill-opacity="0.5"/>
<path d="M395.826 484.481C395.912 478.595 399.844 473.468 405.501 471.863L434.055 464.073C452.839 458.949 472.988 462.375 489.034 473.402C490.767 474.593 492.391 475.712 493.911 476.766C518.629 493.905 484.69 516.717 454.613 516.926L441.469 517.018C425.961 517.126 404.061 526.927 396.953 513.142C396 511.295 395.462 509.156 395.497 506.802L395.826 484.481Z" fill="#84BABF" fill-opacity="0.5"/>
<path d="M512.344 513.754V513.754C508.063 516.018 501.626 515.067 497.043 516.632C489.962 519.05 480.765 517.498 483.533 490.831C483.965 486.666 484.326 483.042 484.64 479.887C486.604 460.169 507.589 468.533 519.041 484.705V484.705C521.915 488.764 524.322 493.204 525.415 498.056C526.73 503.89 525.993 506.536 522.216 508.533L512.344 513.754Z" fill="#84BABF" fill-opacity="0.3"/>
<path d="M587.056 500.131V500.131C588.41 502.286 588.162 505.698 589.161 508.039C590.705 511.656 590.25 516.538 576.163 516.127C573.963 516.063 572.049 516.015 570.384 515.974C559.971 515.713 563.537 504.386 571.567 497.753V497.753C573.583 496.088 575.817 494.653 578.318 493.891C581.324 492.974 582.74 493.257 583.934 495.159L587.056 500.131Z" fill="#84BABF" fill-opacity="0.5"/>
<path d="M204.783 441.045C246.133 456.253 229.429 525.409 184.517 524.945L73.2187 523.796C50.4379 523.561 34.5802 502.201 38.7184 477.325L44.955 439.834C49.56 412.152 76.3809 393.822 99.7208 402.406L204.783 441.045Z" fill="#84BABF" fill-opacity="0.9"/>
<path d="M61.7073 382.728L56.8481 399.719L51.1338 398.052C47.6815 397.045 44.704 397.177 42.2015 398.45C39.6394 399.704 37.9069 401.88 37.0041 404.975C36.1012 408.07 36.3925 410.835 37.878 413.271C39.3636 415.707 41.8325 417.428 45.2849 418.435L57.4277 421.977L54.7972 430.995L42.9222 427.531C38.577 426.263 35.0912 424.375 32.4648 421.865C29.7615 419.397 27.9634 416.482 27.0707 413.122C26.178 409.761 26.3046 406.117 27.4505 402.188C28.475 398.676 30.1306 395.768 32.4174 393.464C34.6446 391.143 37.3022 389.561 40.39 388.717C43.401 387.916 46.6798 387.969 50.2264 388.874L52.7788 380.124L61.7073 382.728ZM64.208 362.531C65.9342 363.035 67.1854 363.949 67.9616 365.273C68.7205 366.657 68.8569 368.183 68.3707 369.849C67.8845 371.516 66.9582 372.699 65.5916 373.398C64.2076 374.157 62.6525 374.285 60.9263 373.781L58.2478 373C56.4621 372.479 55.2196 371.535 54.5202 370.169C53.8035 368.862 53.6795 367.404 54.1483 365.797C54.6345 364.131 55.5695 362.918 56.9535 362.159C58.3375 361.4 59.8925 361.272 61.6187 361.776L64.208 362.531Z" fill="#569A9D"/>
<path d="M311.069 410.85L304.351 426.225L299.184 423.935C296.063 422.551 293.244 422.3 290.728 423.181C288.159 424.039 286.254 425.867 285.014 428.666C283.773 431.464 283.698 434.103 284.788 436.583C285.879 439.062 287.985 440.994 291.106 442.378L302.086 447.244L298.472 455.398L287.734 450.639C283.806 448.897 280.764 446.68 278.609 443.986C276.377 441.322 275.053 438.353 274.637 435.078C274.221 431.803 274.801 428.389 276.375 424.837C277.783 421.661 279.708 419.134 282.151 417.255C284.54 415.351 287.24 414.198 290.253 413.794C293.187 413.421 296.266 413.884 299.489 415.184L302.996 407.272L311.069 410.85ZM315.973 392.16C317.533 392.852 318.595 393.87 319.159 395.214C319.698 396.613 319.634 398.065 318.966 399.572C318.298 401.079 317.277 402.075 315.902 402.561C314.504 403.1 313.025 403.024 311.464 402.332L309.042 401.259C307.427 400.543 306.377 399.498 305.892 398.124C305.382 396.803 305.45 395.417 306.094 393.963C306.762 392.456 307.795 391.433 309.193 390.894C310.591 390.354 312.071 390.431 313.631 391.122L315.973 392.16Z" fill="#569A9D" fill-opacity="0.7"/>
<path d="M446.083 471.698L438.512 464.431L440.973 461.894C442.46 460.361 443.217 458.761 443.244 457.094C443.296 455.4 442.635 453.887 441.261 452.554C439.886 451.221 438.354 450.606 436.663 450.71C434.972 450.814 433.383 451.632 431.896 453.165L426.666 458.557L422.661 454.673L427.776 449.4C429.648 447.47 431.607 446.165 433.654 445.483C435.7 444.748 437.729 444.613 439.741 445.077C441.753 445.542 443.631 446.62 445.376 448.312C446.935 449.824 448.002 451.501 448.577 453.341C449.177 455.155 449.27 456.989 448.856 458.844C448.441 460.647 447.503 462.354 446.043 463.965L449.929 467.733L446.083 471.698ZM455.992 478.617C455.249 479.384 454.422 479.787 453.511 479.827C452.574 479.841 451.735 479.489 450.995 478.771C450.255 478.053 449.891 477.239 449.903 476.327C449.889 475.39 450.253 474.538 450.997 473.772L452.151 472.582C452.92 471.789 453.76 471.399 454.672 471.411C455.557 471.398 456.356 471.737 457.07 472.429C457.81 473.147 458.187 473.975 458.201 474.912C458.216 475.849 457.851 476.701 457.107 477.467L455.992 478.617Z" fill="#569A9D" fill-opacity="0.7"/>
<path d="M215.008 406.281C228.141 388.086 253.668 384.251 271.567 397.784L341.343 450.542C369.598 471.905 358.19 516.742 323.161 522.004L202.19 540.177C167.161 545.439 143.083 505.934 163.813 477.211L215.008 406.281Z" fill="#E0EDE9" fill-opacity="0.5"/>
<path d="M252.33 436.293L266.116 453.228L261.052 457.852C257.992 460.646 256.337 463.762 256.087 467.201C255.784 470.689 256.883 473.984 259.384 477.087C261.885 480.19 264.778 481.848 268.062 482.06C271.347 482.272 274.519 480.982 277.578 478.188L288.34 468.362L295.626 477.403L285.102 487.012C281.251 490.528 277.305 492.733 273.263 493.626C269.217 494.627 265.274 494.394 261.436 492.927C257.598 491.459 254.091 488.756 250.917 484.818C248.08 481.297 246.214 477.562 245.321 473.613C244.375 469.712 244.413 465.896 245.436 462.166C246.454 458.543 248.471 455.251 251.487 452.29L244.417 443.518L252.33 436.293ZM233.979 419.488C235.508 418.091 237.157 417.466 238.924 417.614C240.739 417.821 242.32 418.76 243.667 420.431C245.013 422.101 245.621 423.878 245.489 425.759C245.405 427.7 244.598 429.369 243.068 430.766L240.694 432.933C239.112 434.378 237.439 434.973 235.677 434.718C233.962 434.522 232.456 433.619 231.157 432.008C229.811 430.337 229.179 428.531 229.263 426.59C229.347 424.648 230.154 422.98 231.684 421.583L233.979 419.488Z" fill="#569A9D" fill-opacity="0.7"/>
<g opacity="0.7">
<path fill-rule="evenodd" clip-rule="evenodd" d="M179.741 507.087C181.908 506.577 183.637 505.167 184.93 502.86L186.869 499.398C188.162 497.09 188.488 494.732 187.846 492.324C187.204 489.915 185.76 487.952 183.514 486.433C181.347 484.969 179.203 484.453 177.082 484.884C174.879 485.261 173.11 486.643 171.772 489.03L169.766 492.611C168.473 494.919 168.148 497.277 168.79 499.686C169.351 502.04 170.755 503.976 173.002 505.494C175.248 507.013 177.495 507.544 179.741 507.087Z" fill="#9BC3C3"/>
<path d="M156.595 489.469L133.661 474.134L137.941 466.495C140.527 461.879 141.311 457.418 140.295 453.111C139.324 448.724 136.752 445.121 132.58 442.301C128.408 439.481 124.32 438.584 120.317 439.609C116.315 440.633 113.02 443.454 110.435 448.069L101.34 464.303L89.1853 456.088L98.0789 440.212C101.333 434.403 105.203 430.161 109.687 427.487C114.136 424.679 118.932 423.423 124.076 423.718C129.22 424.013 134.44 425.95 139.735 429.529C144.469 432.728 148.124 436.569 150.7 441.053C153.321 445.457 154.733 450.142 154.938 455.108C155.107 459.94 153.957 464.757 151.487 469.561L163.281 477.532L156.595 489.469Z" fill="#EFF6F4"/>
</g>
<path fill-rule="evenodd" clip-rule="evenodd" d="M15.0001 50.5969C15.0002 49.1804 32.394 49.0624 32.394 50.5969V97.6957C32.394 100.411 36.0622 113.277 47.5398 113.277C59.0174 113.277 62.9222 109.146 62.9222 109.146C62.9222 109.146 57.1242 101.355 57.1242 86.7178C57.1242 65.4702 73.6338 48.6781 94.3968 48C116.941 48.6781 133.152 66.5024 132.971 86.7178C132.801 105.723 122.913 114.104 122.913 114.104L131.315 126.429C131.315 126.429 131.906 127.324 131.315 128.151C130.839 128.815 130.131 128.859 130.131 128.859H115.696C115.459 128.859 111.317 123.311 111.317 123.311C111.317 123.311 100.195 130.039 93.0953 137.83C89.912 141.323 89.8064 142.913 88.7089 146.447C88.5714 146.89 88.4404 147.079 88.3623 147.155C88.1215 147.391 87.534 147.391 87.534 147.391H73.2165C73.2165 147.391 72.6427 147.391 72.5066 147.273C72.416 147.195 72.2335 147.007 72.2438 146.329C72.2748 144.274 72.7347 139.525 75.938 134.643C80.1978 128.151 84.8124 125.436 84.8124 125.436C84.8124 125.436 81.4258 124.895 79.3695 124.019C77.3132 123.143 74.2814 120.95 74.2814 120.95C74.2814 120.95 65.8803 130.393 47.5398 130.393C29.1993 130.393 15.0001 113.277 15.0001 97.6957C15.0001 79.3025 14.9998 60.5125 15.0001 50.5969ZM72.3883 86.7178C72.3883 74.1273 81.6177 63.1094 94.3968 63.1094C107.532 63.1094 118.299 73.7332 118.299 86.7178C118.299 91.9725 116.74 96.9375 114.039 101.045C114.039 101.045 111.775 97.7749 110.134 95.807C108.494 93.8392 105.638 90.9673 105.638 90.9673H92.8587C92.622 90.9673 91.8884 91.0853 91.6754 92.1477C91.4624 93.2101 91.912 93.8003 91.912 93.8003L102.916 110.234C100.29 111.283 97.4237 111.861 94.3968 111.861C81.6177 111.861 72.3883 99.9385 72.3883 86.7178Z" fill="#0D6F73"/>
<path d="M80.1978 153.648C85.0331 153.616 88.7089 156.717 88.7089 162.619C88.7089 167.278 84.868 171.03 80.1978 171C75.558 170.97 71.7966 167.813 71.7966 162.619C71.7966 156.835 75.3919 153.679 80.1978 153.648Z" fill="#84BABF"/>
<path d="M28.8981 168C27.4083 168 26.2196 167.6 25.3317 166.8C24.4439 165.986 24 164.884 24 163.495V156.211H26.4377V163.495C26.4377 164.295 26.6559 164.919 27.0923 165.368C27.5287 165.804 28.1306 166.021 28.8981 166.021C29.6805 166.021 30.29 165.804 30.7264 165.368C31.1778 164.919 31.4035 164.295 31.4035 163.495V156.211H33.8413V163.495C33.8413 164.884 33.3898 165.986 32.487 166.8C31.5992 167.6 30.4028 168 28.8981 168Z" fill="url(#paint0_linear_192_132)"/>
<path d="M42.026 167.979C41.1382 167.979 40.3557 167.846 39.6785 167.579C39.0164 167.312 38.4898 166.947 38.0985 166.484C37.7223 166.007 37.5041 165.446 37.4439 164.8H39.8817C39.9419 165.179 40.1601 165.488 40.5363 165.726C40.9125 165.951 41.409 166.063 42.026 166.063H42.9966C43.7339 166.063 44.2907 165.923 44.6669 165.642C45.0431 165.361 45.2312 164.989 45.2312 164.526C45.2312 164.077 45.0581 163.726 44.712 163.474C44.381 163.207 43.8844 163.032 43.2223 162.947L41.6197 162.716C40.2955 162.519 39.3174 162.168 38.6854 161.663C38.0684 161.144 37.7599 160.379 37.7599 159.368C37.7599 158.302 38.1286 157.481 38.8659 156.905C39.6183 156.316 40.7244 156.021 42.184 156.021H43.0417C44.3358 156.021 45.3666 156.302 46.134 156.863C46.9165 157.411 47.3604 158.147 47.4658 159.074H45.028C44.9678 158.737 44.7647 158.463 44.4186 158.253C44.0875 158.042 43.6286 157.937 43.0417 157.937H42.184C41.4767 157.937 40.9576 158.063 40.6265 158.316C40.3105 158.554 40.1525 158.912 40.1525 159.389C40.1525 159.811 40.2955 160.126 40.5814 160.337C40.8673 160.547 41.3112 160.695 41.9131 160.779L43.5609 161.032C44.9603 161.214 45.9836 161.579 46.6306 162.126C47.2927 162.66 47.6238 163.439 47.6238 164.463C47.6238 165.572 47.2325 166.435 46.4501 167.053C45.6826 167.67 44.5315 167.979 42.9966 167.979H42.026Z" fill="url(#paint1_linear_192_132)"/>
<path d="M55.9891 168C54.9809 168 54.093 167.818 53.3256 167.453C52.5732 167.074 51.9939 166.547 51.5876 165.874C51.1813 165.2 50.9781 164.414 50.9781 163.516V160.484C50.9781 159.572 51.1813 158.786 51.5876 158.126C51.9939 157.453 52.5732 156.933 53.3256 156.568C54.093 156.189 54.9809 156 55.9891 156C57.0123 156 57.9001 156.189 58.6525 156.568C59.4049 156.933 59.9843 157.453 60.3906 158.126C60.7969 158.786 61 159.572 61 160.484V162.547H53.3256V163.516C53.3256 164.372 53.5513 165.025 54.0028 165.474C54.4692 165.923 55.1389 166.147 56.0116 166.147C56.7189 166.147 57.2907 166.035 57.7271 165.811C58.1635 165.572 58.4343 165.228 58.5397 164.779H60.9548C60.7743 165.761 60.2326 166.547 59.3297 167.137C58.4268 167.712 57.3133 168 55.9891 168ZM58.6525 161.179V160.463C58.6525 159.621 58.4268 158.968 57.9754 158.505C57.5239 158.042 56.8618 157.811 55.9891 157.811C55.1313 157.811 54.4692 158.042 54.0028 158.505C53.5513 158.968 53.3256 159.628 53.3256 160.484V161.011L58.8331 160.989L58.6525 161.179Z" fill="url(#paint2_linear_192_132)"/>
<path d="M108.842 174L106.359 169.788L106.727 169.976C106.665 169.976 106.589 169.976 106.497 169.976C106.405 169.992 106.305 170 106.198 170C105.155 170 104.243 169.788 103.461 169.365C102.679 168.941 102.073 168.353 101.644 167.6C101.215 166.831 101 165.937 101 164.918V157.435C101 156.4 101.215 155.506 101.644 154.753C102.073 154 102.679 153.412 103.461 152.988C104.243 152.565 105.155 152.353 106.198 152.353C107.256 152.353 108.168 152.565 108.934 152.988C109.716 153.412 110.322 154 110.751 154.753C111.181 155.506 111.395 156.4 111.395 157.435V164.918C111.395 165.953 111.173 166.863 110.728 167.647C110.299 168.431 109.678 169.02 108.865 169.412L111.602 174H108.842ZM106.198 167.765C107.041 167.765 107.7 167.506 108.176 166.988C108.666 166.471 108.911 165.78 108.911 164.918V157.435C108.911 156.557 108.666 155.867 108.176 155.365C107.7 154.847 107.041 154.588 106.198 154.588C105.37 154.588 104.71 154.847 104.22 155.365C103.729 155.867 103.484 156.557 103.484 157.435V164.918C103.484 165.78 103.721 166.471 104.197 166.988C104.687 167.506 105.354 167.765 106.198 167.765Z" fill="url(#paint3_linear_192_132)"/>
<path d="M119.965 170C118.447 170 117.236 169.553 116.331 168.659C115.426 167.749 114.974 166.518 114.974 164.965V156.824H117.458V164.965C117.458 165.859 117.68 166.557 118.125 167.059C118.57 167.545 119.183 167.788 119.965 167.788C120.762 167.788 121.383 167.545 121.828 167.059C122.288 166.557 122.518 165.859 122.518 164.965V156.824H125.001V164.965C125.001 166.518 124.541 167.749 123.622 168.659C122.717 169.553 121.498 170 119.965 170Z" fill="url(#paint4_linear_192_132)"/>
<path d="M128.741 169.765V167.459H133.18V159.129H129.316V156.824H135.595V167.459H139.665V169.765H128.741ZM134.146 154.588C133.609 154.588 133.18 154.447 132.858 154.165C132.536 153.867 132.375 153.475 132.375 152.988C132.375 152.486 132.536 152.094 132.858 151.812C133.18 151.514 133.609 151.365 134.146 151.365C134.682 151.365 135.112 151.514 135.434 151.812C135.756 152.094 135.917 152.486 135.917 152.988C135.917 153.475 135.756 153.867 135.434 154.165C135.112 154.447 134.682 154.588 134.146 154.588Z" fill="url(#paint5_linear_192_132)"/>
<path d="M142.6 169.765V167.365L149.431 159.082H142.807V156.824H152.283V159.224L145.36 167.506H152.536V169.765H142.6Z" fill="url(#paint6_linear_192_132)"/>
<path d="M165.613 172.588C163.359 172.008 161.611 170.918 160.369 169.318C159.127 167.702 158.506 165.733 158.506 163.412V159.176C158.506 157.655 158.79 156.275 159.357 155.035C159.94 153.796 160.76 152.745 161.818 151.882C162.891 151.004 164.156 150.376 165.613 150V152.447C164.662 152.682 163.842 153.114 163.152 153.741C162.462 154.353 161.925 155.122 161.542 156.047C161.174 156.973 160.99 158.016 160.99 159.176V163.412C160.99 164.541 161.174 165.569 161.542 166.494C161.925 167.42 162.462 168.188 163.152 168.8C163.842 169.396 164.662 169.812 165.613 170.047V172.588Z" fill="url(#paint7_linear_192_132)"/>
<path d="M170.893 172.588V170.047C171.844 169.812 172.664 169.396 173.354 168.8C174.044 168.188 174.573 167.42 174.941 166.494C175.324 165.569 175.516 164.541 175.516 163.412V159.176C175.516 158.016 175.324 156.973 174.941 156.047C174.573 155.122 174.044 154.353 173.354 153.741C172.664 153.114 171.844 152.682 170.893 152.447V150C172.365 150.376 173.63 151.004 174.688 151.882C175.746 152.745 176.559 153.796 177.126 155.035C177.709 156.275 178 157.655 178 159.176V163.412C178 165.733 177.379 167.702 176.137 169.318C174.895 170.918 173.147 172.008 170.893 172.588Z" fill="url(#paint8_linear_192_132)"/>
</g>
<defs>
<linearGradient id="paint0_linear_192_132" x1="136.613" y1="92.208" x2="420.507" y2="92.208" gradientUnits="userSpaceOnUse">
<stop stop-color="#84BABF"/>
<stop offset="0.5" stop-color="#0D6F73"/>
<stop offset="1" stop-color="#085558"/>
</linearGradient>
<linearGradient id="paint1_linear_192_132" x1="136.613" y1="92.208" x2="420.507" y2="92.208" gradientUnits="userSpaceOnUse">
<stop stop-color="#84BABF"/>
<stop offset="0.5" stop-color="#0D6F73"/>
<stop offset="1" stop-color="#085558"/>
</linearGradient>
<linearGradient id="paint2_linear_192_132" x1="136.613" y1="92.208" x2="420.507" y2="92.208" gradientUnits="userSpaceOnUse">
<stop stop-color="#84BABF"/>
<stop offset="0.5" stop-color="#0D6F73"/>
<stop offset="1" stop-color="#085558"/>
</linearGradient>
<linearGradient id="paint3_linear_192_132" x1="87.9409" y1="161.294" x2="153.602" y2="161.294" gradientUnits="userSpaceOnUse">
<stop stop-color="#84BABF"/>
<stop offset="0.5" stop-color="#0D6F73"/>
<stop offset="1" stop-color="#085558"/>
</linearGradient>
<linearGradient id="paint4_linear_192_132" x1="87.9409" y1="161.294" x2="153.602" y2="161.294" gradientUnits="userSpaceOnUse">
<stop stop-color="#84BABF"/>
<stop offset="0.5" stop-color="#0D6F73"/>
<stop offset="1" stop-color="#085558"/>
</linearGradient>
<linearGradient id="paint5_linear_192_132" x1="87.9409" y1="161.294" x2="153.602" y2="161.294" gradientUnits="userSpaceOnUse">
<stop stop-color="#84BABF"/>
<stop offset="0.5" stop-color="#0D6F73"/>
<stop offset="1" stop-color="#085558"/>
</linearGradient>
<linearGradient id="paint6_linear_192_132" x1="87.9409" y1="161.294" x2="153.602" y2="161.294" gradientUnits="userSpaceOnUse">
<stop stop-color="#84BABF"/>
<stop offset="0.5" stop-color="#0D6F73"/>
<stop offset="1" stop-color="#085558"/>
</linearGradient>
<linearGradient id="paint7_linear_192_132" x1="87.9409" y1="161.294" x2="153.602" y2="161.294" gradientUnits="userSpaceOnUse">
<stop stop-color="#84BABF"/>
<stop offset="0.5" stop-color="#0D6F73"/>
<stop offset="1" stop-color="#085558"/>
</linearGradient>
<linearGradient id="paint8_linear_192_132" x1="87.9409" y1="161.294" x2="153.602" y2="161.294" gradientUnits="userSpaceOnUse">
<stop stop-color="#84BABF"/>
<stop offset="0.5" stop-color="#0D6F73"/>
<stop offset="1" stop-color="#085558"/>
</linearGradient>
<clipPath id="clip0_192_132">
<rect width="658" height="589" fill="white"/>
</clipPath>
</defs>
</svg>
