<svg width="5148" height="1174" viewBox="0 0 5148 1174" fill="none" xmlns="http://www.w3.org/2000/svg">
<g clip-path="url(#clip0_189_102)">
<path d="M4719.26 814.323C4684.26 790.278 4680.75 739.917 4712.07 711.244L5192.82 271.122C5239.41 228.47 5313.54 269.335 5302.34 331.5L5178.88 1017.09C5170.39 1064.26 5116.05 1086.93 5076.55 1059.8L4719.26 814.323Z" fill="#84BABF" fill-opacity="0.9"/>
<path d="M4982.9 1062.58L4999.09 1014.92L5015.12 1020.46C5024.8 1023.8 5033.29 1023.84 5040.59 1020.57C5048.05 1017.35 5053.28 1011.41 5056.28 1002.73C5059.28 994.044 5058.84 986.135 5054.95 978.998C5051.07 971.861 5044.28 966.619 5034.6 963.273L5000.54 951.503L5009.28 926.21L5042.59 937.72C5054.77 941.932 5064.43 947.792 5071.55 955.299C5078.9 962.698 5083.61 971.241 5085.68 980.927C5087.76 990.614 5086.89 1000.97 5083.08 1011.99C5079.68 1021.84 5074.56 1029.88 5067.73 1036.12C5061.07 1042.41 5053.29 1046.54 5044.39 1048.51C5035.71 1050.37 5026.38 1049.77 5016.42 1046.7L5007.94 1071.24L4982.9 1062.58ZM4972.97 1119.71C4968.13 1118.03 4964.69 1115.26 4962.67 1111.38C4960.7 1107.34 4960.53 1102.98 4962.14 1098.3C4963.76 1093.63 4966.56 1090.39 4970.54 1088.59C4974.59 1086.63 4979.03 1086.48 4983.87 1088.15L4991.38 1090.75C4996.39 1092.48 4999.8 1095.34 5001.6 1099.32C5003.45 1103.14 5003.6 1107.31 5002.05 1111.81C5000.43 1116.49 4997.6 1119.81 4993.56 1121.77C4989.51 1123.74 4985.07 1123.89 4980.23 1122.21L4972.97 1119.71Z" fill="#569A9D"/>
<path d="M4814.25 1037.04L4857.88 991.21L4873.24 1005.99C4882.52 1014.91 4892.19 1019.44 4902.24 1019.56C4912.45 1019.83 4921.56 1015.81 4929.57 1007.49C4937.57 999.165 4941.24 989.908 4940.57 979.715C4939.9 969.521 4934.93 959.961 4925.65 951.033L4893 919.633L4916.32 895.392L4948.24 926.099C4959.92 937.336 4967.85 949.116 4972.01 961.44C4976.49 973.758 4977.36 985.989 4974.61 998.133C4971.86 1010.28 4965.41 1021.63 4955.25 1032.19C4946.17 1041.63 4936.08 1048.11 4925 1051.62C4914.08 1055.29 4903.02 1055.89 4891.83 1053.44C4880.95 1050.98 4870.63 1045.37 4860.88 1036.61L4838.26 1060.13L4814.25 1037.04ZM4772.78 1096.97C4768.14 1092.5 4765.69 1087.53 4765.43 1082.04C4765.32 1076.38 4767.42 1071.32 4771.73 1066.84C4776.04 1062.36 4780.94 1060.14 4786.44 1060.19C4792.09 1060.08 4797.24 1062.26 4801.88 1066.73L4809.08 1073.65C4813.88 1078.27 4816.25 1083.33 4816.2 1088.82C4816.3 1094.16 4814.28 1098.99 4810.12 1103.31C4805.81 1107.79 4800.83 1110.08 4795.18 1110.19C4789.53 1110.3 4784.39 1108.13 4779.74 1103.66L4772.78 1096.97Z" fill="#569A9D" fill-opacity="0.7"/>
<path d="M4712.63 402.74C4693.33 402.82 4675.51 392.401 4666.11 375.541L4340.44 -208.855C4320.8 -244.097 4346.17 -287.486 4386.52 -287.654L5055.52 -290.438C5074.83 -290.518 5092.65 -280.099 5102.04 -263.238L5427.71 321.157C5447.35 356.399 5421.98 399.789 5381.64 399.957L4712.63 402.74Z" fill="#E0EDE9" fill-opacity="0.5"/>
<path d="M4985.42 259.913L4958.32 188.906L4982.29 179.905C4996.77 174.467 5006.67 166.332 5012 155.499C5017.58 144.572 5017.94 132.618 5013.06 119.637C5008.19 106.655 5000.05 97.8892 4988.66 93.3381C4977.26 88.7871 4964.33 89.2306 4949.85 94.6686L4898.92 113.795L4884.72 75.9748L4934.52 57.2699C4952.74 50.4255 4969.61 47.9358 4985.12 49.8006C5000.79 51.3221 5014.5 56.7146 5026.24 65.9784C5037.98 75.2421 5046.94 88.1121 5053.13 104.588C5058.66 119.317 5060.46 133.595 5058.53 147.423C5056.86 161.156 5051.79 173.456 5043.34 184.322C5035.04 194.844 5023.62 203.121 5009.08 209.152L5022.86 245.849L4985.42 259.913ZM5028.9 335.874C5021.66 338.593 5015 338.674 5008.91 336.118C5002.73 333.312 4998.33 328.414 4995.7 321.424C4993.08 314.435 4993.21 307.974 4996.11 302.042C4998.92 295.861 5003.94 291.411 5011.18 288.692L5022.41 284.473C5029.9 281.66 5036.61 281.703 5042.55 284.603C5048.38 287.253 5052.57 291.948 5055.1 298.689C5057.72 305.678 5057.63 312.264 5054.83 318.445C5052.02 324.626 5047 329.076 5039.76 331.796L5028.9 335.874Z" fill="#569A9D" fill-opacity="0.7"/>
<path d="M137.729 668.657C165.077 645.269 206.12 648.1 229.999 675.02L518.338 1000.09C563.045 1050.49 512.385 1127.61 448.374 1106.59L-34.6362 948.001C-83.5358 931.945 -96.0582 868.585 -56.9427 835.134L137.729 668.657Z" fill="#84BABF" fill-opacity="0.9"/>
<path d="M377.427 717.863C388.074 703.116 406.552 696.229 424.253 700.409L831.278 796.517C856.663 802.511 871.651 828.764 863.908 853.672L801.329 1054.97C795.479 1073.79 778.064 1086.61 758.358 1086.61L450.793 1086.61L203.167 1079.23C167.088 1078.15 146.895 1037.17 168.024 1007.9L377.427 717.863Z" fill="#0D6F73" fill-opacity="0.7"/>
<g opacity="0.7">
<path fill-rule="evenodd" clip-rule="evenodd" d="M426.596 771.744C425.749 768.304 423.581 765.459 420.092 763.211L414.859 759.838C411.37 757.59 407.845 756.85 404.284 757.62C400.723 758.39 397.857 760.459 395.686 763.828C393.593 767.076 392.91 770.381 393.637 773.745C394.286 777.228 396.416 780.133 400.025 782.459L405.438 785.948C408.927 788.196 412.452 788.936 416.013 788.166C419.497 787.516 422.324 785.507 424.495 782.139C426.666 778.77 427.366 775.305 426.596 771.744Z" fill="#9BC3C3"/>
<path d="M401.287 806.259L379.371 840.662L367.822 833.218C360.844 828.721 354.169 827.058 347.795 828.229C341.302 829.322 336.039 832.997 332.007 839.253C327.975 845.508 326.803 851.819 328.49 858.185C330.176 864.55 334.509 869.981 341.486 874.478L366.028 890.295L354.282 908.521L330.281 893.053C321.499 887.393 315.027 880.923 310.865 873.643C306.505 866.406 304.441 858.776 304.674 850.753C304.906 842.73 307.581 834.749 312.699 826.809C317.273 819.711 322.847 814.364 329.421 810.769C335.875 807.095 342.795 805.341 350.182 805.504C357.371 805.71 364.592 807.98 371.845 812.314L383.242 794.629L401.287 806.259Z" fill="#EFF6F4"/>
</g>
<path d="M952.266 896.381L1005.5 871.748L1013.7 889.721C1018.65 900.58 1025.44 907.774 1034.07 911.303C1042.78 915.02 1052 914.656 1061.74 910.213C1071.47 905.77 1077.79 899.041 1080.69 890.026C1083.58 881.012 1082.56 871.076 1077.6 860.217L1060.17 822.024L1088.53 809.078L1105.58 846.429C1111.82 860.096 1114.63 872.951 1114.02 884.993C1113.68 897.138 1110.26 907.975 1103.75 917.506C1097.24 927.037 1087.81 934.622 1075.45 940.262C1064.4 945.303 1053.51 947.449 1042.76 946.699C1032.1 946.137 1022.36 942.89 1013.54 936.959C1005 931.131 998.021 922.779 992.605 911.903L965.083 924.464L952.266 896.381ZM896.093 933.896C893.615 928.466 893.198 923.34 894.843 918.518C896.674 913.61 900.212 909.959 905.454 907.567C910.696 905.174 915.677 904.937 920.398 906.854C925.306 908.686 928.999 912.316 931.477 917.746L935.322 926.171C937.886 931.787 938.209 936.956 936.292 941.677C934.561 946.312 931.169 949.784 926.114 952.091C920.872 954.483 915.797 954.764 910.889 952.932C905.981 951.1 902.288 947.469 899.81 942.04L896.093 933.896Z" fill="#569A9D"/>
<path d="M807.804 1061.25L833.358 1085.35L825.195 1093.92C820.263 1099.09 817.777 1104.47 817.736 1110.05C817.611 1115.72 819.868 1120.77 824.507 1125.19C829.146 1129.61 834.294 1131.62 839.951 1131.22C845.608 1130.83 850.902 1128.04 855.834 1122.87L873.181 1104.67L886.697 1117.55L869.733 1135.35C863.525 1141.86 857.006 1146.29 850.176 1148.63C843.349 1151.15 836.562 1151.66 829.813 1150.17C823.065 1148.67 816.747 1145.12 810.859 1139.51C805.595 1134.49 801.974 1128.91 799.996 1122.77C797.933 1116.72 797.568 1110.58 798.901 1104.36C800.237 1098.31 803.325 1092.57 808.164 1087.14L795.049 1074.64L807.804 1061.25ZM774.434 1038.39C776.9 1035.8 779.657 1034.43 782.704 1034.26C785.841 1034.19 788.658 1035.34 791.156 1037.72C793.654 1040.1 794.896 1042.82 794.882 1045.87C794.957 1049.01 793.762 1051.87 791.296 1054.46L787.47 1058.47C784.918 1061.15 782.117 1062.48 779.066 1062.47C776.104 1062.54 773.418 1061.42 771.009 1059.13C768.511 1056.75 767.225 1053.99 767.149 1050.85C767.074 1047.72 768.269 1044.85 770.735 1042.27L774.434 1038.39Z" fill="#569A9D"/>
<path d="M729.154 1123.99C697.875 1126.2 671.523 1100.92 672.434 1069.58L682.158 734.947C683.343 694.202 728.158 669.989 762.886 691.331L1250.15 990.782C1294.05 1017.76 1277.54 1085.17 1226.15 1088.8L729.154 1123.99Z" fill="#E0EDE9" fill-opacity="0.5"/>
<path d="M811.831 928.05L778.909 912.883L784.076 901.82C787.198 895.137 787.861 889.059 786.065 883.588C784.322 878.001 780.455 873.809 774.463 871.01C768.471 868.211 762.774 867.936 757.371 870.186C751.969 872.435 747.707 876.901 744.585 883.585L733.605 907.093L716.147 898.938L726.885 875.949C730.814 867.537 735.734 861.061 741.644 856.523C747.493 851.815 753.963 849.081 761.055 848.323C768.148 847.565 775.496 848.962 783.102 852.515C789.901 855.69 795.278 859.956 799.233 865.313C803.242 870.555 805.618 876.437 806.361 882.961C807.043 889.316 805.911 895.946 802.966 902.853L819.905 910.765L811.831 928.05ZM851.993 939.44C850.432 942.781 848.188 945.032 845.26 946.191C842.217 947.296 839.082 947.096 835.856 945.588C832.629 944.081 830.521 941.833 829.531 938.844C828.425 935.801 828.653 932.608 830.214 929.267L832.636 924.081C834.251 920.624 836.553 918.4 839.542 917.41C842.416 916.366 845.409 916.571 848.52 918.024C851.747 919.531 853.913 921.806 855.018 924.85C856.123 927.893 855.896 931.085 854.335 934.427L851.993 939.44Z" fill="#569A9D"/>
<path d="M155.139 897.333L129.466 955.45L109.937 946.699C98.1372 941.413 87.4681 940.419 77.929 943.717C68.1866 946.925 60.9455 953.818 56.2057 964.396C51.466 974.975 51.1417 984.967 55.2329 994.373C59.3241 1003.78 67.2694 1011.12 79.0687 1016.41L120.57 1035.01L106.761 1065.83L66.1751 1047.64C51.3242 1040.99 39.84 1032.54 31.7223 1022.31C23.3101 1012.19 18.3417 1000.93 16.8172 988.52C15.2927 976.111 17.5384 963.194 23.5542 949.767C28.932 937.764 36.2603 928.223 45.5391 921.144C54.6144 913.973 64.8582 909.647 76.2704 908.165C87.388 906.795 99.0393 908.595 111.224 913.566L124.623 883.661L155.139 897.333ZM173.991 826.635C179.89 829.278 183.896 833.149 186.009 838.248C188.03 843.551 187.764 849.05 185.212 854.747C182.66 860.443 178.778 864.2 173.567 866.017C168.264 868.039 162.663 867.728 156.763 865.084L147.609 860.983C141.506 858.248 137.545 854.275 135.728 849.064C133.819 844.056 134.095 838.805 136.556 833.313C139.108 827.616 143.035 823.758 148.338 821.737C153.64 819.715 159.241 820.027 165.141 822.67L173.991 826.635Z" fill="#569A9D" fill-opacity="0.8"/>
<g opacity="0.7">
<path fill-rule="evenodd" clip-rule="evenodd" d="M551.554 854.407C547.394 853.163 543.042 853.685 538.5 855.972L531.686 859.403C527.143 861.69 524.172 864.953 522.772 869.192C521.372 873.431 521.776 877.743 523.984 882.129C526.114 886.358 529.18 889.134 533.184 890.456C537.266 891.935 541.657 891.492 546.356 889.126L553.405 885.577C557.947 883.29 560.919 880.027 562.319 875.788C563.797 871.706 563.433 867.471 561.225 863.085C559.016 858.7 555.793 855.807 551.554 854.407Z" fill="#9BC3C3"/>
<path d="M572.275 902.583L594.985 947.107L579.948 954.678C570.863 959.252 564.958 965.268 562.234 972.726C559.353 980.263 559.963 988.104 564.063 996.25C568.164 1004.39 574.1 1009.55 581.87 1011.73C589.641 1013.9 598.068 1012.7 607.154 1008.13L639.108 992.042L651.056 1015.77L619.806 1031.51C608.371 1037.26 597.517 1040.08 587.242 1039.95C576.89 1040.06 567.55 1037.49 559.222 1032.26C550.894 1027.03 544.128 1019.25 538.923 1008.91C534.27 999.665 532.088 990.456 532.376 981.279C532.508 972.181 534.955 963.782 539.718 956.083C544.403 948.619 551.287 942.404 560.371 937.438L548.779 914.412L572.275 902.583Z" fill="#EFF6F4"/>
</g>
<g opacity="0.7">
<path fill-rule="evenodd" clip-rule="evenodd" d="M4811.24 526.923C4805.05 527.808 4799.85 531.32 4795.65 537.459L4789.35 546.666C4785.15 552.805 4783.64 559.327 4784.83 566.233C4786.03 573.14 4789.58 579.001 4795.49 583.817C4801.19 588.462 4807.06 590.447 4813.11 589.773C4819.37 589.271 4824.68 585.845 4829.02 579.495L4835.54 569.97C4839.74 563.832 4841.25 557.31 4840.05 550.403C4839.07 543.669 4835.63 537.894 4829.72 533.077C4823.81 528.261 4817.65 526.209 4811.24 526.923Z" fill="#9BC3C3"/>
<path d="M4871.64 582.08L4932.01 630.788L4918.11 651.108C4909.71 663.384 4906.39 675.681 4908.15 687.999C4909.77 700.528 4916.07 711.265 4927.04 720.21C4938.02 729.155 4949.24 732.696 4960.71 730.831C4972.18 728.967 4982.11 721.897 4990.51 709.62L5020.06 666.44L5052.04 692.501L5023.14 734.729C5012.57 750.18 5000.67 761.087 4987.44 767.449C4974.27 774.195 4960.52 776.509 4946.19 774.39C4931.86 772.272 4917.73 765.536 4903.8 754.183C4891.34 744.034 4882.07 732.357 4875.98 719.152C4869.75 706.16 4866.97 692.684 4867.65 678.726C4868.39 665.152 4872.82 651.949 4880.94 639.117L4849.91 613.83L4871.64 582.08Z" fill="#EFF6F4"/>
</g>
<path fill-rule="evenodd" clip-rule="evenodd" d="M893 179.095C893.001 174.68 947.158 174.312 947.158 179.095V325.917C947.158 334.381 958.579 374.49 994.316 374.49C1030.05 374.49 1042.21 361.611 1042.21 361.611C1042.21 361.611 1024.16 337.324 1024.16 291.696C1024.16 225.46 1075.56 173.114 1140.21 171C1210.4 173.114 1260.88 228.678 1260.31 291.696C1259.79 350.939 1229 377.066 1229 377.066L1255.16 415.487C1255.16 415.487 1257 418.279 1255.16 420.855C1253.68 422.927 1251.47 423.063 1251.47 423.063H1206.53C1205.79 423.063 1192.89 405.768 1192.89 405.768C1192.89 405.768 1158.26 426.742 1136.16 451.028C1126.25 461.918 1125.92 466.874 1122.5 477.891C1122.07 479.27 1121.66 479.86 1121.42 480.098C1120.67 480.834 1118.84 480.834 1118.84 480.834H1074.26C1074.26 480.834 1072.48 480.834 1072.05 480.466C1071.77 480.221 1071.2 479.635 1071.23 477.523C1071.33 471.116 1072.76 456.313 1082.74 441.093C1096 420.855 1110.37 412.391 1110.37 412.391C1110.37 412.391 1099.82 410.706 1093.42 407.975C1087.02 405.245 1077.58 398.408 1077.58 398.408C1077.58 398.408 1051.42 427.846 994.316 427.846C937.211 427.846 893 374.49 893 325.917C893 268.58 892.999 210.005 893 179.095ZM1071.68 291.696C1071.68 252.447 1100.42 218.101 1140.21 218.101C1181.11 218.101 1214.63 251.218 1214.63 291.696C1214.63 308.076 1209.78 323.553 1201.37 336.359C1201.37 336.359 1194.32 326.164 1189.21 320.03C1184.1 313.895 1175.21 304.943 1175.21 304.943H1135.42C1134.68 304.943 1132.4 305.311 1131.74 308.622C1131.07 311.934 1132.47 313.774 1132.47 313.774L1166.74 365.003C1158.56 368.272 1149.63 370.074 1140.21 370.074C1100.42 370.074 1071.68 332.909 1071.68 291.696Z" fill="#0D6F73"/>
<path d="M1096 500.337C1111.05 500.239 1122.5 509.904 1122.5 528.303C1122.5 542.827 1110.54 554.524 1096 554.429C1081.55 554.335 1069.84 544.494 1069.84 528.303C1069.84 510.272 1081.04 500.434 1096 500.337Z" fill="#84BABF"/>
<path d="M1314.92 415.772C1308.32 415.772 1303.06 413.872 1299.12 410.072C1295.19 406.206 1293.22 400.972 1293.22 394.372V359.772H1304.02V394.372C1304.02 398.172 1304.99 401.139 1306.92 403.272C1308.86 405.339 1311.52 406.372 1314.92 406.372C1318.39 406.372 1321.09 405.339 1323.02 403.272C1325.02 401.139 1326.02 398.172 1326.02 394.372V359.772H1336.82V394.372C1336.82 400.972 1334.82 406.206 1330.82 410.072C1326.89 413.872 1321.59 415.772 1314.92 415.772ZM1373.08 415.672C1369.15 415.672 1365.68 415.039 1362.68 413.772C1359.75 412.506 1357.42 410.772 1355.68 408.572C1354.02 406.306 1353.05 403.639 1352.78 400.572H1363.58C1363.85 402.372 1364.82 403.839 1366.48 404.972C1368.15 406.039 1370.35 406.572 1373.08 406.572H1377.38C1380.65 406.572 1383.12 405.906 1384.78 404.572C1386.45 403.239 1387.28 401.472 1387.28 399.272C1387.28 397.139 1386.52 395.472 1384.98 394.272C1383.52 393.006 1381.32 392.172 1378.38 391.772L1371.28 390.672C1365.42 389.739 1361.08 388.072 1358.28 385.672C1355.55 383.206 1354.18 379.572 1354.18 374.772C1354.18 369.706 1355.82 365.806 1359.08 363.072C1362.42 360.272 1367.32 358.872 1373.78 358.872H1377.58C1383.32 358.872 1387.88 360.206 1391.28 362.872C1394.75 365.472 1396.72 368.972 1397.18 373.372H1386.38C1386.12 371.772 1385.22 370.472 1383.68 369.472C1382.22 368.472 1380.18 367.972 1377.58 367.972H1373.78C1370.65 367.972 1368.35 368.572 1366.88 369.772C1365.48 370.906 1364.78 372.606 1364.78 374.872C1364.78 376.872 1365.42 378.372 1366.68 379.372C1367.95 380.372 1369.92 381.072 1372.58 381.472L1379.88 382.672C1386.08 383.539 1390.62 385.272 1393.48 387.872C1396.42 390.406 1397.88 394.106 1397.88 398.972C1397.88 404.239 1396.15 408.339 1392.68 411.272C1389.28 414.206 1384.18 415.672 1377.38 415.672H1373.08ZM1434.94 415.772C1430.48 415.772 1426.54 414.906 1423.14 413.172C1419.81 411.372 1417.24 408.872 1415.44 405.672C1413.64 402.472 1412.74 398.739 1412.74 394.472V380.072C1412.74 375.739 1413.64 372.006 1415.44 368.872C1417.24 365.672 1419.81 363.206 1423.14 361.472C1426.54 359.672 1430.48 358.772 1434.94 358.772C1439.48 358.772 1443.41 359.672 1446.74 361.472C1450.08 363.206 1452.64 365.672 1454.44 368.872C1456.24 372.006 1457.14 375.739 1457.14 380.072V389.872H1423.14V394.472C1423.14 398.539 1424.14 401.639 1426.14 403.772C1428.21 405.906 1431.18 406.972 1435.04 406.972C1438.18 406.972 1440.71 406.439 1442.64 405.372C1444.58 404.239 1445.78 402.606 1446.24 400.472H1456.94C1456.14 405.139 1453.74 408.872 1449.74 411.672C1445.74 414.406 1440.81 415.772 1434.94 415.772ZM1446.74 383.372V379.972C1446.74 375.972 1445.74 372.872 1443.74 370.672C1441.74 368.472 1438.81 367.372 1434.94 367.372C1431.14 367.372 1428.21 368.472 1426.14 370.672C1424.14 372.872 1423.14 376.006 1423.14 380.072V382.572L1447.54 382.472L1446.74 383.372ZM1506.4 432.772L1495.6 414.872L1497.2 415.672C1496.94 415.672 1496.6 415.672 1496.2 415.672C1495.8 415.739 1495.37 415.772 1494.9 415.772C1490.37 415.772 1486.4 414.872 1483 413.072C1479.6 411.272 1476.97 408.772 1475.1 405.572C1473.24 402.306 1472.3 398.506 1472.3 394.172V362.372C1472.3 357.972 1473.24 354.172 1475.1 350.972C1476.97 347.772 1479.6 345.272 1483 343.472C1486.4 341.672 1490.37 340.772 1494.9 340.772C1499.5 340.772 1503.47 341.672 1506.8 343.472C1510.2 345.272 1512.84 347.772 1514.7 350.972C1516.57 354.172 1517.5 357.972 1517.5 362.372V394.172C1517.5 398.572 1516.54 402.439 1514.6 405.772C1512.74 409.106 1510.04 411.606 1506.5 413.272L1518.4 432.772H1506.4ZM1494.9 406.272C1498.57 406.272 1501.44 405.172 1503.5 402.972C1505.64 400.772 1506.7 397.839 1506.7 394.172V362.372C1506.7 358.639 1505.64 355.706 1503.5 353.572C1501.44 351.372 1498.57 350.272 1494.9 350.272C1491.3 350.272 1488.44 351.372 1486.3 353.572C1484.17 355.706 1483.1 358.639 1483.1 362.372V394.172C1483.1 397.839 1484.14 400.772 1486.2 402.972C1488.34 405.172 1491.24 406.272 1494.9 406.272ZM1554.77 415.772C1548.17 415.772 1542.9 413.872 1538.97 410.072C1535.03 406.206 1533.07 400.972 1533.07 394.372V359.772H1543.87V394.372C1543.87 398.172 1544.83 401.139 1546.77 403.272C1548.7 405.339 1551.37 406.372 1554.77 406.372C1558.23 406.372 1560.93 405.339 1562.87 403.272C1564.87 401.139 1565.87 398.172 1565.87 394.372V359.772H1576.67V394.372C1576.67 400.972 1574.67 406.206 1570.67 410.072C1566.73 413.872 1561.43 415.772 1554.77 415.772ZM1592.93 414.772V404.972H1612.23V369.572H1595.43V359.772H1622.73V404.972H1640.43V414.772H1592.93ZM1616.43 350.272C1614.09 350.272 1612.23 349.672 1610.83 348.472C1609.43 347.206 1608.73 345.539 1608.73 343.472C1608.73 341.339 1609.43 339.672 1610.83 338.472C1612.23 337.206 1614.09 336.572 1616.43 336.572C1618.76 336.572 1620.63 337.206 1622.03 338.472C1623.43 339.672 1624.13 341.339 1624.13 343.472C1624.13 345.539 1623.43 347.206 1622.03 348.472C1620.63 349.672 1618.76 350.272 1616.43 350.272ZM1653.19 414.772V404.572L1682.89 369.372H1654.09V359.772H1695.29V369.972L1665.19 405.172H1696.39V414.772H1653.19ZM1753.25 426.772C1743.45 424.306 1735.85 419.672 1730.45 412.872C1725.05 406.006 1722.35 397.639 1722.35 387.772V369.772C1722.35 363.306 1723.58 357.439 1726.05 352.172C1728.58 346.906 1732.15 342.439 1736.75 338.772C1741.42 335.039 1746.92 332.372 1753.25 330.772V341.172C1749.12 342.172 1745.55 344.006 1742.55 346.672C1739.55 349.272 1737.22 352.539 1735.55 356.472C1733.95 360.406 1733.15 364.839 1733.15 369.772V387.772C1733.15 392.572 1733.95 396.939 1735.55 400.872C1737.22 404.806 1739.55 408.072 1742.55 410.672C1745.55 413.206 1749.12 414.972 1753.25 415.972V426.772ZM1776.21 426.772V415.972C1780.34 414.972 1783.91 413.206 1786.91 410.672C1789.91 408.072 1792.21 404.806 1793.81 400.872C1795.48 396.939 1796.31 392.572 1796.31 387.772V369.772C1796.31 364.839 1795.48 360.406 1793.81 356.472C1792.21 352.539 1789.91 349.272 1786.91 346.672C1783.91 344.006 1780.34 342.172 1776.21 341.172V330.772C1782.61 332.372 1788.11 335.039 1792.71 338.772C1797.31 342.439 1800.84 346.906 1803.31 352.172C1805.84 357.439 1807.11 363.306 1807.11 369.772V387.772C1807.11 397.639 1804.41 406.006 1799.01 412.872C1793.61 419.672 1786.01 424.306 1776.21 426.772Z" fill="url(#paint0_linear_189_102)"/>
</g>
<defs>
<linearGradient id="paint0_linear_189_102" x1="1425.18" y1="383.659" x2="1731.82" y2="383.659" gradientUnits="userSpaceOnUse">
<stop stop-color="#84BABF"/>
<stop offset="0.5" stop-color="#0D6F73"/>
<stop offset="1" stop-color="#085558"/>
</linearGradient>
<clipPath id="clip0_189_102">
<rect width="5148" height="1174" fill="white"/>
</clipPath>
</defs>
</svg>
