<svg width="200" height="200" viewBox="0 0 200 200" fill="none" xmlns="http://www.w3.org/2000/svg">
<path d="M176.649 72.9289C232.466 153.214 118.149 199.929 92.1487 161.929C66.1487 123.929 43.0771 184.297 17.6488 116.929C-20.8511 14.9298 80.6328 8.28197 98.1488 46.4288C120.649 95.4293 140.149 20.4289 176.649 72.9289Z" fill="#E0EDE9" fill-opacity="0.5"/>
<path d="M16 165.214C16 169.931 17.6692 174.455 20.6405 177.791C23.6118 181.126 27.6417 183 31.8438 183H169.156C173.358 183 177.388 181.126 180.359 177.791C183.331 174.455 185 169.931 185 165.214V82.2143C185 77.4972 183.331 72.9734 180.359 69.6379C177.388 66.3024 173.358 64.4286 169.156 64.4286H31.8438C27.6417 64.4286 23.6118 66.3024 20.6405 69.6379C17.6692 72.9734 16 77.4972 16 82.2143L16 165.214Z" fill="#0D6F73"/>
<path d="M37.125 46.6429C37.125 48.2152 37.6814 49.7232 38.6718 50.835C39.6623 51.9468 41.0056 52.5714 42.4062 52.5714H158.594C159.994 52.5714 161.338 51.9468 162.328 50.835C163.319 49.7232 163.875 48.2152 163.875 46.6429C163.875 45.0705 163.319 43.5625 162.328 42.4507C161.338 41.3389 159.994 40.7143 158.594 40.7143H42.4062C41.0056 40.7143 39.6623 41.3389 38.6718 42.4507C37.6814 43.5625 37.125 45.0705 37.125 46.6429Z" fill="#84BABF"/>
<path d="M58.25 22.9286C58.25 24.5009 58.8064 26.0089 59.7968 27.1207C60.7873 28.2325 62.1306 28.8571 63.5312 28.8571H137.469C138.869 28.8571 140.213 28.2325 141.203 27.1207C142.194 26.0089 142.75 24.5009 142.75 22.9286C142.75 21.3562 142.194 19.8483 141.203 18.7364C140.213 17.6246 138.869 17 137.469 17H63.5312C62.1306 17 60.7873 17.6246 59.7968 18.7364C58.8064 19.8483 58.25 21.3562 58.25 22.9286Z" fill="#E0EDE9"/>
<path fill-rule="evenodd" clip-rule="evenodd" d="M91.998 122.998C91.998 120.877 92.8409 118.842 94.3412 117.341C95.8416 115.841 97.8766 114.998 99.9984 114.998H120C122.121 114.998 124.156 115.841 125.657 117.341C127.157 118.842 128 120.877 128 122.998V143C128 145.121 127.157 147.156 125.657 148.657C124.156 150.157 122.121 151 120 151H99.9984C97.8766 151 95.8416 150.157 94.3412 148.657C92.8409 147.156 91.998 145.121 91.998 143V122.998ZM108.585 123.584C108.96 123.209 109.469 122.998 109.999 122.998C110.529 122.998 111.038 123.209 111.413 123.584C111.788 123.959 111.999 124.468 111.999 124.999V130.999H117.999C118.53 130.999 119.039 131.21 119.414 131.585C119.789 131.96 120 132.469 120 132.999C120 133.529 119.789 134.038 119.414 134.413C119.039 134.788 118.53 134.999 117.999 134.999H111.999V140.999C111.999 141.53 111.788 142.039 111.413 142.414C111.038 142.789 110.529 143 109.999 143C109.469 143 108.96 142.789 108.585 142.414C108.21 142.039 107.999 141.53 107.999 140.999V134.999H101.999C101.468 134.999 100.959 134.788 100.584 134.413C100.209 134.038 99.9984 133.529 99.9984 132.999C99.9984 132.469 100.209 131.96 100.584 131.585C100.959 131.21 101.468 130.999 101.999 130.999H107.999V124.999C107.999 124.468 108.21 123.959 108.585 123.584Z" fill="#E0EDE9"/>
<path d="M79.4132 99.4811C78.1446 99.8209 76.9552 100.407 75.9132 101.207C74.8711 102.006 73.9968 103.003 73.34 104.141C72.6833 105.278 72.257 106.534 72.0856 107.836C71.9141 109.138 72.0009 110.461 72.3408 111.73L76.4771 127.187C77.1295 129.624 78.6795 131.725 80.8162 133.068C82.9528 134.411 85.5182 134.896 87.9977 134.427V122.998C87.9977 119.816 89.2621 116.763 91.5126 114.513C93.7632 112.262 96.8156 110.998 99.9984 110.998H109.415L107.119 102.413C106.779 101.145 106.193 99.9552 105.393 98.9132C104.594 97.8711 103.597 96.9968 102.459 96.34C101.322 95.6833 100.066 95.257 98.7641 95.0856C97.4619 94.9141 96.1388 95.0009 94.8701 95.3408L79.4132 99.4811Z" fill="#84BABF"/>
</svg>
