<svg width="200" height="200" viewBox="0 0 200 200" fill="none" xmlns="http://www.w3.org/2000/svg">
<path d="M176.649 72.9289C232.466 153.214 118.149 199.929 92.1487 161.929C66.1487 123.929 43.0771 184.297 17.6488 116.929C-20.8511 14.9298 80.6328 8.28197 98.1488 46.4288C120.649 95.4293 140.149 20.4289 176.649 72.9289Z" fill="#E0EDE9" fill-opacity="0.5"/>
<path d="M173.833 137.167H155.5V118.833C155.5 116.402 154.534 114.071 152.815 112.352C151.096 110.632 148.764 109.667 146.333 109.667C143.902 109.667 141.571 110.632 139.852 112.352C138.132 114.071 137.167 116.402 137.167 118.833V137.167H118.833C116.402 137.167 114.071 138.132 112.352 139.852C110.632 141.571 109.667 143.902 109.667 146.333C109.667 148.764 110.632 151.096 112.352 152.815C114.071 154.534 116.402 155.5 118.833 155.5H137.167V173.833C137.167 176.264 138.132 178.596 139.852 180.315C141.571 182.034 143.902 183 146.333 183C148.764 183 151.096 182.034 152.815 180.315C154.534 178.596 155.5 176.264 155.5 173.833V155.5H173.833C176.264 155.5 178.596 154.534 180.315 152.815C182.034 151.096 183 148.764 183 146.333C183 143.902 182.034 141.571 180.315 139.852C178.596 138.132 176.264 137.167 173.833 137.167Z" fill="#0D6F73"/>
<path fill-rule="evenodd" clip-rule="evenodd" d="M82.1667 109.667H27.1667C24.7355 109.667 22.4039 110.632 20.6849 112.352C18.9658 114.071 18 116.402 18 118.833V173.833C18 176.264 18.9658 178.596 20.6849 180.315C22.4039 182.034 24.7355 183 27.1667 183H82.1667C84.5978 183 86.9294 182.034 88.6485 180.315C90.3676 178.596 91.3333 176.264 91.3333 173.833V118.833C91.3333 116.402 90.3676 114.071 88.6485 112.352C86.9294 110.632 84.5978 109.667 82.1667 109.667ZM36.3333 164.667H73V128H36.3333V164.667Z" fill="#84BABF"/>
<path fill-rule="evenodd" clip-rule="evenodd" d="M118.833 18H173.833C176.264 18 178.596 18.9658 180.315 20.6849C182.034 22.4039 183 24.7355 183 27.1667V82.1667C183 84.5978 182.034 86.9294 180.315 88.6485C178.596 90.3676 176.264 91.3333 173.833 91.3333H118.833C116.402 91.3333 114.071 90.3676 112.352 88.6485C110.632 86.9294 109.667 84.5978 109.667 82.1667V27.1667C109.667 24.7355 110.632 22.4039 112.352 20.6849C114.071 18.9658 116.402 18 118.833 18ZM128 73H164.667V36.3333H128V73Z" fill="#E0EDE9"/>
<path fill-rule="evenodd" clip-rule="evenodd" d="M82.1667 18H27.1667C24.7355 18 22.4039 18.9658 20.6849 20.6849C18.9658 22.4039 18 24.7355 18 27.1667V82.1667C18 84.5978 18.9658 86.9294 20.6849 88.6485C22.4039 90.3676 24.7355 91.3333 27.1667 91.3333H82.1667C84.5978 91.3333 86.9294 90.3676 88.6485 88.6485C90.3676 86.9294 91.3333 84.5978 91.3333 82.1667V27.1667C91.3333 24.7355 90.3676 22.4039 88.6485 20.6849C86.9294 18.9658 84.5978 18 82.1667 18ZM36.3333 73H73V36.3333H36.3333V73Z" fill="#0D6F73"/>
</svg>
