<svg width="200" height="200" viewBox="0 0 200 200" fill="none" xmlns="http://www.w3.org/2000/svg">
<path fill-rule="evenodd" clip-rule="evenodd" d="M31.1667 174.5L50.3333 155.333H108.667C108.667 155.333 141.355 145.523 156 132.506C170.645 119.488 183.667 88.6667 183.667 88.6667V38.6667C183.672 34.0889 182.042 30.1667 178.775 26.9C175.508 23.6333 171.583 22 167 22H33.6667C29.0889 22.0056 25.1667 23.6389 21.9 26.9C18.6333 30.1611 17 34.0833 17 38.6667V168.458C16.9945 172.214 18.6945 174.819 22.1 176.275C25.5056 177.731 28.5278 177.139 31.1667 174.5ZM116.167 116.167L100.333 100.333L84.5 116.167C82.9722 117.694 81.0278 118.458 78.6667 118.458C76.3056 118.458 74.3611 117.694 72.8333 116.167C71.3056 114.639 70.5417 112.694 70.5417 110.333C70.5417 107.972 71.3056 106.028 72.8333 104.5L88.6667 88.6667L72.8333 72.8333C71.3056 71.3056 70.5417 69.3611 70.5417 67C70.5417 64.6389 71.3056 62.6944 72.8333 61.1667C74.3611 59.6389 76.3056 58.875 78.6667 58.875C81.0278 58.875 82.9722 59.6389 84.5 61.1667L100.333 77L116.167 61.1667C117.694 59.6389 119.639 58.875 122 58.875C124.361 58.875 126.306 59.6389 127.833 61.1667C129.361 62.6944 130.125 64.6389 130.125 67C130.125 69.3611 129.361 71.3056 127.833 72.8333L112 88.6667L127.833 104.5C129.361 106.028 130.125 107.972 130.125 110.333C130.125 112.694 129.361 114.639 127.833 116.167C126.306 117.694 124.361 118.458 122 118.458C119.639 118.458 117.694 117.694 116.167 116.167Z" fill="#FF6B6B"/>
<path d="M178.775 150.442C182.036 147.175 183.667 143.25 183.667 138.667V88.6667C183.667 88.6667 170.645 119.488 156 132.506C141.355 145.523 108.667 155.333 108.667 155.333H167C171.589 155.339 175.514 153.708 178.775 150.442Z" fill="#FFB3B3"/>
<path d="M100.333 100.333L116.167 116.167C117.694 117.694 119.639 118.458 122 118.458C124.361 118.458 126.306 117.694 127.833 116.167C129.361 114.639 130.125 112.694 130.125 110.333C130.125 107.972 129.361 106.028 127.833 104.5L112 88.6667L127.833 72.8333C129.361 71.3056 130.125 69.3611 130.125 67C130.125 64.6389 129.361 62.6944 127.833 61.1667C126.306 59.6389 124.361 58.875 122 58.875C119.639 58.875 117.694 59.6389 116.167 61.1667L100.333 77L84.5 61.1667C82.9722 59.6389 81.0278 58.875 78.6667 58.875C76.3056 58.875 74.3611 59.6389 72.8333 61.1667C71.3056 62.6944 70.5417 64.6389 70.5417 67C70.5417 69.3611 71.3056 71.3056 72.8333 72.8333L88.6667 88.6667L72.8333 104.5C71.3056 106.028 70.5417 107.972 70.5417 110.333C70.5417 112.694 71.3056 114.639 72.8333 116.167C74.3611 117.694 76.3056 118.458 78.6667 118.458C81.0278 118.458 82.9722 117.694 84.5 116.167L100.333 100.333Z" fill="#BE4949"/>
</svg>
