<svg width="658" height="589" viewBox="0 0 658 589" fill="none" xmlns="http://www.w3.org/2000/svg">
<g clip-path="url(#clip0_226_36)">
<path d="M0 164.001C0 164.001 90.7588 207.001 155 207.001C219.241 207.001 299 169.5 364.5 164.001C430 158.501 451.528 161.209 511 185.501C586 216.134 658 285.5 658 285.5V589.001H0V164.001Z" fill="#06363D"/>
<path d="M5.639 282.029C-1.06255 298.938 -17.2842 310.15 -35.4704 310.443L-176.202 312.71C-202.282 313.13 -223.255 291.359 -221.862 265.313L-219.325 217.861C-218.273 198.182 -204.539 181.477 -185.435 176.64L-71.8517 147.881L-11.4438 134.489C23.795 126.677 53.4291 161.448 40.1301 195.003L5.639 282.029Z" fill="#0D6F73" fill-opacity="0.7"/>
<path d="M613.683 516.315C641.73 502.293 675.753 515.554 686.913 544.859L709.602 604.436C724.109 642.529 691.979 682.056 651.726 675.638L544.172 658.488C493.294 650.375 482.735 581.781 528.817 558.743L613.683 516.315Z" fill="#E0EDE9" fill-opacity="0.3"/>
<path d="M583.149 273.744L601.934 252.942L608.908 259.306C613.121 263.151 617.453 265.041 621.906 264.977C626.431 264.979 630.417 263.092 633.864 259.314C637.311 255.537 638.828 251.396 638.413 246.89C637.998 242.384 635.684 238.208 631.471 234.363L616.652 220.84L626.696 209.834L641.188 223.06C646.49 227.899 650.136 233.023 652.123 238.432C654.249 243.834 654.775 249.24 653.699 254.649C652.624 260.059 649.898 265.16 645.523 269.955C641.611 274.24 637.223 277.225 632.357 278.909C627.565 280.66 622.675 281.057 617.689 280.102C612.842 279.14 608.209 276.776 603.791 273.01L594.045 283.688L583.149 273.744ZM565.484 300.76C563.377 298.837 562.234 296.662 562.053 294.234C561.939 291.733 562.81 289.466 564.666 287.432C566.522 285.398 568.668 284.36 571.102 284.318C573.603 284.204 575.907 285.108 578.013 287.031L581.282 290.014C583.461 292.003 584.572 294.214 584.613 296.649C584.721 299.011 583.88 301.172 582.09 303.134C580.234 305.168 578.056 306.242 575.555 306.356C573.054 306.47 570.75 305.566 568.644 303.644L565.484 300.76Z" fill="#569A9D"/>
<g opacity="0.7">
<path fill-rule="evenodd" clip-rule="evenodd" d="M579.546 366.093C583.51 366.125 587.192 364.561 590.593 361.401L595.694 356.661C599.095 353.502 600.871 349.885 601.02 345.813C601.17 341.741 599.719 338.063 596.669 334.779C593.727 331.613 590.333 329.959 586.486 329.817C582.531 329.559 578.795 331.064 575.276 334.333L569.999 339.236C566.598 342.396 564.823 346.012 564.673 350.084C564.414 354.039 565.811 357.659 568.862 360.942C571.912 364.226 575.474 365.943 579.546 366.093Z" fill="#9BC3C3" fill-opacity="0.5"/>
<path d="M549.132 329.124L517.902 295.864L529.16 285.403C535.962 279.084 539.61 272.308 540.102 265.077C540.712 257.736 538.183 251.017 532.517 244.919C526.851 238.82 520.336 235.806 512.97 235.875C505.605 235.944 498.521 239.138 491.719 245.458L467.795 267.687L451.287 249.919L474.684 228.181C483.245 220.227 492.046 215 501.086 212.5C510.135 209.775 518.975 209.646 527.606 212.116C536.237 214.585 544.149 219.69 551.34 227.43C557.769 234.35 562.023 241.869 564.104 249.987C566.301 257.997 566.291 265.983 564.073 273.943C561.863 281.678 557.407 288.877 550.706 295.54L566.724 312.78L549.132 329.124Z" fill="#EFF6F4" fill-opacity="0.7"/>
</g>
<g opacity="0.8">
<circle cx="54" cy="245" r="50" fill="#E0EDE9"/>
<path fill-rule="evenodd" clip-rule="evenodd" d="M24.6666 222.3C24.6666 221.591 33.3492 221.532 33.3492 222.3L33.3492 245.87C33.3492 247.229 35.1802 253.668 40.9095 253.668C46.6389 253.668 48.588 251.601 48.588 251.601C48.588 251.601 45.6938 247.702 45.6938 240.376C45.6938 229.743 53.935 221.339 64.2994 221C75.5529 221.339 83.6448 230.26 83.5546 240.376C83.4699 249.887 78.5341 254.082 78.5341 254.082L82.7278 260.25C82.7278 260.25 83.0231 260.698 82.7278 261.111C82.4902 261.444 82.1371 261.466 82.1371 261.466L74.9311 261.466C74.813 261.466 72.7457 258.689 72.7457 258.689C72.7457 258.689 67.1936 262.057 63.6497 265.956C62.0607 267.704 62.008 268.499 61.4601 270.268C61.3915 270.489 61.3261 270.584 61.2871 270.622C61.1669 270.741 60.8736 270.741 60.8736 270.741L53.7267 270.741C53.7267 270.741 53.4403 270.741 53.3723 270.682C53.3271 270.642 53.236 270.548 53.2411 270.209C53.2566 269.18 53.4862 266.804 55.0852 264.361C57.2116 261.111 59.5151 259.753 59.5151 259.753C59.5151 259.753 57.8246 259.482 56.7981 259.044C55.7717 258.606 54.2583 257.508 54.2583 257.508C54.2583 257.508 50.0647 262.234 40.9095 262.234C31.7544 262.234 24.6666 253.668 24.6666 245.87C24.6666 236.665 24.6664 227.262 24.6666 222.3ZM53.3133 240.376C53.3133 234.075 57.9203 228.562 64.2994 228.562C70.8563 228.562 76.2306 233.878 76.2306 240.376C76.2306 243.006 75.4525 245.491 74.1042 247.547C74.1042 247.547 72.9739 245.91 72.1551 244.925C71.3362 243.94 69.9106 242.503 69.9106 242.503L63.5316 242.503C63.4134 242.503 63.0472 242.562 62.9409 243.094C62.8346 243.625 63.059 243.921 63.059 243.921L68.5521 252.145C67.241 252.67 65.8103 252.959 64.2994 252.959C57.9203 252.959 53.3133 246.993 53.3133 240.376Z" fill="#0D6F73"/>
<path d="M57.2116 273.872C59.6252 273.856 61.4601 275.407 61.4601 278.361C61.4601 280.693 59.5428 282.571 57.2116 282.555C54.8955 282.54 53.0179 280.96 53.0179 278.361C53.0179 275.467 54.8126 273.887 57.2116 273.872Z" fill="#84BABF"/>
</g>
<path d="M713.476 661.433C688.854 662.551 666.418 647.401 658.266 624.151L602.22 464.313C582.365 407.688 653.653 363.859 695.216 407.138L844.638 562.733C877.88 597.348 854.813 655.011 806.852 657.19L713.476 661.433Z" fill="#84BABF" fill-opacity="0.3"/>
<path d="M75.2494 597.167C70.1346 608.188 57.6121 615.217 44.4341 614.464L-46.1603 609.291C-78.2552 607.458 -83.1809 567.987 -52.5859 557.8L57.4063 521.179C81.876 513.032 104.61 533.907 94.6473 555.373L75.2494 597.167Z" fill="#84BABF" fill-opacity="0.5"/>
<path d="M-36.3654 553.924C-39.6189 549.018 -39.2714 542.566 -35.5103 538.047L-16.3494 515.487C-3.74539 500.648 14.8165 492.092 34.2861 492.126C36.3887 492.13 38.3606 492.136 40.2102 492.147C70.2882 492.325 55.1717 530.32 30.4717 547.485L19.6785 554.986C6.9427 563.836 -5.59126 584.295 -19.2434 576.937C-21.0731 575.95 -22.7252 574.49 -24.0268 572.527L-36.3654 553.924Z" fill="#84BABF" fill-opacity="0.5"/>
</g>
<defs>
<clipPath id="clip0_226_36">
<rect width="658" height="589" fill="white"/>
</clipPath>
</defs>
</svg>
