<svg width="200" height="200" viewBox="0 0 200 200" fill="none" xmlns="http://www.w3.org/2000/svg">
<path fill-rule="evenodd" clip-rule="evenodd" d="M31.1667 174.5L50.3333 155.333H108.667C108.667 155.333 139.051 142.86 153.241 130.333C168.465 116.895 183.667 88.6667 183.667 88.6667V38.6667C183.672 34.0889 182.042 30.1667 178.775 26.9C175.508 23.6333 171.583 22 167 22H33.6667C29.0889 22.0056 25.1667 23.6389 21.9 26.9C18.6333 30.1611 17 34.0833 17 38.6667V168.458C16.9945 172.214 18.6945 174.819 22.1 176.275C25.5056 177.731 28.5278 177.139 31.1667 174.5ZM106.275 61.2667C104.675 62.8667 102.694 63.6667 100.333 63.6667C97.9834 63.6778 96.0056 62.8806 94.4 61.275C92.7945 59.6694 91.9945 57.6889 92 55.3333C92.0056 52.9778 92.8056 51 94.4 49.4C95.9945 47.8 97.9722 47 100.333 47C102.694 47 104.672 47.8 106.267 49.4C107.861 51 108.661 52.9778 108.667 55.3333C108.672 57.6889 107.875 59.6667 106.275 61.2667ZM106.275 127.933C104.675 129.533 102.694 130.333 100.333 130.333C97.9778 130.339 96 129.542 94.4 127.942C92.8 126.342 92 124.361 92 122V88.6667C92 86.6662 92.5797 84.9355 93.7391 83.4745C93.9417 83.2192 94.162 82.9722 94.4 82.7333C96 81.1278 97.9778 80.3278 100.333 80.3333C102.689 80.3389 104.667 81.1389 106.267 82.7333C107.867 84.3278 108.667 86.3056 108.667 88.6667V95.2302V122C108.672 124.356 107.875 126.333 106.275 127.933Z" fill="#1B97F3"/>
<path d="M178.775 150.442C182.036 147.175 183.667 143.25 183.667 138.667V88.6667C183.667 88.6667 168.465 116.895 153.241 130.333C139.051 142.86 108.667 155.333 108.667 155.333H167C171.589 155.339 175.514 153.708 178.775 150.442Z" fill="#7DC8FF"/>
<path d="M100.333 130.333C102.694 130.333 104.675 129.533 106.275 127.933C107.875 126.333 108.672 124.356 108.667 122V95.2302V88.6667C108.667 86.3056 107.867 84.3278 106.267 82.7333C104.667 81.1389 102.689 80.3389 100.333 80.3333C97.9778 80.3278 96 81.1278 94.4 82.7333C94.162 82.9722 93.9417 83.2192 93.7391 83.4745C92.5797 84.9355 92 86.6662 92 88.6667V122C92 124.361 92.8 126.342 94.4 127.942C96 129.542 97.9778 130.339 100.333 130.333Z" fill="#146AAA"/>
<path d="M100.333 63.6667C102.694 63.6667 104.675 62.8667 106.275 61.2667C107.875 59.6667 108.672 57.6889 108.667 55.3333C108.661 52.9778 107.861 51 106.267 49.4C104.672 47.8 102.694 47 100.333 47C97.9722 47 95.9945 47.8 94.4 49.4C92.8056 51 92.0056 52.9778 92 55.3333C91.9945 57.6889 92.7945 59.6694 94.4 61.275C96.0056 62.8806 97.9834 63.6778 100.333 63.6667Z" fill="#146AAA"/>
</svg>
