<svg width="945" height="945" viewBox="0 0 945 945" fill="none" xmlns="http://www.w3.org/2000/svg">
<path fill-rule="evenodd" clip-rule="evenodd" d="M502.5 197.5L503 199.5L536.154 213L539.5 287L451.5 290L431.41 318.5L430 320.5L381 319L377.806 307.5L447.5 234.071L467.5 235.5L502.5 197.5Z" fill="#D6AB42"/>
<path d="M381 319L383 354L374 438.5L428.5 440.5L429.819 335L430 320.5L381 319Z" fill="#F1B63C"/>
<path d="M396.545 213L386 227.5L364 254.5L331.946 258.236L282.5 264V286L373.5 292L377.806 307.5L447.5 234.071L439.5 233.5L396.545 213Z" fill="#9CA958"/>
<path d="M195 140L171 212.5L232 185.5L256.5 140L286.5 144.5L316.5 112.5H365L401 77.5L445 96L485.5 85.5L548 127.5L575.5 116.5L677.5 194.5L665.5 148L629.5 126.5L619.5 92.5L578 69.5L552 73L533.5 43.5L433 28.5L414.5 47.5L332 37.5L302.5 69.5L258 73L230.5 119L195 140Z" fill="#053E3D"/>
<path d="M189.5 265.5L183 284.5L222.251 342L240 368L243.635 330L243.97 326.5L251 253L282.5 224.321L284.5 222.5L330.5 243L377 219.86L373.041 216.5L335.5 212.5L343 191L373.041 216.5L377 219.86L386 227.5L396.545 213L410 194.5L429.5 208.5H475L496.5 173.5L502.5 197.5L503 199.5L536.154 213L586.5 233.5L616.5 281.5V368L650 335.471L651 334.5L690.5 281.5L677.5 250L694 216.5L677.5 194.5L575.5 116.5L548 127.5L485.5 85.5L445 96L401 77.5L365 112.5H316.5L286.5 144.5L256.5 140L232 185.5L171 212.5L189.5 265.5Z" fill="#033331"/>
<path d="M282.5 224.321L251 253L243.97 326.5L282.5 286V264V224.321Z" fill="#084B44"/>
<path fill-rule="evenodd" clip-rule="evenodd" d="M331.946 258.236L330.5 243L284.5 222.5L282.5 224.321V264L331.946 258.236Z" fill="#4C8D5B"/>
<path d="M386 227.5L377 219.86L330.5 243L331.946 258.236L364 254.5L386 227.5Z" fill="#3A8357"/>
<path d="M343 191L335.5 212.5L373.041 216.5L343 191Z" fill="#287B5A"/>
<path d="M496.5 173.5L475 208.5H429.5L410 194.5L396.545 213L439.5 233.5L447.5 234.071L467.5 235.5L502.5 197.5L496.5 173.5Z" fill="#207756"/>
<path d="M282.5 286L243.97 326.5L243.635 330L278 317L381 319L377.806 307.5L373.5 292L282.5 286Z" fill="#033330"/>
<path d="M381 319L278 317L243.635 330L240 368L239.874 374L315 368.744L314.5 367.5L307.5 340L284 356L271 357L291.5 338L344.5 333L370.5 360.5L343.5 344L340.5 366.96L367.5 365.071L383 354L381 319Z" fill="#287B5A"/>
<path d="M284 356L307.5 340L314.5 367.5L315 368.744L340.5 366.96L343.5 344L370.5 360.5L344.5 333L291.5 338L271 357L284 356Z" fill="#04493E"/>
<path d="M539.5 287L451.5 290L431.41 318.5L541 315.5L575 330L585 332L539.5 287Z" fill="#043430"/>
<path d="M539.5 287L585 332L593 320.5L594.5 315.5L586.5 233.5L536.154 213L539.5 287Z" fill="#719A5A"/>
<path d="M616.5 368V281.5L586.5 233.5L594.5 315.5L608.5 375L616.5 368Z" fill="#094C45"/>
<path d="M454 367.5L454.209 370.5L454.349 372.5L516 432.5L560.5 368.5L513 368.054L488.648 367.825L454 367.5Z" fill="#7F9750"/>
<path d="M585 332L575 330L541 315.5L431.41 318.5L430 320.5L429.819 335L454.209 370.5L454 367.5L488.648 367.825L486 341L451.5 359L478 332L533.5 337L553 357.5L521.5 344L514.5 365.5L513 368.054L560.5 368.5L585 332Z" fill="#538E5A"/>
<path d="M451.5 359L486 341L488.648 367.825L513 368.054L514.5 365.5L521.5 344L553 357.5L533.5 337L478 332L451.5 359Z" fill="#06483F"/>
<path d="M608.5 375L594.5 315.5L593 320.5L585 332L560.5 368.5L516 432.5L551.038 474.847L607.348 381.5L608.5 375Z" fill="#BDA94B"/>
<path d="M442.5 474L506 505.5L529.432 539.5L542.5 489L551.038 474.847L516 432.5L454.349 372.5L459.093 440.5L460 453.5L457.5 455.5L442.5 474Z" fill="#CCAE47"/>
<path d="M531.5 542.5L587.5 493.5L607.348 381.5L551.038 474.847L542.5 489L529.432 539.5L531.5 542.5Z" fill="#759250"/>
<path d="M616.5 405V368L608.5 375L607.348 381.5L587.5 493.5L531.5 542.5L554 593L603.5 535L607.9 491L609.85 471.5L616.5 405Z" fill="#0D614D"/>
<path d="M616.5 368V405L609.85 471.5L613 456.5L643 423.5L620.5 395L664.5 347.36L650 335.471L616.5 368Z" fill="#A9A147"/>
<path d="M669 401.5L666.5 349L664.5 347.36L620.5 395L643 423.5L613 456.5L609.85 471.5L607.9 491L624 483L642.5 467L669 401.5Z" fill="#7F9650"/>
<path d="M429.819 335L428.5 440.5H459.093L454.349 372.5L454.209 370.5L429.819 335Z" fill="#879F55"/>
<path d="M364.345 372.5L365.5 366.5L367.5 365.071L340.5 366.96L315 368.744L239.874 374L239.379 397.5L285.781 457.077L286.5 458L364.345 372.5Z" fill="#749450"/>
<path d="M240 368L222.251 342L209.5 343.5L196.5 387.5L216 447.5L246.353 487.5L239 415.5L239.379 397.5L239.874 374L240 368Z" fill="#378255"/>
<path d="M258.5 491L292 523L295 519.464V509L285.781 457.077L239.379 397.5L239 415.5L258.5 491Z" fill="#4F8B5A"/>
<path d="M347.5 460L364.345 372.5L286.5 458L285.781 457.077L295 509V519.464L297.939 516L299.5 510L347.5 460Z" fill="#9BA350"/>
<path d="M402.522 471.993L383.5 455.5L359.5 459L360.5 468L368.5 474.582L402.522 471.993Z" fill="#0E624F"/>
<path fill-rule="evenodd" clip-rule="evenodd" d="M374 438.5L383 354L367.5 365.071L365.5 366.5L364.345 372.5L347.5 460L363 475L368.5 474.582L360.5 468L359.5 459L383.5 455.5L402.522 471.993L409 471.5L421.5 456.5L457.5 455.5L460 453.5L459.093 440.5H428.5V443.5L407 469L374 438.5Z" fill="#388152"/>
<path d="M409 471.5L442.5 474L457.5 455.5L421.5 456.5L409 471.5Z" fill="#0A5B47"/>
<path d="M428.5 440.5L374 438.5L407 469L428.5 443.5V440.5Z" fill="#659756"/>
<path d="M251 533L280 587L302.025 621L309 631.767L331.5 666.5L322.5 607L319.447 598.5L304 555.5L318.5 533L371.5 512.5H385.775L409 471.5L402.522 471.993L368.5 474.582L363 475L306 506.5L297.939 516L295 519.464L292 523L258.5 491L239 415.5L246.353 487.5L251 533Z" fill="#084138"/>
<path d="M306 506.5L363 475L347.5 460L299.5 510L297.939 516L306 506.5Z" fill="#749554"/>
<path d="M496 535L423.5 512.5H385.775H371.5L318.5 533L371.5 536H423.5L496 535Z" fill="#24734A"/>
<path d="M442.5 474L409 471.5L385.775 512.5H423.5L442.5 474Z" fill="#0C5040"/>
<path d="M423.5 512.5L496 535L506 505.5L442.5 474L423.5 512.5Z" fill="#094C3E"/>
<path d="M554 593L531.5 542.5L529.432 539.5L506 505.5L496 535L510.5 554.5L486.5 603L483.5 604.317L505.096 641.904L554 593Z" fill="#115646"/>
<path d="M480 666.5L504.5 642.5L505.096 641.904L483.5 604.317L445.5 621L423.5 670.5L480 666.5Z" fill="#07483B"/>
<path d="M371.5 670.5H423.5L445.5 621H356.5L371.5 670.5Z" fill="#0E543D"/>
<path d="M354.5 621L322.5 607L331.5 666.5L367 670.05L371.5 670.5L356.5 621H354.5Z" fill="#0C4E3E"/>
<path d="M322.5 607L354.5 621H356.5H445.5L411.5 586.432L365.5 585.5H348.5L319.447 598.5L322.5 607Z" fill="#739955"/>
<path d="M318.5 533L304 555.5L319.447 598.5L348.5 585.5H365.5L361 560L318.5 533Z" fill="#5E9057"/>
<path d="M371.5 536L318.5 533L361 560H445.5L496 535L423.5 536H371.5Z" fill="#72904E"/>
<path d="M439.5 587C441.5 578.667 445.5 561.6 445.5 560H361L365.5 585.5L411.5 586.432L439.5 587Z" fill="#0F644D"/>
<path d="M486.5 603L510.5 554.5L496 535L445.5 560C445.5 561.6 441.5 578.667 439.5 587L486.5 603Z" fill="#91A457"/>
<path d="M486.5 603L439.5 587L411.5 586.432L445.5 621L483.5 604.317L486.5 603Z" fill="#979C4B"/>
<path d="M480 666.5L423.5 670.5H371.5L367 670.05L402.5 744L480 666.5Z" fill="#1C7054"/>
<path d="M603.5 535L554 593L505.096 641.904L504.5 642.5L480 666.5L402.5 744L367 670.05L331.5 666.5L309 631.767V662L312.5 757.5L400.5 855L411.5 849.893C411.5 849.893 473.937 756.118 511.5 694.5C548.929 633.102 603.5 535 603.5 535Z" fill="#317C50"/>
<path d="M514.817 771.5L591.5 640.5L601.168 555.5L603.5 535C603.5 535 548.929 633.102 511.5 694.5C473.937 756.118 411.5 849.893 411.5 849.893L456.5 829L514.817 771.5Z" fill="#80924C"/>
<path d="M591.5 640.5L514.817 771.5L423.5 927.5L531.5 849.893L537 842.946L542.5 836V808L552.5 791L680.5 836L674.922 686.5L674.679 680L673.368 644.853L673 635L601.168 555.5L591.5 640.5Z" fill="#E3C56A"/>
<path d="M680.5 836L552.5 791L542.5 808V836L658 858.5L680.5 836Z" fill="#4A8C59"/>
<path d="M472.5 945C484.102 945 495.607 944.582 507 943.76L537 858.5V842.946L531.5 849.893L423.5 927.5L422 942.333C438.592 944.096 455.44 945 472.5 945Z" fill="#7DA160"/>
<path d="M422 942.333L423.5 927.5L514.817 771.5L456.5 829L411.5 849.893L400.5 855L379.5 867V935.85C393.455 938.636 407.631 940.806 422 942.333Z" fill="#074B3E"/>
<path d="M284.5 771.5L338.5 889L358.5 931.156C365.441 932.875 372.442 934.441 379.5 935.85V867L400.5 855L312.5 757.5L309 662L284.5 771.5Z" fill="#043932"/>
<path d="M338.5 889L242.5 784.5L230 788.152L224 839L324 921.193C335.317 924.936 346.823 928.263 358.5 931.156L338.5 889Z" fill="#DFC067"/>
<path d="M302.025 621L280 649L266.989 666.5L165.5 803L198 797.5L230 788.152L242.5 784.5L338.5 889L284.5 771.5L309 662V631.767L302.025 621Z" fill="#709959"/>
<path d="M198 797.5L165.5 803L266.989 666.5L87.3534 746.277C145.044 827.289 227.655 889.323 324 921.193L224 839L230 788.152L198 797.5Z" fill="#4A8B59"/>
<path d="M507 943.76C643.843 933.885 764.538 865.733 844.391 764L674.922 686.5L680.5 836L658 858.5L542.5 836L537 842.946V858.5L507 943.76Z" fill="#C9B156"/>
<path d="M844.391 764C847.364 760.213 850.28 756.379 853.138 752.5L674.679 680L674.922 686.5L844.391 764Z" fill="#94A465"/>
<path d="M853.138 752.5C860.651 742.305 867.763 731.797 874.452 721L693 652.288L673.368 644.853L674.679 680L853.138 752.5Z" fill="#C8B056"/>
<path fill-rule="evenodd" clip-rule="evenodd" d="M693 652.288L874.452 721C917.869 650.922 943.47 568.648 944.934 480.5H693V652.288ZM727 542V524H878V542H727ZM727 584V566.5H845V584H727Z" fill="#84BABF"/>
<path d="M472.5 0C211.545 0 0 211.545 0 472.5C0 574.547 32.3497 669.037 87.3534 746.277L266.989 666.5L280 649L302.025 621L280 587L251 533L246.353 487.5L216 447.5L196.5 387.5L209.5 343.5L222.251 342L183 284.5L189.5 265.5L171 212.5L195 140L230.5 119L258 73L302.5 69.5L332 37.5L414.5 47.5L433 28.5L533.5 43.5L552 73L578 69.5L619.5 92.5L629.5 126.5L665.5 148L677.5 194.5L694 216.5L677.5 250L690.5 281.5L651 334.5L650 335.471L664.5 347.36L666.5 349L669 401.5L642.5 467L624 483L607.9 491L603.5 535L601.168 555.5L673 635L673.368 644.853L693 652.288V480.5H944.934C944.978 477.839 945 475.172 945 472.5C945 211.545 733.455 0 472.5 0Z" fill="#E0EDE9"/>
<path d="M727 566.5V584H845V566.5H727Z" fill="#E0EDE9"/>
<path d="M727 524V542H878V524H727Z" fill="#E0EDE9"/>
<path d="M85.2157 297.257L80.6643 275.844C80.6289 275.677 80.6501 275.502 80.7248 275.348C80.7994 275.194 80.9232 275.069 81.0766 274.992L100.262 265.438C100.38 265.379 100.512 265.351 100.644 265.358C100.776 265.364 100.905 265.405 101.017 265.475C101.129 265.545 101.221 265.643 101.284 265.76C101.348 265.876 101.38 266.006 101.379 266.139L101.205 280.332C101.204 280.464 101.236 280.594 101.299 280.71C101.362 280.826 101.454 280.924 101.566 280.995C101.678 281.065 101.806 281.105 101.938 281.112C102.07 281.119 102.201 281.092 102.32 281.033L107.824 278.315C107.953 278.25 108.098 278.223 108.242 278.237C108.386 278.251 108.523 278.305 108.637 278.393C108.752 278.481 108.84 278.599 108.891 278.734C108.942 278.87 108.953 279.017 108.925 279.158L101.474 316.684L101.301 317.229C101.266 317.351 101.199 317.462 101.108 317.551C101.017 317.641 100.905 317.705 100.782 317.738C100.351 317.857 99.8282 317.603 99.7924 317.044L98.9074 303.409C98.8988 303.276 98.8556 303.147 98.7821 303.035C98.7086 302.923 98.6073 302.832 98.4881 302.771C98.3689 302.71 98.236 302.681 98.1023 302.687C97.9685 302.693 97.8387 302.734 97.7254 302.805L94.529 304.823C94.4159 304.895 94.2861 304.936 94.1524 304.942C94.0186 304.949 93.8855 304.92 93.7662 304.86C93.6468 304.799 93.5452 304.708 93.4714 304.597C93.3976 304.485 93.3541 304.356 93.3452 304.222L92.7643 295.546C92.756 295.416 92.7152 295.291 92.6455 295.181C92.5759 295.072 92.4797 294.981 92.3659 294.919C92.2521 294.856 92.1243 294.823 91.9944 294.823C91.8645 294.823 91.7367 294.855 91.6227 294.918L86.3352 297.776C86.2296 297.833 86.1122 297.864 85.9924 297.868C85.8725 297.872 85.7534 297.847 85.6446 297.797C85.5357 297.747 85.4401 297.672 85.3652 297.578C85.2903 297.484 85.2383 297.375 85.2133 297.257L85.2157 297.257ZM116.357 267.937L102.536 274.588L102.476 279.545L107.263 277.181C107.633 276.995 108.052 276.927 108.461 276.987C108.871 277.047 109.253 277.232 109.554 277.516C109.809 277.752 109.998 278.049 110.104 278.378C110.211 278.708 110.23 279.06 110.162 279.399L102.708 316.928L102.693 316.997L102.672 317.063L102.503 317.608C102.403 317.931 102.223 318.224 101.981 318.46C101.739 318.696 101.441 318.867 101.115 318.958C100.819 319.038 100.509 319.051 100.208 318.998C99.906 318.944 99.6199 318.825 99.3696 318.648C99.1253 318.472 98.9232 318.244 98.7782 317.981C98.6332 317.717 98.5489 317.425 98.5315 317.124L97.7002 304.312L95.202 305.89C94.8601 306.105 94.4621 306.213 94.0584 306.202C93.6547 306.192 93.2632 306.061 92.9335 305.828C92.6875 305.654 92.4836 305.427 92.3365 305.164C92.1894 304.901 92.1028 304.609 92.0832 304.308L91.5538 296.39L86.9339 298.886C86.621 299.055 86.2695 299.138 85.9143 299.129C85.559 299.12 85.2124 299.018 84.9087 298.833C84.6727 298.689 84.4686 298.497 84.3088 298.271C84.1489 298.045 84.0366 297.789 83.9787 297.519L80.5256 281.268L61.5272 283.013C61.2344 283.04 60.9551 283.149 60.7223 283.329C60.4895 283.508 60.3128 283.751 60.213 284.027C60.1131 284.304 60.0942 284.603 60.1586 284.89C60.223 285.177 60.3679 285.439 60.5763 285.647L102.014 326.966C102.208 327.159 102.45 327.298 102.715 327.367C102.979 327.436 103.258 327.434 103.522 327.36C103.785 327.287 104.025 327.144 104.215 326.948C104.406 326.751 104.541 326.508 104.606 326.242L118.527 269.696C118.596 269.412 118.584 269.113 118.49 268.836C118.397 268.559 118.226 268.313 117.999 268.129C117.772 267.945 117.497 267.829 117.206 267.795C116.915 267.761 116.621 267.81 116.357 267.937Z" fill="#84BABF" fill-opacity="0.7"/>
<path d="M810.243 187.124C810.082 187.081 809.915 187.064 809.749 187.073C809.414 187.093 809.095 187.221 808.84 187.437L784.786 207.859C784.594 208.022 784.445 208.231 784.353 208.465C784.26 208.7 784.227 208.954 784.257 209.205C784.287 209.456 784.378 209.695 784.523 209.902C784.668 210.109 784.862 210.278 785.088 210.393L795.652 215.769L791.25 229.422C791.148 229.74 791.152 230.083 791.263 230.398C791.374 230.713 791.585 230.984 791.864 231.169C792.143 231.354 792.475 231.445 792.81 231.425C793.145 231.405 793.464 231.278 793.719 231.061L817.772 210.639C817.964 210.476 818.114 210.268 818.206 210.033C818.298 209.798 818.332 209.544 818.302 209.293C818.272 209.043 818.181 208.803 818.036 208.596C817.891 208.389 817.697 208.22 817.471 208.106L806.907 202.729L811.309 189.076C811.411 188.758 811.407 188.416 811.296 188.101C811.185 187.785 810.974 187.514 810.695 187.329C810.557 187.237 810.404 187.168 810.243 187.124ZM765.15 203.33C764.223 203.086 763.236 203.218 762.406 203.698C761.576 204.177 760.969 204.964 760.717 205.889C760.465 206.814 760.589 207.802 761.062 208.636L785.045 250.174C785.283 250.588 785.601 250.95 785.979 251.241C786.358 251.532 786.79 251.745 787.251 251.868C787.254 251.869 787.256 251.868 787.259 251.869C787.261 251.87 787.263 251.871 787.265 251.872C787.726 251.996 788.207 252.027 788.681 251.965C789.154 251.903 789.61 251.747 790.023 251.508L831.562 227.526C832.389 227.04 832.99 226.247 833.235 225.32C833.479 224.393 833.346 223.408 832.867 222.578C832.388 221.747 831.6 221.139 830.675 220.887C829.75 220.636 828.763 220.76 827.929 221.232L807.236 233.179C807.207 233.195 807.174 233.203 807.145 233.219L789.531 243.389L779.361 225.775C779.345 225.746 779.321 225.724 779.304 225.696L767.356 205.002C766.87 204.175 766.077 203.575 765.15 203.33Z" fill="#84BABF" fill-opacity="0.7"/>
<path opacity="0.7" d="M844.008 335.515C844.008 338.982 842.635 342.307 840.19 344.759C837.745 347.211 834.429 348.589 830.971 348.591C827.512 348.591 824.194 347.213 821.748 344.761C819.302 342.309 817.928 338.983 817.928 335.515C817.928 332.048 819.301 328.723 821.746 326.271C824.191 323.818 827.507 322.44 830.965 322.439C834.424 322.439 837.742 323.816 840.188 326.268C842.634 328.721 844.008 332.047 844.008 335.515ZM859.455 273C851.603 273 841.331 278.614 830.942 288.333C820.558 278.667 810.28 273.117 802.434 273.117C800.043 273.117 797.867 273.661 795.983 274.743C787.962 279.38 786.165 293.83 790.307 311.965C772.55 317.462 761 326.251 761 335.515C761 344.813 772.608 353.626 790.418 359.082C786.311 377.287 788.143 391.76 796.181 396.392C798.048 397.485 800.206 398 802.609 398C810.455 398 820.733 392.386 831.123 382.655C841.506 392.327 851.784 397.877 859.63 397.877C862.022 397.877 864.198 397.351 866.082 396.269C874.097 391.637 875.899 377.187 871.758 359.047C889.45 353.596 901 344.789 901 335.515C901 326.216 889.392 317.404 871.583 311.936C875.689 293.749 873.858 279.263 865.819 274.626C863.964 273.55 861.812 273.006 859.455 273ZM859.426 279.374V279.409C860.738 279.409 861.794 279.667 862.681 280.152C866.566 282.386 868.252 290.883 866.939 301.813C866.624 304.503 866.111 307.339 865.481 310.234C859.881 308.854 853.779 307.795 847.357 307.111C843.507 301.819 839.511 297.012 835.486 292.801C844.773 284.146 853.493 279.398 859.432 279.38L859.426 279.374ZM802.434 279.491C808.338 279.491 817.099 284.216 826.409 292.825C822.408 297.035 818.418 301.813 814.626 307.105C808.168 307.789 802.061 308.848 796.467 310.251C795.813 307.386 795.329 304.614 794.985 301.947C793.643 291.023 795.3 282.532 799.15 280.269C800.258 279.743 801.483 279.52 802.434 279.491ZM830.912 297.327C833.567 300.064 836.221 303.129 838.846 306.474C836.279 306.357 833.654 306.275 831 306.275C828.317 306.275 825.663 306.333 823.067 306.474C825.633 303.129 828.287 300.07 830.912 297.327ZM831 312.684C835.317 312.684 839.616 312.883 843.845 313.228C846.213 316.632 848.523 320.263 850.746 324.105C852.916 327.848 854.888 331.649 856.684 335.485C854.888 339.316 852.916 343.146 850.775 346.889C848.558 350.749 846.266 354.421 843.892 357.825C839.645 358.193 835.34 358.398 831 358.398C826.683 358.398 822.384 358.193 818.155 357.854C815.787 354.45 813.477 350.813 811.254 346.977C809.084 343.234 807.113 339.433 805.316 335.596C807.083 331.754 809.084 327.918 811.225 324.17C813.442 320.31 815.734 316.649 818.108 313.246C822.355 312.871 826.66 312.673 831 312.673V312.684ZM809.796 314.17C808.396 316.374 806.996 318.632 805.689 320.953C804.377 323.234 803.152 325.526 801.985 327.819C800.439 323.982 799.127 320.158 798.042 316.433C801.775 315.556 805.712 314.772 809.796 314.17ZM852.146 314.17C856.2 314.772 860.108 315.515 863.848 316.433C862.798 320.129 861.485 323.93 859.998 327.737C858.831 325.456 857.606 323.158 856.264 320.871C854.952 318.579 853.552 316.345 852.152 314.17H852.146ZM870.013 318.117C872.837 318.994 875.52 319.971 878.034 321.029C888.138 325.357 894.671 331.018 894.671 335.509C894.642 340 888.108 345.684 878.005 349.982C875.555 351.035 872.872 351.982 870.101 352.865C868.467 347.263 866.333 341.427 863.684 335.439C866.309 329.491 868.409 323.684 870.013 318.105V318.117ZM791.876 318.14C793.498 323.754 795.638 329.585 798.293 335.567C795.668 341.515 793.556 347.322 791.958 352.901C789.134 352.023 786.451 351.041 783.966 349.977C773.863 345.667 767.329 340 767.329 335.509C767.329 331.018 773.863 325.322 783.966 321.029C786.416 319.977 789.099 319.029 791.876 318.14ZM859.998 343.17C861.543 347.012 862.856 350.842 863.941 354.561C860.207 355.48 856.264 356.257 852.181 356.842C853.581 354.649 854.981 352.386 856.293 350.07C857.606 347.789 858.825 345.462 859.998 343.17ZM801.985 343.287C803.152 345.579 804.377 347.865 805.718 350.158C807.06 352.439 808.431 354.673 809.831 356.842C805.777 356.246 801.868 355.497 798.129 354.585C799.179 350.901 800.498 347.088 801.979 343.281L801.985 343.287ZM865.533 360.754C866.187 363.637 866.7 366.415 867.015 369.076C868.357 380 866.7 388.491 862.85 390.76C861.992 391.287 860.878 391.509 859.566 391.509C853.662 391.509 844.901 386.789 835.591 378.175C839.593 373.965 843.583 369.193 847.374 363.906C853.832 363.216 859.939 362.158 865.533 360.754ZM796.525 360.813C802.125 362.181 808.227 363.24 814.649 363.924C818.499 369.216 822.495 374.023 826.52 378.228C817.216 386.901 808.483 391.649 802.545 391.649C801.262 391.62 800.177 391.357 799.319 390.877C795.434 388.655 793.748 380.152 795.061 369.222C795.376 366.532 795.895 363.702 796.525 360.813ZM823.125 364.556C825.692 364.673 828.317 364.754 830.971 364.754C833.654 364.754 836.308 364.696 838.904 364.556C836.337 367.901 833.683 370.959 831.058 373.708C828.404 370.959 825.75 367.901 823.125 364.556Z" fill="#84BABF"/>
<path opacity="0.7" d="M783.388 605.168C770.058 604.857 761.571 611.327 757.928 624.579C763.082 618.031 768.972 615.667 775.598 617.489C779.379 618.528 782.03 621.349 784.971 624.477C789.757 629.565 795.292 635.454 807.68 635.744C821.01 636.055 829.497 629.585 833.141 616.333C827.986 622.881 822.096 625.244 815.47 623.423C811.689 622.384 809.038 619.563 806.098 616.435C801.315 611.347 795.78 605.458 783.388 605.168ZM757.694 634.576C744.364 634.264 735.877 640.735 732.234 653.986C737.388 647.438 743.278 645.075 749.904 646.897C753.685 647.936 756.336 650.757 759.277 653.885C764.063 658.973 769.598 664.862 781.986 665.152C795.316 665.463 803.803 658.993 807.447 645.741C802.292 652.289 796.402 654.652 789.776 652.83C785.995 651.792 783.344 648.971 780.404 645.843C775.621 640.755 770.086 634.865 757.694 634.576Z" fill="#E0EDE9"/>
<path opacity="0.7" d="M96.4036 617.05L121.821 621.816L110.193 644.915M137.977 631.166L156.5 622M126.213 700.585L209.565 659.337C213.25 657.514 216.057 654.298 217.369 650.395C218.681 646.493 218.391 642.225 216.562 638.53L179.79 564.222C177.961 560.526 174.744 557.707 170.846 556.383C166.947 555.06 162.688 555.34 159.003 557.164L75.6508 598.411C71.9664 600.235 69.1594 603.451 67.8471 607.353C66.5349 611.256 66.825 615.524 68.6536 619.219L105.426 693.527C107.255 697.222 110.472 700.042 114.37 701.366C118.269 702.689 122.528 702.409 126.213 700.585Z" stroke="#84BABF" stroke-width="8" stroke-linecap="round" stroke-linejoin="round"/>
<path opacity="0.7" d="M173.219 580.254L170.172 581.762C168.555 582.562 167.322 583.969 166.743 585.674C166.163 587.379 166.286 589.242 167.083 590.853L174.598 606.039C175.396 607.65 175.518 609.513 174.939 611.218C174.36 612.923 173.126 614.33 171.51 615.13C173.126 614.33 174.993 614.203 176.7 614.777C178.407 615.35 179.813 616.577 180.611 618.189L188.126 633.375C189.779 636.716 193.875 638.093 197.227 636.434L200.274 634.926" stroke="#84BABF" stroke-opacity="0.7" stroke-width="6" stroke-linecap="round" stroke-linejoin="round"/>
<path opacity="0.7" d="M224.473 622.951L227.52 621.443C229.137 620.643 230.37 619.236 230.949 617.531C231.529 615.826 231.406 613.963 230.609 612.352L223.094 597.165C221.44 593.824 222.83 589.734 226.182 588.075C224.566 588.875 222.699 589.002 220.992 588.428C219.285 587.855 217.879 586.627 217.081 585.016L209.566 569.829C208.769 568.218 207.362 566.991 205.655 566.417C203.949 565.844 202.082 565.971 200.465 566.771L197.418 568.279" stroke="#84BABF" stroke-width="8" stroke-linecap="round" stroke-linejoin="round"/>
<path opacity="0.7" d="M108.184 228.82C108.431 229.661 108.792 230.464 109.257 231.207C109.861 232.234 111.431 233.603 112.736 234.3C114.919 235.422 115.757 235.516 119.394 235.16C121.177 234.967 124.598 231.793 125.281 229.683C126 227.505 125.968 224.749 125.204 220.714C124.111 214.823 125.511 212.608 131.734 210.717C137.224 209.049 139.165 210.136 141.707 216.223C144.46 222.82 148.157 225.498 153.496 224.682C156.738 224.158 160.016 220.915 160.469 217.664C161.56 210.247 155.864 205.345 147.515 206.502C142.14 207.216 140.215 206.011 138.13 200.652C135.676 194.483 132.521 191.866 127.72 192.001C123.316 192.128 119.489 195.826 119.109 200.265C119.006 201.446 119.217 204.034 119.584 206C120.757 212.154 120.169 214.004 116.511 215.808C111.453 218.325 110.667 218.964 109.14 221.505C108.476 222.589 108.048 223.801 107.883 225.061C107.719 226.321 107.821 227.602 108.184 228.82ZM131.362 242.616C131.55 243.285 131.816 243.931 132.155 244.539C135.202 250.01 142.96 250.706 146.926 245.93C152.572 239.085 145.948 229.052 137.425 231.528C132.655 232.925 130.069 238.031 131.362 242.616ZM155.111 258.236C155.299 258.805 155.542 259.354 155.836 259.875C160.348 267.902 173.001 264.402 172.637 255.232C172.573 252.944 172.51 252.737 171.343 250.787C168.633 246.424 163.278 245.112 159.073 247.77C155.344 250.114 153.825 254.346 155.111 258.236ZM131.131 179.193C131.422 180.12 131.94 181.025 132.727 182.123C136.312 187.087 143.327 187.028 147.214 181.989C149.704 178.807 149.058 172.894 145.855 170.122C140.655 165.535 132.017 168.39 131.033 175.03C130.752 176.77 130.756 178.001 131.131 179.193Z" fill="#84BABF"/>
<path opacity="0.7" d="M847 448.435V441.634L871.224 431.5L873.206 438.097L855.781 445.068L873.411 452.039L871.258 458.5L847 448.435ZM902.931 451.937L920.629 445.136L902.999 438.029L905.22 431.636L929 441.429V448.639L905.083 458.602L902.931 451.937ZM893.193 418H901.667L882.977 472H874.504L893.193 418Z" fill="#84BABF"/>
<path opacity="0.7" d="M141.317 320.072C136.431 343.405 144.572 355.534 144.572 358.747C144.95 360.725 144.926 363.28 144.86 365.477C145.855 363.664 146.256 362.977 148.895 361.898C152.615 361.007 172.093 355.642 184.227 332.153C195.546 310.243 184.408 289.002 182.845 286.229L182.667 285.919C183.829 282.09 185.067 278.284 186.379 274.503L184.556 273.669C182.335 277.381 179.915 280.966 177.301 284.416C175.208 284.815 174.21 285.123 172.879 285.568C166.597 287.631 160.817 290.99 155.914 295.427C151.011 299.864 147.094 305.281 144.416 311.327C142.967 314.393 141.925 317.802 141.317 320.072ZM175.743 298.275C175.743 298.275 161.367 329.687 160.327 329.207C159.52 328.837 177.014 287.836 177.014 287.836C178.38 288.667 176.861 295.831 175.743 298.275Z" fill="#84BABF"/>
<path opacity="0.7" d="M113.56 526.396C114.526 523.867 114.631 521.09 113.859 518.499C113.086 515.908 111.48 513.649 109.291 512.074L132.64 483.916L78.4923 463.126L76.9863 499.788C74.3553 499.572 71.723 500.218 69.484 501.628C67.245 503.038 65.5198 505.137 64.5671 507.61C63.0964 511.441 63.6951 515.564 65.7927 518.767C63.992 519.971 62.0764 520.991 60.0746 521.813C56.3786 523.361 52.4275 524.198 48.4272 524.281C46.1712 521.043 46.2512 516.889 48.6983 514.078C51.6034 514.265 54.4823 513.403 56.8138 511.647C59.1453 509.89 60.7755 507.357 61.4093 504.504C62.0432 501.652 61.6388 498.669 60.2694 496.095C58.9 493.521 56.656 491.527 53.9436 490.473C50.9241 489.318 47.5679 489.413 44.6109 490.736C41.654 492.06 39.3378 494.505 38.1702 497.534C36.9745 500.648 37.1464 503.992 38.3957 506.815C38.0834 507.104 37.766 507.395 37.4402 507.708C34.3875 510.577 30.9282 513.816 28.4749 517.998C23.5719 526.363 23.2331 534.458 27.4967 540.752C29.7907 544.193 33.095 546.833 36.9535 548.306C43.6346 550.871 51.7112 550.108 59.5229 549.357C65.0912 548.832 70.8489 548.262 76.0504 548.911C77.9721 549.151 79.8979 549.6 81.9373 550.059C86.0659 550.999 90.3309 551.967 94.7772 551.239C97.3092 550.841 99.7255 549.894 101.857 548.462C103.988 547.031 105.783 545.15 107.115 542.951C109.153 539.545 109.927 535.629 109.538 531.788C111.305 530.444 112.706 528.618 113.56 526.396ZM108.604 524.494C107.244 528.038 103.266 529.818 99.7373 528.463C98.4099 527.949 97.2756 527.034 96.4915 525.843C95.7073 524.653 95.3121 523.246 95.3604 521.818C95.4087 520.39 95.8983 519.011 96.7612 517.872C97.6242 516.733 98.818 515.89 100.177 515.46L100.213 515.444C100.477 515.369 100.763 515.301 101.047 515.238C101.047 515.238 101.077 515.249 101.086 515.223C101.209 515.211 101.337 515.172 101.461 515.156C101.486 515.166 101.52 515.154 101.546 515.164C101.668 515.152 101.816 515.149 101.96 515.146C102.107 515.143 102.254 515.145 102.376 515.133C102.401 515.143 102.433 515.125 102.459 515.135C102.571 515.149 102.693 515.137 102.806 515.15C102.831 515.16 102.889 515.153 102.918 515.164C103.052 515.186 103.164 515.2 103.301 515.227L103.326 515.236L103.738 515.302C103.763 515.312 103.811 515.33 103.85 515.315C103.952 515.355 104.061 515.367 104.163 515.406L104.291 515.455C104.419 515.504 104.557 515.528 104.707 515.585L105.036 515.712C105.139 515.751 105.219 515.782 105.308 515.846L105.359 515.865C105.55 515.968 105.745 516.073 105.93 516.203C107.254 517.067 108.241 518.361 108.728 519.868C109.215 521.376 109.17 523.011 108.604 524.494ZM83.623 470.953L123.593 486.3L103.983 509.952C103.575 509.879 103.145 509.862 102.715 509.844L100.654 486.362L83.4272 502.291C83.0949 502.02 82.7149 501.786 82.3386 501.553L83.623 470.953ZM87.9368 514.009C88.3737 511.474 87.9961 508.867 86.8585 506.566L96.2119 497.921L97.3381 510.856C95.1593 511.831 93.2392 513.411 91.9008 515.531L87.9368 514.009ZM76.7554 505.089C76.8896 505.111 77.0018 505.125 77.1383 505.152L77.2114 505.18C77.3288 505.191 77.4275 505.229 77.5398 505.243L77.6421 505.282C77.7445 505.321 77.8312 505.325 77.9299 505.363L78.921 505.743C79.0233 505.783 79.0903 505.838 79.1671 505.867C79.2183 505.887 79.2402 505.896 79.2852 505.942C79.3741 506.006 79.4508 506.035 79.5434 506.1C79.569 506.11 79.5946 506.12 79.6359 506.165L79.9624 506.375L79.988 506.385C80.0791 506.454 80.1716 506.519 80.2506 506.608C80.2762 506.618 80.292 506.653 80.3432 506.673C80.4101 506.728 80.5026 506.793 80.5611 506.87C80.5867 506.88 80.6024 506.916 80.6243 506.924C80.707 507.015 80.7995 507.08 80.8822 507.171L80.9078 507.181C81.0081 507.27 81.0956 507.373 81.1678 507.487L81.1934 507.497C81.276 507.587 81.3502 507.7 81.4329 507.791C81.4585 507.801 81.4486 507.826 81.4706 507.835C81.5532 507.926 81.604 508.034 81.683 508.123L81.6988 508.158C81.9149 508.503 82.0977 508.868 82.2784 509.228L82.2941 509.263C82.9666 510.896 82.9847 512.728 82.3447 514.377C81.6482 516.024 80.342 517.336 78.702 518.037C77.0619 518.738 75.2163 518.773 73.5545 518.135C71.8928 517.497 70.545 516.236 69.7957 514.617C69.0463 512.999 68.954 511.149 69.5383 509.46C70.0834 508.029 71.0904 506.82 72.3986 506.028C73.7068 505.235 75.2407 504.905 76.7554 505.089ZM51.8187 495.308C55.3512 496.664 57.1136 500.653 55.7529 504.197C54.3922 507.74 50.4133 509.525 46.8844 508.17C43.3555 506.815 41.5844 502.827 42.9451 499.283C44.3058 495.739 48.2898 493.953 51.8187 495.308ZM102.429 540.128C101.514 541.65 100.275 542.951 98.8019 543.939C97.3288 544.927 95.6576 545.577 93.9072 545.844C90.5177 546.388 86.9171 545.591 83.1374 544.726C81.0228 544.211 78.8845 543.799 76.7298 543.492C70.945 542.766 64.8856 543.368 59.0156 543.925C51.507 544.64 44.4244 545.317 38.9135 543.201C36.0807 542.134 33.662 540.19 32.0066 537.65C27.9043 531.625 30.9741 524.461 33.1645 520.734C35.2064 517.241 38.2478 514.402 41.1596 511.681C41.3396 511.518 41.4855 511.368 41.6668 511.202C42.1437 511.621 42.6696 512 43.2408 512.337C40.1984 517.376 40.7964 524.014 45.0765 528.822L45.8459 529.703L47.0311 529.72C52.0856 529.845 57.1931 528.848 62.1507 526.799C64.8796 525.69 67.4663 524.255 69.8545 522.526C70.4015 522.85 70.9768 523.1 71.5619 523.325C74.0796 524.285 76.8456 524.382 79.4288 523.6C82.0119 522.818 84.2671 521.202 85.843 519.003L90.1105 520.642C89.8042 523.332 90.3966 526.046 91.7949 528.358C93.1932 530.669 95.3183 532.447 97.8366 533.414C99.943 534.222 102.121 534.385 104.184 534.039C104.109 536.201 103.548 538.274 102.429 540.128Z" fill="#84BABF" stroke="#84BABF" stroke-width="2"/>
<path opacity="0.7" d="M729.295 202.058C728.331 202.28 727.311 202.249 726.354 201.953L716.33 198.765C714.845 198.332 715.428 197.922 715.825 197.67C717.442 196.655 717.764 196.432 719.397 194.936C719.567 194.78 719.835 194.762 720.064 194.836L727.769 197.299C728.047 197.378 728.392 197.298 728.587 197.111L751.502 175.775C751.716 175.577 751.807 175.258 751.74 174.967L744.718 144.469C744.65 144.171 744.426 143.929 744.139 143.837L714.216 134.678C713.94 134.593 713.616 134.667 713.402 134.865L690.502 156.188C690.281 156.394 690.185 156.72 690.252 157.009L697.273 187.507C697.34 187.798 697.566 188.037 697.853 188.117L706.055 190.633C710.434 191.694 712.308 188.826 711.773 186.5L704.841 156.39C704.742 155.963 705.008 155.551 705.435 155.453L708.785 154.681C709.203 154.585 709.629 154.841 709.726 155.265L716.659 185.375C717.866 190.619 715.703 194.281 710.733 195.425C709.207 195.776 708.002 196.054 704.264 195.171L696.411 192.78C694.471 192.186 692.987 190.578 692.532 188.598L685.51 158.1C685.054 156.12 685.689 154.025 687.172 152.646L710.083 131.292C711.538 129.96 713.759 129.449 715.635 130.013L745.574 139.2C747.515 139.794 749.004 141.397 749.46 143.377L756.481 173.875C756.937 175.855 756.298 177.945 754.814 179.334L731.904 200.676C731.175 201.359 730.275 201.832 729.295 202.058ZM743.709 167.077C742.395 161.368 738.187 160.736 729.818 161.533C721.362 162.338 720.398 161.968 719.956 160.048C719.59 158.461 719.809 156.181 725.887 154.781C731.317 153.531 733.587 154.239 735.253 157.709C735.405 158.038 735.778 158.218 736.133 158.136L739.561 157.347C739.775 157.298 739.954 157.159 740.064 156.975C740.171 156.78 740.201 156.554 740.13 156.34C738.147 150.158 733.281 148.184 724.817 150.133C717.281 151.868 713.518 156.082 714.746 161.415C716.078 167.199 720.917 167.768 728.314 166.818C737.162 165.673 738.124 166.784 738.515 168.485C739.195 171.438 737.114 173.243 731.547 174.525C724.555 176.135 722.612 174.734 721.294 171.374C721.148 171.015 720.767 170.815 720.385 170.903L716.969 171.689C716.545 171.787 716.283 172.201 716.381 172.625C717.406 177.078 721.05 181.827 732.615 179.164C740.993 177.239 745.035 172.837 743.709 167.077Z" fill="#84BABF"/>
<path d="M619.047 496C617.36 496 616 497.36 616 499.047V557.953C616 559.64 617.36 561 619.047 561H677.953C679.64 561 681 559.64 681 557.953V499.047C681 497.36 679.64 496 677.953 496H619.047ZM666.072 522.406C667.729 522.406 669.197 522.506 670.478 522.707C671.686 522.888 672.872 523.197 674.015 523.628V530.285C673.466 529.905 672.883 529.578 672.274 529.307C671.645 529.024 670.996 528.789 670.332 528.603C669.074 528.252 667.775 528.07 666.47 528.061C665.657 528.061 664.918 528.137 664.252 528.294C663.658 528.421 663.088 528.642 662.564 528.95C662.104 529.231 661.752 529.57 661.5 529.962C661.247 530.358 661.115 530.82 661.121 531.29C661.121 531.82 661.264 532.3 661.543 532.722C661.825 533.145 662.226 533.546 662.743 533.925C663.26 534.304 663.889 534.672 664.628 535.035C665.367 535.401 666.204 535.777 667.136 536.162C668.409 536.695 669.552 537.264 670.565 537.863C671.578 538.464 672.447 539.144 673.173 539.902C673.899 540.658 674.451 541.522 674.836 542.494C675.22 543.466 675.415 544.596 675.415 545.887C675.415 547.667 675.077 549.165 674.405 550.372C673.749 551.564 672.807 552.574 671.664 553.311C670.433 554.092 669.067 554.639 667.637 554.925C666.104 555.25 664.487 555.413 662.789 555.413C661.118 555.42 659.45 555.271 657.806 554.969C656.384 554.723 655.005 554.273 653.711 553.633V546.51C656.159 548.593 659.264 549.745 662.478 549.76C663.38 549.76 664.168 549.679 664.839 549.517C665.514 549.354 666.074 549.127 666.527 548.84C666.976 548.547 667.312 548.206 667.537 547.81C667.785 547.35 667.898 546.829 667.863 546.307C667.827 545.785 667.645 545.284 667.336 544.861C666.934 544.329 666.442 543.87 665.882 543.507C665.188 543.047 664.457 542.644 663.696 542.304C662.795 541.893 661.886 541.499 660.969 541.124C658.483 540.086 656.63 538.816 655.409 537.318C654.19 535.821 653.578 534.009 653.578 531.888C653.578 530.225 653.911 528.798 654.578 527.604C655.244 526.409 656.148 525.426 657.297 524.654C658.511 523.853 659.86 523.276 661.278 522.951C662.849 522.58 664.458 522.398 666.072 522.406ZM625.141 522.915H651.04V528.782H641.745V554.906H634.387V528.782H625.141V522.915Z" fill="#84BABF" fill-opacity="0.7"/>
<path d="M31 374.504L95.835 354L116.339 418.835L51.5043 439.339L31 374.504ZM106.138 405.052C104.73 402.243 102.018 400.367 95.5709 399.856C93.2879 399.553 90.873 399.603 89.7424 398.312C89.2147 397.498 89.0231 397.023 89.0158 396.446C88.8692 394.573 90.77 393.395 92.5447 393.369C93.7008 393.36 94.9296 393.863 95.9502 394.966C98.166 392.257 98.166 392.257 99.7301 390.428C98.6419 389.524 98.1253 389.15 97.4807 388.821C95.1765 387.455 92.6024 387.199 88.9414 388.449L87.1129 389.292C85.4277 390.315 83.9955 391.838 83.352 393.468C81.3753 397.93 84.1864 403.727 88.7089 405.06C93.2678 406.649 98.8513 405.549 100.361 407.928C102.009 410.883 99.3309 412.845 96.2548 413.416C93.9101 413.623 92.3503 412.91 90.3723 411.306L86.3266 415.709C87.3039 416.826 88.1309 417.186 89.4622 418.013C95.663 421.27 107.337 417.311 107.166 409.431C107.168 409.163 107.212 407.321 105.956 404.91L106.138 405.052ZM75.681 393.154L69.6081 395.075C71.2638 400.31 72.885 405.521 74.5433 410.764C75.5958 414.093 76.7323 417.094 76.4866 418.206C76.1838 420.349 73.8123 420.838 72.6662 420.841C71.429 420.649 70.6553 420.092 69.6935 419.24C69.4336 419.01 69.2289 418.804 69.183 418.819L65.214 423.417C66.5761 424.859 68.2413 425.943 70.0867 426.384C72.8322 427.031 76.0771 426.496 79.0963 424.738C81.0185 423.459 82.4447 421.626 82.7832 419.379C83.3664 416.431 82.1007 413.444 80.997 410.001C79.2746 404.442 77.4865 398.901 75.718 393.309L75.681 393.154Z" fill="#84BABF" fill-opacity="0.7"/>
<path d="M165.425 473.268C164.665 472.282 164.293 471.052 164.377 469.81C164.462 468.568 164.999 467.4 165.885 466.527L177.759 450.901L179.402 448.66L158.16 441.167C156.992 440.954 155.941 440.323 155.204 439.392C154.467 438.46 154.095 437.292 154.156 436.106L181.225 445.852L196.513 424.492C197.244 425.472 197.615 426.674 197.563 427.895C197.511 429.117 197.041 430.283 196.23 431.198L184.29 447.283L203.115 454.091C204.267 454.314 205.297 454.952 206.009 455.884C206.721 456.816 207.066 457.977 206.978 459.147L197.293 455.602L184.378 450.74C184.111 450.577 183.813 450.472 183.502 450.433C183.192 450.393 182.877 450.42 182.577 450.511C182.278 450.602 182.001 450.755 181.765 450.96C181.529 451.166 181.339 451.419 181.208 451.703L165.412 473.237L165.425 473.268ZM164.537 389.935L171.562 389.264C185.766 388.969 195.769 402.318 190.803 415.1C187.89 422.587 181.625 426.138 173.957 428.143L163.614 394.096C149.913 397.656 144.709 409.904 152.677 421.122C154.021 422.925 155.79 424.366 157.828 425.317C159.865 426.268 162.107 426.699 164.352 426.571C166.676 426.586 167.37 427.563 167.365 429.745C164.672 430.2 161.912 430.038 159.292 429.272C156.671 428.505 154.259 427.155 152.236 425.322C149.086 422.235 146.994 418.232 146.257 413.885C145.52 409.537 146.176 405.068 148.132 401.116C150.63 397.037 154.393 393.888 158.848 392.147C159.598 391.92 160.222 391.451 160.842 391.075C162.07 390.685 163.3 390.303 164.532 389.929L164.537 389.935ZM166.541 393.252L175.895 424.043C185.648 420.871 190.726 412.566 188.282 404.289C185.617 395.059 176.813 390.55 166.579 393.216L166.541 393.252Z" fill="#84BABF" fill-opacity="0.7"/>
<path d="M680.664 104.873C682.947 104.676 684.714 102.659 684.601 100.25C684.478 97.8401 682.511 95.9051 680.115 95.9051H679.955C678.765 95.9477 677.642 96.4629 676.83 97.3374C676.019 98.2119 675.587 99.3741 675.629 100.569C675.708 101.831 676.222 102.859 676.926 103.608C674.175 108.981 670.046 112.93 663.788 116.249C659.58 118.458 655.136 119.291 650.81 118.7C647.193 118.186 644.363 116.565 642.63 113.958C640.037 110.006 639.801 105.743 641.961 101.478C643.536 98.3937 645.896 96.145 647.471 95.0378C646.995 93.7138 646.627 92.3535 646.368 90.9701C634.721 99.348 635.908 110.8 639.446 116.212C642.082 120.161 647.471 122.686 653.369 122.686C654.944 122.686 656.598 122.57 658.207 122.175C668.436 120.2 676.183 114.04 680.627 104.955L680.664 104.873ZM694.702 94.9982C688.612 87.8067 679.64 83.8576 669.413 83.8576H668.074C667.41 82.3972 665.877 81.4877 664.142 81.4877H664.024C661.549 81.4877 659.619 83.623 659.701 86.109C659.779 88.4763 661.785 90.4534 664.184 90.4534H664.378C665.229 90.4204 666.053 90.1421 666.751 89.6517C667.448 89.1614 667.991 88.4797 668.313 87.688H669.77C675.831 87.688 681.569 89.4649 686.801 92.9394C690.809 95.5888 693.683 99.0633 695.298 103.213C696.71 106.608 696.634 109.927 695.18 112.695C692.935 117.037 689.158 119.33 684.165 119.33C681.018 119.33 677.952 118.342 676.377 117.633C675.432 118.418 673.857 119.723 672.718 120.514C676.177 122.091 679.679 123 683.06 123C690.73 123 696.432 118.658 698.597 114.469C700.954 109.729 700.76 101.752 694.739 94.9192L694.702 94.9982ZM654.036 106.292C654.115 108.662 656.118 110.636 658.519 110.636H658.677C659.268 110.623 659.85 110.491 660.39 110.248C660.929 110.005 661.415 109.656 661.818 109.222C662.221 108.787 662.534 108.276 662.737 107.719C662.941 107.161 663.031 106.568 663.003 105.975C663.003 103.603 660.958 101.634 658.559 101.634H658.401C658.244 101.634 658.008 101.634 657.808 101.71C654.545 96.1793 653.167 90.2504 653.682 83.8576C653.997 79.0387 655.572 74.8497 658.399 71.3752C660.761 68.4121 665.205 66.9464 668.234 66.8726C676.729 66.7118 680.27 77.341 680.543 81.5668L684.475 82.7531C683.569 69.7935 675.55 63 667.88 63C660.677 63 654.036 68.254 651.358 75.9569C647.702 86.225 650.101 96.1028 654.587 104.004C654.193 104.518 653.957 105.424 654.036 106.292Z" fill="#84BABF" fill-opacity="0.7"/>
<path d="M225.908 485.532L182.952 485.102C180.478 485.08 178.453 487.064 178.422 489.542L178.341 498.45L189.655 498.564C190.554 496.81 192.368 495.621 194.461 495.644C196.574 495.663 198.376 496.913 199.223 498.689L210.123 498.802C211.006 497.032 212.837 495.826 214.94 495.847C217.893 495.875 220.255 498.285 220.223 501.238C220.194 504.186 217.788 506.544 214.841 506.514C212.627 506.488 210.732 505.114 209.954 503.202L199.777 503.126L213.017 516.635C213.556 516.456 214.137 516.361 214.734 516.365C217.673 516.411 220.03 518.817 220.009 521.748C219.984 524.699 217.561 527.073 214.608 527.042C211.66 527.012 209.307 524.611 209.336 521.663C209.348 520.921 209.496 520.224 209.765 519.595L196.395 505.954C195.761 506.206 195.067 506.355 194.339 506.341C192.105 506.319 190.217 504.934 189.443 502.985L178.299 502.847L177.993 532.295C177.978 534.765 179.965 536.792 182.435 536.827L225.39 537.252C227.866 537.277 229.891 535.292 229.916 532.816L230.345 490.059C230.374 487.583 228.388 485.557 225.908 485.532Z" fill="#84BABF" fill-opacity="0.7"/>
<path d="M727.447 387.425C706.489 381.665 684.805 394.135 678.997 415.268C674.349 432.18 681.275 449.508 694.955 458.704C696.752 459.585 697.773 458.593 698.052 457.576C698.302 456.667 698.932 454.251 699.793 451.057C688.607 450.466 688.427 442.412 688.427 442.412C687.915 437.52 685.745 435.655 685.745 435.655C682.962 432.338 686.65 433.403 686.65 433.403C690.385 434.718 691.377 438.942 691.377 438.942C693.151 445.723 699.112 445.544 701.55 445.161C702.571 442.78 704.012 441.361 705.359 440.703C697.198 437.43 689.248 431.706 693.278 417.043C694.426 412.865 696.834 409.857 700.004 407.847C699.843 406.764 699.632 402.521 703.12 397.81C703.12 397.81 706.579 397.656 712.473 404.599C715.742 404.582 719.082 405.047 722.311 405.914C725.53 406.82 728.639 408.127 731.44 409.812C740.007 406.844 742.902 408.744 742.902 408.744C743.492 414.575 741.142 418.114 740.497 418.976C742.179 422.32 742.711 426.136 741.563 430.313C737.523 445.015 727.766 445.815 719.068 444.436C720.08 445.949 720.667 448.635 719.682 452.219C718.275 457.341 717.097 461.442 716.755 462.685C716.479 463.69 716.814 465.068 718.863 465.22C735.419 464.371 750.221 453.005 754.862 436.119C760.671 414.985 748.395 393.183 727.447 387.425Z" fill="#84BABF" fill-opacity="0.7"/>
<path d="M697.626 252.768C695.062 253.812 693.84 256.714 694.884 259.278L716.767 313.002C717.812 315.565 720.714 316.788 723.278 315.744L777.002 293.86C779.565 292.816 780.788 289.914 779.744 287.35L757.86 233.626C756.816 231.063 753.914 229.84 751.35 230.884L697.626 252.768ZM712.15 263.136L748.479 248.397L763.244 284.712L754.154 288.415L743.084 261.162L734.015 264.855L745.082 292.085L726.906 299.489L712.15 263.136Z" fill="#84BABF" fill-opacity="0.7"/>
</svg>
