<svg width="200" height="200" viewBox="0 0 200 200" fill="none" xmlns="http://www.w3.org/2000/svg">
<path d="M176.82 88.1335C232.694 168.761 118.26 215.676 92.2337 177.514C66.2071 139.351 43.1119 199.977 17.6576 132.321C-20.8816 29.8868 80.706 23.2106 98.2399 61.5203C120.763 110.73 140.283 35.4093 176.82 88.1335Z" fill="#E0EDE9" fill-opacity="0.5"/>
<path fill-rule="evenodd" clip-rule="evenodd" d="M41.4281 159.684L24.5774 176.564C22.0789 179.066 19.1913 179.641 15.9148 178.287C12.6383 176.933 11 174.473 11 170.907V37.0081C11 32.4447 12.5262 28.6375 15.5786 25.5865C18.6309 22.5354 22.4316 21.0066 26.9804 21H173.029C177.578 21 181.379 22.5288 184.431 25.5865C187.484 28.6441 189.007 32.4513 189 37.0081V143.686C189 148.242 187.477 152.05 184.431 155.107C181.386 158.165 177.585 159.69 173.029 159.684H41.4281ZM63.0749 126.162H52.4542C50.1666 126.162 48.2646 125.402 46.7483 123.884C45.232 122.365 44.4739 120.456 44.4739 118.158V107.519C44.4739 106.456 44.6585 105.465 45.0277 104.547C45.3968 103.622 46.01 102.731 46.867 101.872L96.8257 52.1246C97.8014 51.1472 98.8133 50.4802 99.8615 50.1236C100.916 49.7604 101.971 49.5788 103.026 49.5788C104.114 49.5788 105.218 49.7901 106.339 50.2127C107.446 50.6354 108.429 51.2727 109.286 52.1246L118.433 61.5353C119.244 62.5193 119.86 63.5264 120.282 64.5566C120.717 65.5934 120.931 66.6402 120.925 67.6968C120.918 68.7534 120.704 69.8167 120.282 70.8865C119.86 71.9564 119.224 72.98 118.374 73.9574L68.7116 123.755C67.8545 124.62 66.9645 125.237 66.0415 125.607C65.1252 125.977 64.1363 126.162 63.0749 126.162ZM150.592 126.162H98.1804L108.059 116.256H150.582C151.992 116.256 153.169 116.728 154.112 117.672C155.061 118.617 155.536 119.796 155.536 121.209C155.536 122.616 155.061 123.791 154.112 124.735C153.169 125.686 151.996 126.162 150.592 126.162Z" fill="#0D6F73"/>
<path fill-rule="evenodd" clip-rule="evenodd" d="M52.4542 126.162H63.0749C64.1363 126.162 65.1252 125.977 66.0415 125.607C66.9645 125.237 67.8545 124.62 68.7116 123.755L118.374 73.9574C119.224 72.98 119.86 71.9564 120.282 70.8865C120.704 69.8167 120.918 68.7534 120.925 67.6968C120.931 66.6402 120.717 65.5934 120.282 64.5566C119.86 63.5264 119.244 62.5193 118.433 61.5353L109.286 52.1246C108.429 51.2727 107.446 50.6354 106.339 50.2127C105.218 49.7901 104.114 49.5788 103.026 49.5788C101.971 49.5788 100.916 49.7604 99.8615 50.1236C98.8133 50.4802 97.8014 51.1472 96.8257 52.1246L46.867 101.872C46.01 102.731 45.3968 103.622 45.0277 104.547C44.6585 105.465 44.4739 106.456 44.4739 107.519V118.158C44.4739 120.456 45.232 122.365 46.7483 123.884C48.2646 125.402 50.1666 126.162 52.4542 126.162ZM93.5722 67.994L102.967 77.3551L112.173 67.9444L103.026 58.5338L93.5722 67.994Z" fill="#84BABF"/>
<path d="M98.1804 126.162H150.592C151.996 126.162 153.169 125.686 154.112 124.735C155.061 123.791 155.536 122.616 155.536 121.209C155.536 119.796 155.061 118.617 154.112 117.672C153.169 116.728 151.992 116.256 150.582 116.256H108.059L98.1804 126.162Z" fill="#E0EDE9"/>
<path d="M102.967 77.3551L93.5722 67.994L103.026 58.5338L112.173 67.9444L102.967 77.3551Z" fill="#0D6F73"/>
</svg>
