<svg width="450" height="450" viewBox="0 0 450 450" fill="none" xmlns="http://www.w3.org/2000/svg">
<circle cx="225" cy="225" r="225" fill="#0D6F73"/>
<path fill-rule="evenodd" clip-rule="evenodd" d="M93.0003 122.848C93.0004 119.658 132.072 119.393 132.072 122.848V228.916C132.072 235.031 140.312 264.007 166.094 264.007C191.876 264.007 200.647 254.702 200.647 254.702C200.647 254.702 187.623 237.157 187.623 204.194C187.623 156.344 224.708 118.527 271.348 117C321.989 118.527 358.402 158.668 357.997 204.194C357.615 246.993 335.404 265.867 335.404 265.867L354.276 293.624C354.276 293.624 355.605 295.641 354.276 297.502C353.207 298.999 351.618 299.097 351.618 299.097H319.191C318.659 299.097 309.356 286.603 309.356 286.603C309.356 286.603 284.372 301.755 268.424 319.3C261.274 327.167 261.037 330.748 258.571 338.706C258.262 339.703 257.968 340.128 257.793 340.301C257.252 340.833 255.932 340.833 255.932 340.833H223.771C223.771 340.833 222.482 340.833 222.176 340.567C221.973 340.39 221.563 339.966 221.586 338.44C221.656 333.812 222.688 323.118 229.884 312.123C239.453 297.502 249.819 291.388 249.819 291.388C249.819 291.388 242.211 290.17 237.592 288.197C232.973 286.225 226.163 281.286 226.163 281.286C226.163 281.286 207.292 302.553 166.094 302.553C124.896 302.553 93.0003 264.007 93.0003 228.916C93.0003 187.494 92.9996 145.178 93.0003 122.848ZM221.91 204.194C221.91 175.84 242.642 151.027 271.348 151.027C300.854 151.027 325.038 174.952 325.038 204.194C325.038 216.028 321.537 227.209 315.47 236.46C315.47 236.46 310.383 229.095 306.699 224.663C303.014 220.231 296.598 213.764 296.598 213.764H267.893C267.361 213.764 265.713 214.03 265.235 216.422C264.756 218.815 265.766 220.144 265.766 220.144L290.485 257.153C284.585 259.515 278.147 260.816 271.348 260.816C242.642 260.816 221.91 233.967 221.91 204.194Z" fill="#E0EDE9"/>
<path d="M239.453 354.922C250.314 354.851 258.571 361.834 258.571 375.125C258.571 385.618 249.943 394.068 239.453 394C229.031 393.932 220.581 386.822 220.581 375.125C220.581 362.099 228.657 354.992 239.453 354.922Z" fill="#84BABF"/>
</svg>
