<svg width="200" height="200" viewBox="0 0 200 200" fill="none" xmlns="http://www.w3.org/2000/svg">
<path d="M178.654 75.4522C235.139 156.614 119.454 203.839 93.1434 165.424C66.8324 127.009 43.4847 188.036 17.7522 119.933C-21.2082 16.8199 81.4897 10.0994 99.2152 48.6628C121.984 98.1984 141.717 22.3789 178.654 75.4522Z" fill="#E0EDE9" fill-opacity="0.5"/>
<path d="M36.8333 100.167H60.5832V64.5418C60.5832 55.6197 57.0207 52.6668 48.7082 52.6668C40.3958 52.6668 36.8333 55.6197 36.8333 64.5418V100.167Z" fill="#84BABF"/>
<path d="M60.5832 100.167H84.3331V64.5418C84.3331 55.6197 80.7706 52.6668 72.4581 52.6668C64.1457 52.6668 60.5832 55.6197 60.5832 64.5418V100.167Z" fill="#84BABF"/>
<path d="M163.499 100.167H148.917H100.166V108.083C100.166 123.014 100.166 130.471 104.805 135.111C109.445 139.75 116.902 139.75 131.833 139.75H163.499V100.167Z" fill="#84BABF"/>
<path d="M124.233 25.7423C121.389 23.0866 117.643 21.6096 113.751 21.6096C109.86 21.6096 106.114 23.0866 103.27 25.7423C99.9922 28.8536 98.7414 32.4319 102.359 35.8756L113.569 46.5473C117.179 49.9831 120.924 48.8431 124.233 45.6923C125.604 44.4178 126.698 42.8742 127.446 41.1579C128.195 39.4416 128.581 37.5895 128.581 35.7173C128.581 33.8451 128.195 31.9929 127.446 30.2766C126.698 28.5604 125.604 27.0168 124.233 25.7423Z" fill="#84BABF"/>
<path d="M179.333 100.167H21M36.8333 100.167V179.333M36.8333 100.167V64.5418C36.8333 55.6197 40.3958 52.6668 48.7082 52.6668C57.0207 52.6668 60.5832 55.6197 60.5832 64.5418M36.8333 100.167H60.5832M163.499 100.167V179.333M163.499 100.167H148.917M163.499 100.167V139.75H131.833C116.902 139.75 109.445 139.75 104.805 135.111C100.166 130.471 100.166 123.014 100.166 108.083V100.167H148.917M124.233 25.7423C121.389 23.0866 117.643 21.6096 113.751 21.6096C109.86 21.6096 106.114 23.0866 103.27 25.7423C99.9922 28.8536 98.7414 32.4319 102.359 35.8756L113.569 46.5473C117.179 49.9831 120.924 48.8431 124.233 45.6923C125.604 44.4178 126.698 42.8742 127.446 41.1579C128.195 39.4416 128.581 37.5895 128.581 35.7173C128.581 33.8451 128.195 31.9929 127.446 30.2766C126.698 28.5604 125.604 27.0168 124.233 25.7423ZM124.233 25.7423C128.16 23.1615 132.569 19.5594 137.47 21.6019C139.765 22.5678 141.349 24.919 144.507 29.6215L156.367 47.2993C160.839 53.9651 163.072 57.298 163.444 61.0743C163.816 64.8426 162.272 68.5159 159.177 75.8388L148.917 100.167M60.5832 64.5418V100.167M60.5832 64.5418C60.5832 55.6197 64.1457 52.6668 72.4581 52.6668C80.7706 52.6668 84.3331 55.6197 84.3331 64.5418V100.167H60.5832" stroke="#0D6F73" stroke-width="18" stroke-linecap="round" stroke-linejoin="round"/>
<path d="M155.266 108.717H127.241H104.916C104.916 123.648 104.077 127.353 108.716 131.992C113.355 136.631 118.01 136.267 132.941 136.267H155.266V108.717Z" fill="#84BABF"/>
<path d="M124.233 25.7421C121.389 23.0864 117.642 21.6094 113.751 21.6094C109.86 21.6094 106.114 23.0864 103.27 25.7421C99.9921 28.8534 98.7413 32.4317 102.359 35.8754L113.569 46.5471C117.179 49.9829 120.924 48.8429 124.233 45.6921C125.604 44.4176 126.698 42.874 127.446 41.1577C128.194 39.4415 128.581 37.5893 128.581 35.7171C128.581 33.8449 128.194 31.9927 127.446 30.2764C126.698 28.5602 125.604 27.0166 124.233 25.7421Z" fill="#E0EDE9"/>
<path d="M37.9414 91.6169V61.6916C37.9414 52.7695 45.5414 53.142 46.4914 53.142C47.4414 53.142 55.5163 52.7695 55.5163 61.6916V91.6169H37.9414Z" fill="#84BABF"/>
<path d="M74.5766 53.142C75.4663 53.142 83.6016 52.7695 83.6016 61.6916V91.6169H65.0766V61.6916C65.0766 52.667 73.687 53.142 74.5766 53.142Z" fill="#E0EDE9"/>
</svg>
