<svg width="200" height="200" viewBox="0 0 200 200" fill="none" xmlns="http://www.w3.org/2000/svg">
<path fill-rule="evenodd" clip-rule="evenodd" d="M160.104 39.8959C144.163 23.9553 122.543 15 100 15C77.4566 15 55.8365 23.9553 39.8959 39.8959C23.9553 55.8365 15 77.4566 15 100C15 122.543 23.9553 144.163 39.8959 160.104C55.8365 176.045 77.4566 185 100 185C121.744 163.153 133.898 145.122 145.99 116.769C158.625 87.1416 161.39 72.0797 160.104 39.8959ZM70.5293 97.875L89.4114 116.769L134.061 72.12C134.736 71.4348 135.54 70.8901 136.426 70.5171C137.313 70.1442 138.264 69.9505 139.226 69.9472C140.188 69.9438 141.141 70.1309 142.03 70.4977C142.919 70.8645 143.726 71.4036 144.406 72.0841C145.086 72.7645 145.624 73.5728 145.99 74.4624C146.355 75.3519 146.541 76.305 146.537 77.2667C146.532 78.2284 146.337 79.1798 145.964 80.0659C145.59 80.9519 145.044 81.7552 144.358 82.4293L94.5721 132.227C93.8972 132.908 93.0942 133.447 92.2095 133.816C91.3248 134.185 90.3759 134.374 89.4175 134.374C88.4591 134.374 87.5102 134.185 86.6255 133.816C85.7408 133.447 84.9378 132.908 84.2629 132.227L60.22 108.184C58.8529 106.817 58.0849 104.963 58.0849 103.03C58.0849 101.096 58.8529 99.2421 60.22 97.875C60.8969 97.1981 61.7005 96.6611 62.585 96.2948C63.4694 95.9284 64.4173 95.7399 65.3746 95.7399C66.332 95.7399 67.2799 95.9284 68.1643 96.2948C69.0488 96.6611 69.8524 97.1981 70.5293 97.875Z" fill="#25AE88"/>
<path d="M185 100C185 77.4566 176.045 55.8365 160.104 39.8959C161.39 72.0797 158.625 87.1416 145.99 116.769C133.898 145.122 121.744 163.153 100 185C122.543 185 144.163 176.045 160.104 160.104C176.045 144.163 185 122.543 185 100Z" fill="#85D5BF"/>
<path d="M89.4114 116.769L70.5293 97.875C69.8524 97.1981 69.0488 96.6611 68.1643 96.2948C67.2799 95.9284 66.332 95.7399 65.3746 95.7399C64.4173 95.7399 63.4694 95.9284 62.585 96.2948C61.7005 96.6611 60.8969 97.1981 60.22 97.875C58.8529 99.2421 58.0849 101.096 58.0849 103.03C58.0849 104.963 58.8529 106.817 60.22 108.184L84.2629 132.227C84.9378 132.908 85.7408 133.447 86.6255 133.816C87.5102 134.185 88.4591 134.374 89.4175 134.374C90.3759 134.374 91.3248 134.185 92.2095 133.816C93.0942 133.447 93.8972 132.908 94.5721 132.227L144.358 82.4293C145.044 81.7552 145.59 80.9519 145.964 80.0659C146.337 79.1798 146.532 78.2284 146.537 77.2667C146.541 76.305 146.355 75.3519 145.99 74.4624C145.624 73.5728 145.086 72.7645 144.406 72.0841C143.726 71.4036 142.919 70.8645 142.03 70.4977C141.141 70.1309 140.188 69.9438 139.226 69.9472C138.264 69.9505 137.313 70.1442 136.426 70.5171C135.54 70.8901 134.736 71.4348 134.061 72.12L89.4114 116.769Z" fill="#18785D"/>
</svg>
