<svg width="200" height="200" viewBox="0 0 200 200" fill="none" xmlns="http://www.w3.org/2000/svg">
<path fill-rule="evenodd" clip-rule="evenodd" d="M119.911 31.9642C111.128 17.3453 89.8605 17.3453 81.0885 31.9642L13.2559 144.818C4.21227 159.866 15.0782 179 32.6787 179H100.5C100.5 179 146.087 168.471 156.5 150.778C166.913 133.086 153.828 88.3909 153.828 88.3909L119.911 31.9642ZM106.503 68.5924C104.911 67.0046 102.751 66.1126 100.5 66.1126C98.2486 66.1126 96.0894 67.0046 94.4974 68.5924C92.9054 70.1802 92.011 72.3337 92.011 74.5792V108.445C92.011 110.691 92.9054 112.844 94.4974 114.432C96.0894 116.02 98.2486 116.912 100.5 116.912C102.751 116.912 104.911 116.02 106.503 114.432C108.095 112.844 108.989 110.691 108.989 108.445V74.5792C108.989 72.3337 108.095 70.1802 106.503 68.5924ZM108.503 147.472C110.626 145.355 111.819 142.483 111.819 139.489C111.819 136.495 110.626 133.624 108.503 131.507C106.381 129.39 103.502 128.201 100.5 128.201C97.4981 128.201 94.6192 129.39 92.4965 131.507C90.3738 133.624 89.1814 136.495 89.1814 139.489C89.1814 142.483 90.3738 145.355 92.4965 147.472C94.6192 149.589 97.4981 150.778 100.5 150.778C103.502 150.778 106.381 149.589 108.503 147.472Z" fill="#FFC857"/>
<path d="M168.321 179C185.922 179 196.788 159.866 187.744 144.818L153.828 88.3909C153.828 88.3909 166.913 133.086 156.5 150.778C146.087 168.471 100.5 179 100.5 179H168.321Z" fill="#FDE2AB"/>
<path d="M100.5 66.1126C102.751 66.1126 104.911 67.0046 106.503 68.5924C108.095 70.1802 108.989 72.3337 108.989 74.5792V108.445C108.989 110.691 108.095 112.844 106.503 114.432C104.911 116.02 102.751 116.912 100.5 116.912C98.2486 116.912 96.0894 116.02 94.4974 114.432C92.9054 112.844 92.011 110.691 92.011 108.445V74.5792C92.011 72.3337 92.9054 70.1802 94.4974 68.5924C96.0894 67.0046 98.2486 66.1126 100.5 66.1126Z" fill="#D4981C"/>
<path d="M111.819 139.489C111.819 142.483 110.626 145.355 108.503 147.472C106.381 149.589 103.502 150.778 100.5 150.778C97.4981 150.778 94.6192 149.589 92.4965 147.472C90.3738 145.355 89.1814 142.483 89.1814 139.489C89.1814 136.495 90.3738 133.624 92.4965 131.507C94.6192 129.39 97.4981 128.201 100.5 128.201C103.502 128.201 106.381 129.39 108.503 131.507C110.626 133.624 111.819 136.495 111.819 139.489Z" fill="#D4981C"/>
</svg>
